{
.appVersion = "939";
copyright = "Copyright (C) 2009 Apple Inc. Copyright (C)  2006 by Tavmjong Bah. Copyright (C) 2003 by Bitstream, Inc. All Rights Reserved.";
customParameters = (
{
name = description;
value = "Menlo is based upon the Open Source font Bitstream Vera and the public domain font Deja Vu. Bitstream Vera is a trademark of Bitstream, Inc., designed by Jim Lyles.";
},
{
name = vendorID;
value = PfEd;
},
{
name = panose;
value = (
2,
11,
6,
9,
3,
3,
4,
11,
2,
4
);
},
{
name = unicodeRanges;
value = (
0,
1,
2,
3,
4,
5,
6,
7,
9,
25,
26,
29,
30,
31,
32,
33,
35,
36,
37,
38,
39,
40,
43,
44,
45,
46,
60,
62,
69
);
},
{
name = codePageRanges;
value = (
1252,
1250,
1251,
1253,
1254,
1257,
1258,
869,
866,
865,
863,
861,
860,
857,
855,
852,
775,
737,
850,
437
);
},
{
name = glyphOrder;
value = (
.notdef,
NULL,
uni000D,
space,
exclam,
quotedbl,
numbersign,
dollar,
percent,
ampersand,
quotesingle,
parenleft,
parenright,
asterisk,
plus,
comma,
hyphen,
period,
slash,
zero,
one,
two,
three,
four,
five,
six,
seven,
eight,
nine,
colon,
semicolon,
less,
equal,
greater,
question,
at,
A,
B,
C,
D,
E,
F,
G,
H,
I,
J,
K,
L,
M,
N,
O,
P,
Q,
R,
S,
T,
U,
V,
W,
X,
Y,
Z,
bracketleft,
backslash,
bracketright,
asciicircum,
underscore,
grave,
a,
b,
c,
d,
e,
f,
g,
h,
i,
j,
k,
l,
m,
n,
o,
p,
q,
r,
s,
t,
u,
v,
w,
x,
y,
z,
braceleft,
bar,
braceright,
asciitilde,
uni00A0,
exclamdown,
cent,
sterling,
currency,
yen,
brokenbar,
section,
dieresis,
copyright,
ordfeminine,
guillemotleft,
logicalnot,
sfthyphen,
registered,
macron,
degree,
plusminus,
twosuperior,
threesuperior,
acute,
mu,
paragraph,
periodcentered,
cedilla,
onesuperior,
ordmasculine,
guillemotright,
onequarter,
onehalf,
threequarters,
questiondown,
Agrave,
Aacute,
Acircumflex,
Atilde,
Adieresis,
Aring,
AE,
Ccedilla,
Egrave,
Eacute,
Ecircumflex,
Edieresis,
Igrave,
Iacute,
Icircumflex,
Idieresis,
Eth,
Ntilde,
Ograve,
Oacute,
Ocircumflex,
Otilde,
Odieresis,
multiply,
Oslash,
Ugrave,
Uacute,
Ucircumflex,
Udieresis,
Yacute,
Thorn,

glyphs = (
{
glyphname = .notdef;
lastChange = "2018-11-11 15:31:49 +0000";
layers = (
{
layerId = "0E6DE79C-D280-4215-AD87-69B89CD8F3FA";
paths = (
{
closed = 1;
nodes = (
"1128 1444 LINE",
"104 1444 LINE",
"104 -362 LINE",
"1128 -362 LINE"
);
},
{
closed = 1;
nodes = (
"1014 1329 LINE",
"1014 -248 LINE",
"219 -248 LINE",
"219 1329 LINE"
);
}
);
width = 1233;
}
);
note = .notdef;
},
{
glyphname = exclam;
lastChange = "2018-11-11 15:31:49 +0000";
layers = (
{
layerId = "0E6DE79C-D280-4215-AD87-69B89CD8F3FA";
paths = (
{
closed = 1;
nodes = (
"500 531 LINE",
"661 531 LINE",
"747 838 LINE",
"887 1493 LINE",
"684 1493 LINE",
"544 838 LINE"
);
},
{
closed = 1;
nodes = (
"599 0 LINE",
"653 254 LINE",
"390 254 LINE",
"336 0 LINE"
);
}
);
width = 1233;
}
);
note = exclam;
unicode = 0021;
},
{
glyphname = quotedbl;
lastChange = "2018-11-11 15:31:49 +0000";
layers = (
{
layerId = "0E6DE79C-D280-4215-AD87-69B89CD8F3FA";
paths = (
{
closed = 1;
nodes = (
"681 935 LINE",
"905 935 LINE",
"905 1547 LINE",
"681 1547 LINE"
);
},
{
closed = 1;
nodes = (
"188 935 LINE",
"412 935 LINE",
"412 1547 LINE",
"188 1547 LINE"
);
}
);
width = 1233;
}
);
note = quotedbl;
unicode = 0022;
},
{
glyphname = numbersign;
lastChange = "2018-11-11 15:31:49 +0000";
layers = (
{
layerId = "0E6DE79C-D280-4215-AD87-69B89CD8F3FA";
paths = (
{
closed = 1;
nodes = (
"434 1111 LINE",
"131 1111 LINE",
"131 958 LINE",
"397 958 LINE",
"299 565 LINE",
"2 565 LINE",
"2 412 LINE",
"260 412 LINE",
"156 0 LINE",
"315 0 LINE",
"420 412 LINE",
"666 412 LINE",
"561 0 LINE",
"721 0 LINE",
"825 412 LINE",
"1114 412 LINE",
"1114 565 LINE",
"864 565 LINE",
"962 958 LINE",
"1243 958 LINE",
"1243 1111 LINE",
"999 1111 LINE",
"1090 1465 LINE",
"930 1465 LINE",
"839 1111 LINE",
"594 1111 LINE",
"684 1465 LINE",
"524 1465 LINE"
);
},
{
closed = 1;
nodes = (
"459 565 LINE",
"557 958 LINE",
"802 958 LINE",
"705 565 LINE"
);
}
);
width = 1233;
}
);
note = numbersign;
unicode = 0023;
},
{
glyphname = dollar;
lastChange = "2018-11-11 15:31:49 +0000";
layers = (
{
layerId = "0E6DE79C-D280-4215-AD87-69B89CD8F3FA";
paths = (
{
closed = 1;
nodes = (
"773 563 OFFCURVE",
"831 510 OFFCURVE",
"831 406 CURVE SMOOTH",
"831 251 OFFCURVE",
"715 145 OFFCURVE",
"543 145 CURVE",
"629 588 LINE"
);
},
{
closed = 1;
nodes = (
"422 805 OFFCURVE",
"373 848 OFFCURVE",
"373 940 CURVE SMOOTH",
"373 1072 OFFCURVE",
"484 1173 OFFCURVE",
"643 1184 CURVE",
"563 774 LINE"
);
},
{
closed = 1;
nodes = (
"524 2 LINE SMOOTH",
"812 2 OFFCURVE",
"1014 181 OFFCURVE",
"1014 426 CURVE SMOOTH",
"1014 599 OFFCURVE",
"894 711 OFFCURVE",
"662 756 CURVE",
"743 1182 LINE",
"862 1171 OFFCURVE",
"964 1140 OFFCURVE",
"1051 1087 CURVE",
"1083 1260 LINE",
"987 1292 OFFCURVE",
"883 1313 OFFCURVE",
"770 1321 CURVE",
"817 1556 LINE",
"717 1556 LINE",
"669 1321 LINE",
"390 1312 OFFCURVE",
"195 1142 OFFCURVE",
"195 911 CURVE SMOOTH",
"195 744 OFFCURVE",
"295 653 OFFCURVE",
"530 606 CURVE",
"440 141 LINE",
"301 148 OFFCURVE",
"174 192 OFFCURVE",
"66 272 CURVE",
"31 92 LINE",
"158 35 OFFCURVE",
"286 4 OFFCURVE",
"413 0 CURVE",
"354 -301 LINE",
"455 -301 LINE",
"514 2 LINE"
);
}
);
width = 1233;
}
);
note = dollar;
unicode = 0024;
},
{
glyphname = percent;
lastChange = "2018-11-11 15:31:49 +0000";
layers = (
{
layerId = "0E6DE79C-D280-4215-AD87-69B89CD8F3FA";
paths = (
{
closed = 1;
nodes = (
"696 424 OFFCURVE",
"775 504 OFFCURVE",
"879 504 CURVE SMOOTH",
"980 504 OFFCURVE",
"1063 422 OFFCURVE",
"1063 319 CURVE SMOOTH",
"1063 216 OFFCURVE",
"982 135 OFFCURVE",
"879 135 CURVE SMOOTH",
"775 135 OFFCURVE",
"696 215 OFFCURVE",
"696 319 CURVE SMOOTH"
);
},
{
closed = 1;
nodes = (
"561 138 OFFCURVE",
"698 0 OFFCURVE",
"879 0 CURVE SMOOTH",
"1059 0 OFFCURVE",
"1200 142 OFFCURVE",
"1200 319 CURVE SMOOTH",
"1200 403 OFFCURVE",
"1165 482 OFFCURVE",
"1104 545 CURVE SMOOTH",
"1043 606 OFFCURVE",
"964 639 OFFCURVE",
"879 639 CURVE SMOOTH",
"700 639 OFFCURVE",
"561 499 OFFCURVE",
"561 319 CURVE SMOOTH"
);
},
{
closed = 1;
nodes = (
"1154 999 LINE",
"39 553 LINE",
"83 440 LINE",
"1204 886 LINE"
);
},
{
closed = 1;
nodes = (
"168 1216 OFFCURVE",
"249 1296 OFFCURVE",
"352 1296 CURVE SMOOTH",
"455 1296 OFFCURVE",
"537 1215 OFFCURVE",
"537 1112 CURVE SMOOTH",
"537 1009 OFFCURVE",
"455 928 OFFCURVE",
"352 928 CURVE SMOOTH",
"247 928 OFFCURVE",
"168 1007 OFFCURVE",
"168 1112 CURVE SMOOTH"
);
},
{
closed = 1;
nodes = (
"33 932 OFFCURVE",
"172 793 OFFCURVE",
"352 793 CURVE SMOOTH",
"531 793 OFFCURVE",
"672 933 OFFCURVE",
"672 1112 CURVE SMOOTH",
"672 1199 OFFCURVE",
"638 1279 OFFCURVE",
"578 1339 CURVE SMOOTH",
"518 1399 OFFCURVE",
"437 1432 OFFCURVE",
"352 1432 CURVE SMOOTH",
"172 1432 OFFCURVE",
"33 1292 OFFCURVE",
"33 1112 CURVE SMOOTH"
);
}
);
width = 1233;
}
);
note = percent;
unicode = 0025;
},
{
glyphname = ampersand;
lastChange = "2018-11-11 15:31:49 +0000";
layers = (
{
layerId = "0E6DE79C-D280-4215-AD87-69B89CD8F3FA";
paths = (
{
closed = 1;
nodes = (
"514 1003 OFFCURVE",
"483 1094 OFFCURVE",
"483 1157 CURVE SMOOTH",
"483 1282 OFFCURVE",
"582 1366 OFFCURVE",
"733 1366 CURVE SMOOTH",
"834 1366 OFFCURVE",
"917 1341 OFFCURVE",
"973 1290 CURVE",
"1008 1473 LINE",
"932 1504 OFFCURVE",
"849 1520 OFFCURVE",
"762 1520 CURVE SMOOTH",
"486 1520 OFFCURVE",
"309 1367 OFFCURVE",
"309 1135 CURVE SMOOTH",
"309 1062 OFFCURVE",
"328 989 OFFCURVE",
"367 920 CURVE",
"116 783 OFFCURVE",
"-20 584 OFFCURVE",
"-20 360 CURVE SMOOTH",
"-20 127 OFFCURVE",
"150 -29 OFFCURVE",
"410 -29 CURVE SMOOTH",
"549 -29 OFFCURVE",
"682 18 OFFCURVE",
"809 113 CURVE",
"868 0 LINE",
"1067 0 LINE",
"944 221 LINE",
"1087 357 OFFCURVE",
"1167 536 OFFCURVE",
"1190 760 CURVE",
"1022 760 LINE",
"1006 575 OFFCURVE",
"957 438 OFFCURVE",
"874 350 CURVE",
"567 907 LINE SMOOTH"
);
},
{
closed = 1;
nodes = (
"646 168 OFFCURVE",
"546 129 OFFCURVE",
"459 129 CURVE SMOOTH",
"287 129 OFFCURVE",
"158 249 OFFCURVE",
"158 408 CURVE SMOOTH",
"158 564 OFFCURVE",
"252 698 OFFCURVE",
"432 795 CURVE",
"741 240 LINE"
);
}
);
width = 1233;
}
);
note = ampersand;
unicode = 0026;
},
{
glyphname = quotesingle;
lastChange = "2018-11-11 15:31:49 +0000";
layers = (
{
layerId = "0E6DE79C-D280-4215-AD87-69B89CD8F3FA";
paths = (
{
closed = 1;
nodes = (
"488 935 LINE",
"712 935 LINE",
"712 1558 LINE",
"488 1558 LINE"
);
}
);
width = 1233;
}
);
note = quotesingle;
unicode = 0027;
},
{
glyphname = parenleft;
lastChange = "2018-11-11 15:31:49 +0000";
layers = (
{
layerId = "0E6DE79C-D280-4215-AD87-69B89CD8F3FA";
paths = (
{
closed = 1;
nodes = (
"547 1185 OFFCURVE",
"373 779 OFFCURVE",
"373 375 CURVE SMOOTH",
"373 186 OFFCURVE",
"421 -18 OFFCURVE",
"526 -270 CURVE",
"686 -270 LINE",
"606 -54 OFFCURVE",
"567 145 OFFCURVE",
"567 340 CURVE SMOOTH",
"567 743 OFFCURVE",
"727 1153 OFFCURVE",
"1042 1554 CURVE",
"883 1554 LINE"
);
}
);
width = 1233;
}
);
note = parenleft;
unicode = 0028;
},
{
glyphname = parenright;
lastChange = "2018-11-11 15:31:49 +0000";
layers = (
{
layerId = "0E6DE79C-D280-4215-AD87-69B89CD8F3FA";
paths = (
{
closed = 1;
nodes = (
"645 99 OFFCURVE",
"819 505 OFFCURVE",
"819 909 CURVE SMOOTH",
"819 1098 OFFCURVE",
"770 1303 OFFCURVE",
"666 1554 CURVE",
"506 1554 LINE",
"586 1338 OFFCURVE",
"625 1139 OFFCURVE",
"625 944 CURVE SMOOTH",
"625 540 OFFCURVE",
"465 130 OFFCURVE",
"150 -270 CURVE",
"309 -270 LINE"
);
}
);
width = 1233;
}
);
note = parenright;
unicode = 0029;
},
{
glyphname = asterisk;
lastChange = "2018-11-11 15:31:49 +0000";
layers = (
{
layerId = "0E6DE79C-D280-4215-AD87-69B89CD8F3FA";
paths = (
{
closed = 1;
nodes = (
"691 743 LINE",
"691 1209 LINE",
"548 1209 LINE",
"548 743 LINE",
"130 994 LINE",
"60 871 LINE",
"505 631 LINE",
"60 390 LINE",
"130 268 LINE",
"548 519 LINE",
"548 53 LINE",
"691 53 LINE",
"691 519 LINE",
"1109 268 LINE",
"1179 390 LINE",
"735 631 LINE",
"1179 871 LINE",
"1109 994 LINE"
);
}
);
width = 1233;
}
);
note = asterisk;
unicode = 002A;
},
{
glyphname = plus;
lastChange = "2018-11-11 15:31:49 +0000";
layers = (
{
layerId = "0E6DE79C-D280-4215-AD87-69B89CD8F3FA";
paths = (
{
closed = 1;
nodes = (
"552 715 LINE",
"108 715 LINE",
"75 546 LINE",
"519 546 LINE",
"433 103 LINE",
"601 103 LINE",
"687 546 LINE",
"1132 546 LINE",
"1165 715 LINE",
"720 715 LINE",
"806 1158 LINE",
"638 1158 LINE"
);
}
);
width = 1233;
}
);
note = plus;
unicode = 002B;
},
{
glyphname = comma;
lastChange = "2018-11-11 15:31:49 +0000";
layers = (
{
layerId = "0E6DE79C-D280-4215-AD87-69B89CD8F3FA";
paths = (
{
closed = 1;
nodes = (
"185 -336 LINE",
"385 -335 LINE",
"691 96 LINE",
"743 361 LINE",
"431 361 LINE",
"379 96 LINE"
);
}
);
width = 1233;
}
);
note = comma;
unicode = 002C;
},
{
glyphname = hyphen;
lastChange = "2018-11-11 15:31:49 +0000";
layers = (
{
layerId = "0E6DE79C-D280-4215-AD87-69B89CD8F3FA";
paths = (
{
closed = 1;
nodes = (
"1159 555 LINE",
"1195 724 LINE",
"135 724 LINE",
"99 555 LINE"
);
}
);
width = 1233;
}
);
note = hyphen;
unicode = 002D;
},
{
glyphname = period;
lastChange = "2018-11-11 15:31:49 +0000";
layers = (
{
layerId = "0E6DE79C-D280-4215-AD87-69B89CD8F3FA";
paths = (
{
closed = 1;
nodes = (
"701 0 LINE",
"780 404 LINE",
"428 404 LINE",
"349 0 LINE"
);
}
);
width = 1233;
}
);
note = period;
unicode = 002E;
},
{
glyphname = slash;
lastChange = "2018-11-11 15:31:49 +0000";
layers = (
{
layerId = "0E6DE79C-D280-4215-AD87-69B89CD8F3FA";
paths = (
{
closed = 1;
nodes = (
"1059 1493 LINE",
"868 1493 LINE",
"16 -190 LINE",
"205 -190 LINE"
);
}
);
width = 1233;
}
);
note = slash;
unicode = 002F;
},
{
glyphname = zero;
lastChange = "2018-11-11 15:31:49 +0000";
layers = (
{
layerId = "0E6DE79C-D280-4215-AD87-69B89CD8F3FA";
paths = (
{
closed = 1;
nodes = (
"435 1511 OFFCURVE",
"223 1241 OFFCURVE",
"130 728 CURVE SMOOTH",
"39 216 OFFCURVE",
"154 -43 OFFCURVE",
"473 -34 CURVE SMOOTH",
"792 -25 OFFCURVE",
"1005 245 OFFCURVE",
"1097 758 CURVE SMOOTH",
"1189 1270 OFFCURVE",
"1073 1531 OFFCURVE",
"754 1520 CURVE SMOOTH"
);
},
{
closed = 1;
nodes = (
"409 125 OFFCURVE",
"347 177 OFFCURVE",
"317 286 CURVE",
"929 1051 LINE",
"926 962 OFFCURVE",
"915 863 OFFCURVE",
"894 752 CURVE SMOOTH",
"819 336 OFFCURVE",
"691 133 OFFCURVE",
"502 128 CURVE SMOOTH"
);
},
{
closed = 1;
nodes = (
"811 1361 OFFCURVE",
"871 1319 OFFCURVE",
"905 1232 CURVE",
"304 469 LINE",
"306 552 OFFCURVE",
"316 640 OFFCURVE",
"333 734 CURVE SMOOTH",
"409 1150 OFFCURVE",
"537 1353 OFFCURVE",
"725 1358 CURVE SMOOTH"
);
}
);
width = 1233;
}
);
note = zero;
unicode = 0030;
},
{
glyphname = one;
lastChange = "2018-11-11 15:31:49 +0000";
layers = (
{
layerId = "0E6DE79C-D280-4215-AD87-69B89CD8F3FA";
paths = (
{
closed = 1;
nodes = (
"946 0 LINE",
"979 170 LINE",
"670 170 LINE",
"928 1493 LINE",
"725 1493 LINE",
"373 1419 LINE",
"338 1235 LINE",
"690 1311 LINE",
"469 170 LINE",
"156 170 LINE",
"123 0 LINE"
);
}
);
width = 1233;
}
);
note = one;
unicode = 0031;
},
{
glyphname = two;
lastChange = "2018-11-11 15:31:49 +0000";
layers = (
{
layerId = "0E6DE79C-D280-4215-AD87-69B89CD8F3FA";
paths = (
{
closed = 1;
nodes = (
"708 547 OFFCURVE",
"797 625 OFFCURVE",
"854 678 CURVE SMOOTH",
"911 731 OFFCURVE",
"951 771 OFFCURVE",
"973 799 CURVE SMOOTH",
"1082 936 OFFCURVE",
"1126 1043 OFFCURVE",
"1126 1171 CURVE SMOOTH",
"1126 1378 OFFCURVE",
"960 1520 OFFCURVE",
"713 1520 CURVE SMOOTH",
"584 1520 OFFCURVE",
"444 1486 OFFCURVE",
"295 1421 CURVE",
"254 1217 LINE",
"422 1308 OFFCURVE",
"561 1352 OFFCURVE",
"684 1352 CURVE SMOOTH",
"836 1352 OFFCURVE",
"926 1277 OFFCURVE",
"926 1153 CURVE SMOOTH",
"926 1018 OFFCURVE",
"747 793 OFFCURVE",
"389 479 CURVE SMOOTH",
"350 444 LINE",
"39 170 LINE",
"6 0 LINE",
"920 0 LINE",
"952 170 LINE",
"268 170 LINE",
"588 444 LINE SMOOTH"
);
}
);
width = 1233;
}
);
note = two;
unicode = 0032;
},
{
glyphname = three;
lastChange = "2018-11-11 15:31:49 +0000";
layers = (
{
layerId = "0E6DE79C-D280-4215-AD87-69B89CD8F3FA";
paths = (
{
closed = 1;
nodes = (
"977 843 OFFCURVE",
"1102 988 OFFCURVE",
"1102 1192 CURVE SMOOTH",
"1102 1395 OFFCURVE",
"949 1520 OFFCURVE",
"698 1520 CURVE SMOOTH",
"586 1520 OFFCURVE",
"461 1500 OFFCURVE",
"297 1456 CURVE",
"260 1270 LINE",
"411 1323 OFFCURVE",
"540 1350 OFFCURVE",
"649 1350 CURVE SMOOTH",
"821 1350 OFFCURVE",
"901 1288 OFFCURVE",
"901 1155 CURVE SMOOTH",
"901 990 OFFCURVE",
"768 881 OFFCURVE",
"557 881 CURVE SMOOTH",
"403 881 LINE",
"371 715 LINE",
"524 715 LINE SMOOTH",
"708 715 OFFCURVE",
"805 633 OFFCURVE",
"805 477 CURVE SMOOTH",
"805 278 OFFCURVE",
"642 141 OFFCURVE",
"399 141 CURVE SMOOTH",
"268 141 OFFCURVE",
"141 177 OFFCURVE",
"20 246 CURVE",
"-18 45 LINE",
"107 -4 OFFCURVE",
"245 -29 OFFCURVE",
"389 -29 CURVE SMOOTH",
"762 -29 OFFCURVE",
"1004 177 OFFCURVE",
"1004 489 CURVE SMOOTH",
"1004 657 OFFCURVE",
"914 772 OFFCURVE",
"762 799 CURVE"
);
}
);
width = 1233;
}
);
note = three;
unicode = 0033;
},
{
glyphname = four;
lastChange = "2018-11-11 15:31:49 +0000";
layers = (
{
layerId = "0E6DE79C-D280-4215-AD87-69B89CD8F3FA";
paths = (
{
closed = 1;
nodes = (
"217 520 LINE",
"842 1282 LINE",
"690 520 LINE"
);
},
{
closed = 1;
nodes = (
"25 356 LINE",
"659 356 LINE",
"590 0 LINE",
"788 0 LINE",
"858 356 LINE",
"1057 356 LINE",
"1087 520 LINE",
"889 520 LINE",
"1079 1493 LINE",
"846 1493 LINE",
"61 547 LINE"
);
}
);
width = 1233;
}
);
note = four;
unicode = 0034;
},
{
glyphname = five;
lastChange = "2018-11-11 15:31:49 +0000";
layers = (
{
layerId = "0E6DE79C-D280-4215-AD87-69B89CD8F3FA";
paths = (
{
closed = 1;
nodes = (
"307 794 OFFCURVE",
"421 821 OFFCURVE",
"526 821 CURVE SMOOTH",
"715 821 OFFCURVE",
"829 718 OFFCURVE",
"829 547 CURVE SMOOTH",
"829 315 OFFCURVE",
"647 139 OFFCURVE",
"399 139 CURVE SMOOTH",
"274 139 OFFCURVE",
"157 172 OFFCURVE",
"45 240 CURVE",
"4 35 LINE",
"100 -6 OFFCURVE",
"227 -29 OFFCURVE",
"371 -29 CURVE SMOOTH",
"562 -29 OFFCURVE",
"712 24 OFFCURVE",
"829 131 CURVE SMOOTH",
"957 246 OFFCURVE",
"1030 410 OFFCURVE",
"1030 575 CURVE SMOOTH",
"1030 822 OFFCURVE",
"863 987 OFFCURVE",
"612 987 CURVE SMOOTH",
"553 987 OFFCURVE",
"495 977 OFFCURVE",
"432 956 CURVE",
"504 1323 LINE",
"1075 1323 LINE",
"1108 1493 LINE",
"352 1493 LINE",
"207 743 LINE"
);
}
);
width = 1233;
}
);
note = five;
unicode = 0035;
},
{
glyphname = six;
lastChange = "2018-11-11 15:31:49 +0000";
layers = (
{
layerId = "0E6DE79C-D280-4215-AD87-69B89CD8F3FA";
paths = (
{
closed = 1;
nodes = (
"860 331 OFFCURVE",
"714 129 OFFCURVE",
"522 129 CURVE SMOOTH",
"379 129 OFFCURVE",
"293 226 OFFCURVE",
"293 387 CURVE SMOOTH",
"293 640 OFFCURVE",
"442 829 OFFCURVE",
"637 829 CURVE SMOOTH",
"780 829 OFFCURVE",
"860 745 OFFCURVE",
"860 594 CURVE SMOOTH"
);
},
{
closed = 1;
nodes = (
"1044 1499 OFFCURVE",
"948 1520 OFFCURVE",
"848 1520 CURVE SMOOTH",
"572 1520 OFFCURVE",
"369 1377 OFFCURVE",
"238 1090 CURVE SMOOTH",
"147 895 OFFCURVE",
"92 641 OFFCURVE",
"92 420 CURVE SMOOTH",
"92 133 OFFCURVE",
"245 -29 OFFCURVE",
"516 -29 CURVE SMOOTH",
"679 -29 OFFCURVE",
"811 35 OFFCURVE",
"915 164 CURVE SMOOTH",
"1006 275 OFFCURVE",
"1063 445 OFFCURVE",
"1063 604 CURVE SMOOTH",
"1063 849 OFFCURVE",
"929 987 OFFCURVE",
"692 987 CURVE SMOOTH",
"541 987 OFFCURVE",
"415 916 OFFCURVE",
"324 780 CURVE",
"397 1157 OFFCURVE",
"566 1350 OFFCURVE",
"823 1350 CURVE SMOOTH",
"923 1350 OFFCURVE",
"1015 1323 OFFCURVE",
"1092 1274 CURVE",
"1128 1460 LINE"
);
}
);
width = 1233;
}
);
note = six;
unicode = 0036;
},
{
glyphname = seven;
lastChange = "2018-11-11 15:31:49 +0000";
layers = (
{
layerId = "0E6DE79C-D280-4215-AD87-69B89CD8F3FA";
paths = (
{
closed = 1;
nodes = (
"952 1323 LINE",
"174 0 LINE",
"391 0 LINE",
"1196 1399 LINE",
"1212 1493 LINE",
"276 1493 LINE",
"244 1323 LINE"
);
}
);
width = 1233;
}
);
note = seven;
unicode = 0037;
},
{
glyphname = eight;
lastChange = "2018-11-11 15:31:49 +0000";
layers = (
{
layerId = "0E6DE79C-D280-4215-AD87-69B89CD8F3FA";
paths = (
{
closed = 1;
nodes = (
"821 261 OFFCURVE",
"689 127 OFFCURVE",
"492 127 CURVE SMOOTH",
"343 127 OFFCURVE",
"246 218 OFFCURVE",
"246 358 CURVE SMOOTH",
"246 563 OFFCURVE",
"382 709 OFFCURVE",
"571 709 CURVE SMOOTH",
"728 709 OFFCURVE",
"821 616 OFFCURVE",
"821 461 CURVE SMOOTH"
);
},
{
closed = 1;
nodes = (
"190 744 OFFCURVE",
"41 575 OFFCURVE",
"41 354 CURVE SMOOTH",
"41 115 OFFCURVE",
"209 -29 OFFCURVE",
"485 -29 CURVE SMOOTH",
"801 -29 OFFCURVE",
"1026 174 OFFCURVE",
"1026 453 CURVE SMOOTH",
"1026 630 OFFCURVE",
"940 742 OFFCURVE",
"772 782 CURVE",
"985 837 OFFCURVE",
"1126 1002 OFFCURVE",
"1126 1194 CURVE SMOOTH",
"1126 1386 OFFCURVE",
"962 1520 OFFCURVE",
"725 1520 CURVE SMOOTH",
"440 1520 OFFCURVE",
"215 1324 OFFCURVE",
"215 1081 CURVE SMOOTH",
"215 941 OFFCURVE",
"287 844 OFFCURVE",
"430 793 CURVE"
);
},
{
closed = 1;
nodes = (
"839 1364 OFFCURVE",
"926 1286 OFFCURVE",
"926 1165 CURVE SMOOTH",
"926 998 OFFCURVE",
"799 866 OFFCURVE",
"635 866 CURVE SMOOTH",
"499 866 OFFCURVE",
"416 947 OFFCURVE",
"416 1079 CURVE SMOOTH",
"416 1244 OFFCURVE",
"538 1364 OFFCURVE",
"707 1364 CURVE SMOOTH"
);
}
);
width = 1233;
}
);
note = eight;
unicode = 0038;
},
{
glyphname = nine;
lastChange = "2018-11-11 15:31:49 +0000";
layers = (
{
layerId = "0E6DE79C-D280-4215-AD87-69B89CD8F3FA";
paths = (
{
closed = 1;
nodes = (
"330 1160 OFFCURVE",
"478 1362 OFFCURVE",
"670 1362 CURVE SMOOTH",
"813 1362 OFFCURVE",
"897 1267 OFFCURVE",
"897 1104 CURVE SMOOTH",
"897 851 OFFCURVE",
"748 662 OFFCURVE",
"553 662 CURVE SMOOTH",
"410 662 OFFCURVE",
"330 746 OFFCURVE",
"330 897 CURVE SMOOTH"
);
},
{
closed = 1;
nodes = (
"148 -9 OFFCURVE",
"242 -29 OFFCURVE",
"342 -29 CURVE SMOOTH",
"619 -29 OFFCURVE",
"823 116 OFFCURVE",
"954 401 CURVE SMOOTH",
"1045 596 OFFCURVE",
"1100 850 OFFCURVE",
"1100 1071 CURVE SMOOTH",
"1100 1356 OFFCURVE",
"945 1520 OFFCURVE",
"674 1520 CURVE SMOOTH",
"511 1520 OFFCURVE",
"378 1455 OFFCURVE",
"274 1327 CURVE SMOOTH",
"185 1216 OFFCURVE",
"127 1046 OFFCURVE",
"127 889 CURVE SMOOTH",
"127 642 OFFCURVE",
"261 504 OFFCURVE",
"498 504 CURVE SMOOTH",
"649 504 OFFCURVE",
"775 575 OFFCURVE",
"866 711 CURVE",
"793 334 OFFCURVE",
"624 141 OFFCURVE",
"367 141 CURVE SMOOTH",
"267 141 OFFCURVE",
"175 168 OFFCURVE",
"98 217 CURVE",
"63 31 LINE"
);
}
);
width = 1233;
}
);
note = nine;
unicode = 0039;
},
{
glyphname = colon;
lastChange = "2018-11-11 15:31:49 +0000";
layers = (
{
layerId = "0E6DE79C-D280-4215-AD87-69B89CD8F3FA";
paths = (
{
closed = 1;
nodes = (
"808 758 LINE",
"878 1119 LINE",
"566 1119 LINE",
"496 758 LINE"
);
},
{
closed = 1;
nodes = (
"661 0 LINE",
"731 364 LINE",
"419 364 LINE",
"349 0 LINE"
);
}
);
width = 1233;
}
);
note = colon;
unicode = 003A;
},
{
glyphname = semicolon;
lastChange = "2018-11-11 15:31:49 +0000";
layers = (
{
layerId = "0E6DE79C-D280-4215-AD87-69B89CD8F3FA";
paths = (
{
closed = 1;
nodes = (
"197 -286 LINE",
"411 -286 LINE",
"682 96 LINE",
"734 361 LINE",
"422 361 LINE",
"370 96 LINE"
);
},
{
closed = 1;
nodes = (
"798 758 LINE",
"868 1119 LINE",
"556 1119 LINE",
"486 758 LINE"
);
}
);
width = 1233;
}
);
note = semicolon;
unicode = 003B;
},
{
glyphname = less;
lastChange = "2018-11-11 15:31:49 +0000";
layers = (
{
layerId = "0E6DE79C-D280-4215-AD87-69B89CD8F3FA";
paths = (
{
closed = 1;
nodes = (
"88 725 LINE",
"88 559 LINE",
"1145 141 LINE",
"1145 324 LINE",
"295 641 LINE",
"1145 961 LINE",
"1145 1143 LINE"
);
}
);
width = 1233;
}
);
note = less;
unicode = 003C;
},
{
glyphname = equal;
lastChange = "2018-11-11 15:31:49 +0000";
layers = (
{
layerId = "0E6DE79C-D280-4215-AD87-69B89CD8F3FA";
paths = (
{
closed = 1;
nodes = (
"1145 352 LINE",
"1145 524 LINE",
"88 524 LINE",
"88 352 LINE"
);
},
{
closed = 1;
nodes = (
"1145 760 LINE",
"1145 930 LINE",
"88 930 LINE",
"88 760 LINE"
);
},
{
closed = 1;
nodes = (
"1145 381 LINE",
"1145 550 LINE",
"88 550 LINE",
"88 381 LINE"
);
},
{
closed = 1;
nodes = (
"1145 752 LINE",
"1145 921 LINE",
"88 921 LINE",
"88 752 LINE"
);
}
);
width = 1233;
}
);
note = equal;
unicode = 003D;
},
{
glyphname = greater;
lastChange = "2018-11-11 15:31:49 +0000";
layers = (
{
layerId = "0E6DE79C-D280-4215-AD87-69B89CD8F3FA";
paths = (
{
closed = 1;
nodes = (
"88 324 LINE",
"88 141 LINE",
"1145 559 LINE",
"1145 725 LINE",
"88 1143 LINE",
"88 961 LINE",
"938 641 LINE"
);
}
);
width = 1233;
}
);
note = greater;
unicode = 003E;
},
{
glyphname = question;
lastChange = "2018-11-11 15:31:49 +0000";
layers = (
{
layerId = "0E6DE79C-D280-4215-AD87-69B89CD8F3FA";
paths = (
{
closed = 1;
nodes = (
"649 639 OFFCURVE",
"676 689 OFFCURVE",
"788 782 CURVE SMOOTH",
"893 868 LINE SMOOTH",
"1066 1012 OFFCURVE",
"1120 1106 OFFCURVE",
"1120 1231 CURVE SMOOTH",
"1120 1399 OFFCURVE",
"978 1520 OFFCURVE",
"774 1520 CURVE SMOOTH",
"639 1520 OFFCURVE",
"507 1483 OFFCURVE",
"362 1407 CURVE",
"326 1219 LINE",
"466 1307 OFFCURVE",
"602 1356 OFFCURVE",
"707 1356 CURVE SMOOTH",
"839 1356 OFFCURVE",
"918 1299 OFFCURVE",
"918 1200 CURVE SMOOTH",
"918 1125 OFFCURVE",
"875 1057 OFFCURVE",
"762 961 CURVE SMOOTH",
"655 870 LINE SMOOTH",
"504 745 OFFCURVE",
"471 676 OFFCURVE",
"446 555 CURVE SMOOTH",
"418 401 LINE",
"608 401 LINE",
"629 524 LINE SMOOTH"
);
},
{
closed = 1;
nodes = (
"537 0 LINE",
"586 254 LINE",
"383 254 LINE",
"332 0 LINE"
);
}
);
width = 1233;
}
);
note = question;
unicode = 003F;
},
{
glyphname = at;
lastChange = "2018-11-11 15:31:49 +0000";
layers = (
{
layerId = "0E6DE79C-D280-4215-AD87-69B89CD8F3FA";
paths = (
{
closed = 1;
nodes = (
"955 372 OFFCURVE",
"841 260 OFFCURVE",
"698 260 CURVE SMOOTH",
"555 260 OFFCURVE",
"484 372 OFFCURVE",
"519 545 CURVE SMOOTH",
"554 717 OFFCURVE",
"668 829 OFFCURVE",
"811 829 CURVE SMOOTH",
"954 829 OFFCURVE",
"1025 717 OFFCURVE",
"990 545 CURVE SMOOTH"
);
},
{
closed = 1;
nodes = (
"1261 1204 OFFCURVE",
"1119 1395 OFFCURVE",
"840 1395 CURVE SMOOTH",
"419 1395 OFFCURVE",
"82 1063 OFFCURVE",
"-21 543 CURVE SMOOTH",
"-125 15 OFFCURVE",
"109 -318 OFFCURVE",
"572 -322 CURVE",
"645 -334 OFFCURVE",
"810 -332 OFFCURVE",
"898 -325 CURVE",
"927 -181 LINE",
"875 -184 OFFCURVE",
"816 -185 OFFCURVE",
"751 -185 CURVE SMOOTH",
"686 -185 OFFCURVE",
"635 -182 OFFCURVE",
"600 -177 CURVE",
"219 -176 OFFCURVE",
"40 104 OFFCURVE",
"127 543 CURVE SMOOTH",
"214 979 OFFCURVE",
"478 1253 OFFCURVE",
"806 1253 CURVE SMOOTH",
"999 1253 OFFCURVE",
"1100 1115 OFFCURVE",
"1057 907 CURVE SMOOTH",
"1045 844 LINE",
"1013 925 OFFCURVE",
"928 975 OFFCURVE",
"821 975 CURVE SMOOTH",
"606 975 OFFCURVE",
"413 796 OFFCURVE",
"364 545 CURVE SMOOTH",
"313 294 OFFCURVE",
"435 115 OFFCURVE",
"650 115 CURVE SMOOTH",
"759 115 OFFCURVE",
"861 162 OFFCURVE",
"926 246 CURVE",
"904 135 LINE",
"1048 135 LINE",
"1201 905 LINE SMOOTH"
);
}
);
width = 1233;
}
);
note = at;
unicode = 0040;
},
{
glyphname = A;
lastChange = "2018-11-11 15:31:49 +0000";
layers = (
{
layerId = "0E6DE79C-D280-4215-AD87-69B89CD8F3FA";
paths = (
{
closed = 1;
nodes = (
"371 551 LINE",
"735 1325 LINE",
"801 551 LINE"
);
},
{
closed = 1;
nodes = (
"111 0 LINE",
"295 389 LINE",
"815 389 LINE",
"850 0 LINE",
"1051 0 LINE",
"885 1493 LINE",
"639 1493 LINE",
"-106 0 LINE"
);
}
);
width = 1233;
}
);
note = A;
unicode = 0041;
},
{
glyphname = B;
lastChange = "2018-11-11 15:31:49 +0000";
layers = (
{
layerId = "0E6DE79C-D280-4215-AD87-69B89CD8F3FA";
paths = (
{
closed = 1;
nodes = (
"797 713 OFFCURVE",
"885 647 OFFCURVE",
"885 504 CURVE SMOOTH",
"885 285 OFFCURVE",
"751 166 OFFCURVE",
"506 166 CURVE SMOOTH",
"258 166 LINE",
"365 713 LINE",
"606 713 LINE SMOOTH"
);
},
{
closed = 1;
nodes = (
"894 1327 OFFCURVE",
"963 1274 OFFCURVE",
"963 1149 CURVE SMOOTH",
"963 980 OFFCURVE",
"840 877 OFFCURVE",
"639 877 CURVE SMOOTH",
"395 877 LINE",
"483 1327 LINE",
"727 1327 LINE SMOOTH"
);
},
{
closed = 1;
nodes = (
"475 0 LINE SMOOTH",
"863 0 OFFCURVE",
"1085 182 OFFCURVE",
"1085 494 CURVE SMOOTH",
"1085 659 OFFCURVE",
"994 768 OFFCURVE",
"827 799 CURVE",
"1035 826 OFFCURVE",
"1167 975 OFFCURVE",
"1167 1180 CURVE SMOOTH",
"1167 1385 OFFCURVE",
"1027 1493 OFFCURVE",
"756 1493 CURVE SMOOTH",
"313 1493 LINE",
"23 0 LINE"
);
}
);
width = 1233;
}
);
note = B;
unicode = 0042;
},
{
glyphname = C;
lastChange = "2018-11-11 15:31:49 +0000";
layers = (
{
layerId = "0E6DE79C-D280-4215-AD87-69B89CD8F3FA";
paths = (
{
closed = 1;
nodes = (
"866 179 OFFCURVE",
"742 135 OFFCURVE",
"629 135 CURVE SMOOTH",
"433 135 OFFCURVE",
"326 261 OFFCURVE",
"326 492 CURVE SMOOTH",
"326 749 OFFCURVE",
"418 1028 OFFCURVE",
"557 1192 CURVE SMOOTH",
"652 1303 OFFCURVE",
"758 1356 OFFCURVE",
"885 1356 CURVE SMOOTH",
"992 1356 OFFCURVE",
"1086 1315 OFFCURVE",
"1171 1231 CURVE",
"1212 1438 LINE",
"1112 1491 OFFCURVE",
"1006 1520 OFFCURVE",
"899 1520 CURVE SMOOTH",
"679 1520 OFFCURVE",
"512 1439 OFFCURVE",
"369 1266 CURVE SMOOTH",
"217 1083 OFFCURVE",
"115 770 OFFCURVE",
"115 477 CURVE SMOOTH",
"115 157 OFFCURVE",
"291 -29 OFFCURVE",
"598 -29 CURVE SMOOTH",
"719 -29 OFFCURVE",
"832 -2 OFFCURVE",
"944 53 CURVE",
"983 260 LINE"
);
}
);
width = 1233;
}
);
note = C;
unicode = 0043;
},
{
glyphname = D;
lastChange = "2018-11-11 15:31:49 +0000";
layers = (
{
layerId = "0E6DE79C-D280-4215-AD87-69B89CD8F3FA";
paths = (
{
closed = 1;
nodes = (
"453 1327 LINE",
"567 1327 LINE SMOOTH",
"824 1327 OFFCURVE",
"924 1234 OFFCURVE",
"924 999 CURVE SMOOTH",
"924 822 OFFCURVE",
"873 585 OFFCURVE",
"801 432 CURVE SMOOTH",
"710 244 OFFCURVE",
"571 166 OFFCURVE",
"324 166 CURVE SMOOTH",
"227 166 LINE"
);
},
{
closed = 1;
nodes = (
"-8 0 LINE",
"295 0 LINE SMOOTH",
"648 0 OFFCURVE",
"836 99 OFFCURVE",
"975 354 CURVE SMOOTH",
"1070 531 OFFCURVE",
"1130 777 OFFCURVE",
"1130 993 CURVE SMOOTH",
"1130 1329 OFFCURVE",
"950 1493 OFFCURVE",
"586 1493 CURVE SMOOTH",
"283 1493 LINE"
);
}
);
width = 1233;
}
);
note = D;
unicode = 0044;
},
{
glyphname = E;
lastChange = "2018-11-11 15:31:49 +0000";
layers = (
{
layerId = "0E6DE79C-D280-4215-AD87-69B89CD8F3FA";
paths = (
{
closed = 1;
nodes = (
"958 0 LINE",
"991 170 LINE",
"289 170 LINE",
"393 711 LINE",
"1047 711 LINE",
"1079 881 LINE",
"426 881 LINE",
"512 1323 LINE",
"1196 1323 LINE",
"1229 1493 LINE",
"344 1493 LINE",
"53 0 LINE"
);
}
);
width = 1233;
}
);
note = E;
unicode = 0045;
},
{
glyphname = F;
lastChange = "2018-11-11 15:31:49 +0000";
layers = (
{
layerId = "0E6DE79C-D280-4215-AD87-69B89CD8F3FA";
paths = (
{
closed = 1;
nodes = (
"295 0 LINE",
"434 713 LINE",
"1047 713 LINE",
"1079 883 LINE",
"467 883 LINE",
"553 1323 LINE",
"1229 1323 LINE",
"1262 1493 LINE",
"383 1493 LINE",
"92 0 LINE"
);
}
);
width = 1233;
}
);
note = F;
unicode = 0046;
},
{
glyphname = G;
lastChange = "2018-11-11 15:31:49 +0000";
layers = (
{
layerId = "0E6DE79C-D280-4215-AD87-69B89CD8F3FA";
paths = (
{
closed = 1;
nodes = (
"692 766 LINE",
"662 600 LINE",
"879 600 LINE",
"803 207 LINE",
"754 160 OFFCURVE",
"681 135 OFFCURVE",
"590 135 CURVE SMOOTH",
"397 135 OFFCURVE",
"287 264 OFFCURVE",
"287 492 CURVE SMOOTH",
"287 600 OFFCURVE",
"311 735 OFFCURVE",
"356 887 CURVE SMOOTH",
"396 1016 OFFCURVE",
"449 1123 OFFCURVE",
"508 1192 CURVE SMOOTH",
"599 1300 OFFCURVE",
"715 1356 OFFCURVE",
"846 1356 CURVE SMOOTH",
"954 1356 OFFCURVE",
"1048 1315 OFFCURVE",
"1135 1231 CURVE",
"1176 1438 LINE",
"1073 1491 OFFCURVE",
"967 1520 OFFCURVE",
"860 1520 CURVE SMOOTH",
"639 1520 OFFCURVE",
"471 1439 OFFCURVE",
"328 1266 CURVE SMOOTH",
"253 1177 OFFCURVE",
"190 1049 OFFCURVE",
"143 893 CURVE SMOOTH",
"100 745 OFFCURVE",
"78 609 OFFCURVE",
"78 489 CURVE SMOOTH",
"78 157 OFFCURVE",
"250 -29 OFFCURVE",
"559 -29 CURVE SMOOTH",
"715 -29 OFFCURVE",
"853 13 OFFCURVE",
"969 96 CURVE",
"1102 766 LINE"
);
}
);
width = 1233;
}
);
note = G;
unicode = 0047;
},
{
glyphname = H;
lastChange = "2018-11-11 15:31:49 +0000";
layers = (
{
layerId = "0E6DE79C-D280-4215-AD87-69B89CD8F3FA";
paths = (
{
closed = 1;
nodes = (
"195 0 LINE",
"332 711 LINE",
"887 711 LINE",
"748 0 LINE",
"950 0 LINE",
"1241 1493 LINE",
"1038 1493 LINE",
"920 881 LINE",
"367 881 LINE",
"485 1493 LINE",
"283 1493 LINE",
"-8 0 LINE"
);
}
);
width = 1233;
}
);
note = H;
unicode = 0048;
},
{
glyphname = I;
lastChange = "2018-11-11 15:31:49 +0000";
layers = (
{
layerId = "0E6DE79C-D280-4215-AD87-69B89CD8F3FA";
paths = (
{
closed = 1;
nodes = (
"627 1323 LINE",
"403 170 LINE",
"90 170 LINE",
"57 0 LINE",
"887 0 LINE",
"920 170 LINE",
"606 170 LINE",
"829 1323 LINE",
"1143 1323 LINE",
"1176 1493 LINE",
"346 1493 LINE",
"313 1323 LINE"
);
}
);
width = 1233;
}
);
note = I;
unicode = 0049;
},
{
glyphname = J;
lastChange = "2018-11-11 15:31:49 +0000";
layers = (
{
layerId = "0E6DE79C-D280-4215-AD87-69B89CD8F3FA";
paths = (
{
closed = 1;
nodes = (
"107 2 OFFCURVE",
"242 -29 OFFCURVE",
"371 -29 CURVE SMOOTH",
"688 -29 OFFCURVE",
"830 102 OFFCURVE",
"905 487 CURVE SMOOTH",
"1102 1493 LINE",
"518 1493 LINE",
"485 1323 LINE",
"866 1323 LINE",
"702 487 LINE SMOOTH",
"649 212 OFFCURVE",
"568 135 OFFCURVE",
"379 135 CURVE SMOOTH",
"242 135 OFFCURVE",
"116 192 OFFCURVE",
"20 297 CURVE",
"-25 61 LINE"
);
}
);
width = 1233;
}
);
note = J;
unicode = 004A;
},
{
glyphname = K;
lastChange = "2018-11-11 15:31:49 +0000";
layers = (
{
layerId = "0E6DE79C-D280-4215-AD87-69B89CD8F3FA";
paths = (
{
closed = 1;
nodes = (
"195 0 LINE",
"307 573 LINE",
"500 741 LINE",
"860 0 LINE",
"1079 0 LINE",
"651 874 LINE",
"1354 1493 LINE",
"1100 1493 LINE",
"358 846 LINE",
"485 1493 LINE",
"283 1493 LINE",
"-8 0 LINE"
);
}
);
width = 1233;
}
);
note = K;
unicode = 004B;
},
{
glyphname = L;
lastChange = "2018-11-11 15:31:49 +0000";
layers = (
{
layerId = "0E6DE79C-D280-4215-AD87-69B89CD8F3FA";
paths = (
{
closed = 1;
nodes = (
"1001 0 LINE",
"1034 170 LINE",
"313 170 LINE",
"571 1493 LINE",
"369 1493 LINE",
"78 0 LINE"
);
}
);
width = 1233;
}
);
note = L;
unicode = 004C;
},
{
glyphname = M;
lastChange = "2018-11-11 15:31:49 +0000";
layers = (
{
layerId = "0E6DE79C-D280-4215-AD87-69B89CD8F3FA";
paths = (
{
closed = 1;
nodes = (
"127 0 LINE",
"383 1327 LINE",
"498 532 LINE",
"639 532 LINE",
"1073 1327 LINE",
"815 0 LINE",
"1001 0 LINE",
"1292 1493 LINE",
"1022 1493 LINE",
"608 737 LINE",
"498 1493 LINE",
"229 1493 LINE",
"-59 0 LINE"
);
}
);
width = 1233;
}
);
note = M;
unicode = 004D;
},
{
glyphname = N;
lastChange = "2018-11-11 15:31:49 +0000";
layers = (
{
layerId = "0E6DE79C-D280-4215-AD87-69B89CD8F3FA";
paths = (
{
closed = 1;
nodes = (
"188 0 LINE",
"428 1229 LINE",
"692 0 LINE",
"948 0 LINE",
"1239 1493 LINE",
"1044 1493 LINE",
"805 264 LINE",
"541 1493 LINE",
"285 1493 LINE",
"-6 0 LINE"
);
}
);
width = 1233;
}
);
note = N;
unicode = 004E;
},
{
glyphname = O;
lastChange = "2018-11-11 15:31:49 +0000";
layers = (
{
layerId = "0E6DE79C-D280-4215-AD87-69B89CD8F3FA";
paths = (
{
closed = 1;
nodes = (
"355 135 OFFCURVE",
"287 223 OFFCURVE",
"287 414 CURVE SMOOTH",
"287 667 OFFCURVE",
"354 963 OFFCURVE",
"455 1159 CURVE SMOOTH",
"518 1286 OFFCURVE",
"616 1356 OFFCURVE",
"729 1356 CURVE SMOOTH",
"876 1356 OFFCURVE",
"944 1268 OFFCURVE",
"944 1079 CURVE SMOOTH",
"944 826 OFFCURVE",
"877 525 OFFCURVE",
"778 332 CURVE SMOOTH",
"715 205 OFFCURVE",
"615 135 OFFCURVE",
"502 135 CURVE SMOOTH"
);
},
{
closed = 1;
nodes = (
"1151 1360 OFFCURVE",
"1023 1520 OFFCURVE",
"754 1520 CURVE SMOOTH",
"561 1520 OFFCURVE",
"420 1441 OFFCURVE",
"303 1272 CURVE SMOOTH",
"251 1193 OFFCURVE",
"207 1098 OFFCURVE",
"168 975 CURVE SMOOTH",
"111 794 OFFCURVE",
"82 621 OFFCURVE",
"82 473 CURVE SMOOTH",
"82 132 OFFCURVE",
"209 -29 OFFCURVE",
"477 -29 CURVE SMOOTH",
"670 -29 OFFCURVE",
"811 50 OFFCURVE",
"928 219 CURVE SMOOTH",
"980 298 OFFCURVE",
"1024 393 OFFCURVE",
"1063 516 CURVE SMOOTH",
"1120 697 OFFCURVE",
"1151 873 OFFCURVE",
"1151 1020 CURVE SMOOTH"
);
}
);
width = 1233;
}
);
note = O;
unicode = 004F;
},
{
glyphname = P;
lastChange = "2018-11-11 15:31:49 +0000";
layers = (
{
layerId = "0E6DE79C-D280-4215-AD87-69B89CD8F3FA";
paths = (
{
closed = 1;
nodes = (
"918 1327 OFFCURVE",
"999 1260 OFFCURVE",
"999 1116 CURVE SMOOTH",
"999 904 OFFCURVE",
"857 766 OFFCURVE",
"637 766 CURVE SMOOTH",
"403 766 LINE",
"512 1327 LINE",
"745 1327 LINE SMOOTH"
);
},
{
closed = 1;
nodes = (
"254 0 LINE",
"371 600 LINE",
"604 600 LINE SMOOTH",
"977 600 OFFCURVE",
"1204 803 OFFCURVE",
"1204 1135 CURVE SMOOTH",
"1204 1367 OFFCURVE",
"1057 1493 OFFCURVE",
"782 1493 CURVE SMOOTH",
"342 1493 LINE",
"51 0 LINE"
);
}
);
width = 1233;
}
);
note = P;
unicode = 0050;
},
{
glyphname = Q;
lastChange = "2018-11-11 15:31:49 +0000";
layers = (
{
layerId = "0E6DE79C-D280-4215-AD87-69B89CD8F3FA";
paths = (
{
closed = 1;
nodes = (
"844 -178 LINE",
"690 10 LINE",
"795 54 OFFCURVE",
"891 147 OFFCURVE",
"963 274 CURVE SMOOTH",
"1012 363 OFFCURVE",
"1054 474 OFFCURVE",
"1094 629 CURVE SMOOTH",
"1131 777 OFFCURVE",
"1151 909 OFFCURVE",
"1151 1020 CURVE SMOOTH",
"1151 1360 OFFCURVE",
"1023 1520 OFFCURVE",
"754 1520 CURVE SMOOTH",
"561 1520 OFFCURVE",
"420 1441 OFFCURVE",
"303 1272 CURVE SMOOTH",
"251 1193 OFFCURVE",
"207 1098 OFFCURVE",
"168 975 CURVE SMOOTH",
"111 794 OFFCURVE",
"82 621 OFFCURVE",
"82 473 CURVE SMOOTH",
"82 124 OFFCURVE",
"207 -27 OFFCURVE",
"494 -27 CURVE SMOOTH",
"504 -27 LINE",
"690 -270 LINE"
);
},
{
closed = 1;
nodes = (
"355 135 OFFCURVE",
"287 223 OFFCURVE",
"287 414 CURVE SMOOTH",
"287 667 OFFCURVE",
"354 963 OFFCURVE",
"455 1159 CURVE SMOOTH",
"518 1286 OFFCURVE",
"616 1356 OFFCURVE",
"729 1356 CURVE SMOOTH",
"876 1356 OFFCURVE",
"944 1268 OFFCURVE",
"944 1079 CURVE SMOOTH",
"944 826 OFFCURVE",
"877 525 OFFCURVE",
"778 332 CURVE SMOOTH",
"715 205 OFFCURVE",
"615 135 OFFCURVE",
"502 135 CURVE SMOOTH"
);
}
);
width = 1233;
}
);
note = Q;
unicode = 0051;
},
{
glyphname = R;
lastChange = "2018-11-11 15:31:49 +0000";
layers = (
{
layerId = "0E6DE79C-D280-4215-AD87-69B89CD8F3FA";
paths = (
{
closed = 1;
nodes = (
"1003 736 OFFCURVE",
"1151 907 OFFCURVE",
"1151 1151 CURVE SMOOTH",
"1151 1368 OFFCURVE",
"993 1493 OFFCURVE",
"717 1493 CURVE SMOOTH",
"301 1493 LINE",
"12 0 LINE",
"215 0 LINE",
"338 631 LINE",
"530 631 LINE SMOOTH",
"677 631 OFFCURVE",
"734 585 OFFCURVE",
"793 377 CURVE SMOOTH",
"899 0 LINE",
"1100 0 LINE",
"979 408 LINE SMOOTH",
"943 526 OFFCURVE",
"911 603 OFFCURVE",
"882 638 CURVE SMOOTH",
"853 673 OFFCURVE",
"814 696 OFFCURVE",
"766 705 CURVE"
);
},
{
closed = 1;
nodes = (
"867 1327 OFFCURVE",
"948 1259 OFFCURVE",
"948 1110 CURVE SMOOTH",
"948 921 OFFCURVE",
"807 797 OFFCURVE",
"590 797 CURVE SMOOTH",
"371 797 LINE",
"473 1327 LINE",
"686 1327 LINE SMOOTH"
);
}
);
width = 1233;
}
);
note = R;
unicode = 0052;
},
{
glyphname = S;
lastChange = "2018-11-11 15:31:49 +0000";
layers = (
{
layerId = "0E6DE79C-D280-4215-AD87-69B89CD8F3FA";
paths = (
{
closed = 1;
nodes = (
"1020 1493 OFFCURVE",
"898 1520 OFFCURVE",
"791 1520 CURVE SMOOTH",
"436 1520 OFFCURVE",
"195 1313 OFFCURVE",
"195 1018 CURVE SMOOTH",
"195 857 OFFCURVE",
"281 769 OFFCURVE",
"526 692 CURVE SMOOTH",
"627 659 LINE SMOOTH",
"804 604 OFFCURVE",
"848 555 OFFCURVE",
"848 446 CURVE SMOOTH",
"848 266 OFFCURVE",
"697 135 OFFCURVE",
"477 135 CURVE SMOOTH",
"328 135 OFFCURVE",
"197 178 OFFCURVE",
"66 270 CURVE",
"25 61 LINE",
"158 1 OFFCURVE",
"291 -29 OFFCURVE",
"430 -29 CURVE SMOOTH",
"813 -29 OFFCURVE",
"1049 168 OFFCURVE",
"1049 481 CURVE SMOOTH",
"1049 653 OFFCURVE",
"952 760 OFFCURVE",
"735 827 CURVE SMOOTH",
"614 866 LINE SMOOTH",
"442 919 OFFCURVE",
"387 970 OFFCURVE",
"387 1065 CURVE SMOOTH",
"387 1234 OFFCURVE",
"540 1356 OFFCURVE",
"760 1356 CURVE SMOOTH",
"884 1356 OFFCURVE",
"1000 1316 OFFCURVE",
"1108 1237 CURVE",
"1147 1442 LINE"
);
}
);
width = 1233;
}
);
note = S;
unicode = 0053;
},
{
glyphname = T;
lastChange = "2018-11-11 15:31:49 +0000";
layers = (
{
layerId = "0E6DE79C-D280-4215-AD87-69B89CD8F3FA";
paths = (
{
closed = 1;
nodes = (
"629 1323 LINE",
"371 0 LINE",
"575 0 LINE",
"831 1323 LINE",
"1300 1323 LINE",
"1333 1493 LINE",
"193 1493 LINE",
"160 1323 LINE"
);
}
);
width = 1233;
}
);
note = T;
unicode = 0054;
},
{
glyphname = U;
lastChange = "2018-11-11 15:31:49 +0000";
layers = (
{
layerId = "0E6DE79C-D280-4215-AD87-69B89CD8F3FA";
paths = (
{
closed = 1;
nodes = (
"91 449 OFFCURVE",
"80 366 OFFCURVE",
"80 317 CURVE SMOOTH",
"80 96 OFFCURVE",
"223 -29 OFFCURVE",
"479 -29 CURVE SMOOTH",
"620 -29 OFFCURVE",
"743 11 OFFCURVE",
"838 86 CURVE SMOOTH",
"942 170 OFFCURVE",
"997 281 OFFCURVE",
"1053 573 CURVE SMOOTH",
"1231 1493 LINE",
"1028 1493 LINE",
"850 573 LINE SMOOTH",
"832 482 OFFCURVE",
"816 411 OFFCURVE",
"801 361 CURVE SMOOTH",
"786 310 OFFCURVE",
"771 275 OFFCURVE",
"756 254 CURVE SMOOTH",
"696 171 OFFCURVE",
"617 135 OFFCURVE",
"498 135 CURVE SMOOTH",
"351 135 OFFCURVE",
"279 196 OFFCURVE",
"279 319 CURVE SMOOTH",
"279 358 OFFCURVE",
"289 429 OFFCURVE",
"309 532 CURVE SMOOTH",
"313 551 OFFCURVE",
"316 564 OFFCURVE",
"317 573 CURVE",
"496 1493 LINE",
"293 1493 LINE",
"115 573 LINE SMOOTH"
);
}
);
width = 1233;
}
);
note = U;
unicode = 0055;
},
{
glyphname = V;
lastChange = "2018-11-11 15:31:49 +0000";
layers = (
{
layerId = "0E6DE79C-D280-4215-AD87-69B89CD8F3FA";
paths = (
{
closed = 1;
nodes = (
"199 1493 LINE",
"346 0 LINE",
"604 0 LINE",
"1323 1493 LINE",
"1108 1493 LINE",
"510 190 LINE",
"397 1493 LINE"
);
}
);
width = 1233;
}
);
note = V;
unicode = 0056;
},
{
glyphname = W;
lastChange = "2018-11-11 15:31:49 +0000";
layers = (
{
layerId = "0E6DE79C-D280-4215-AD87-69B89CD8F3FA";
paths = (
{
closed = 1;
nodes = (
"270 0 LINE",
"641 870 LINE",
"672 0 LINE",
"866 0 LINE",
"1376 1493 LINE",
"1178 1493 LINE",
"801 281 LINE",
"786 1083 LINE",
"575 1083 LINE",
"246 283 LINE",
"336 1493 LINE",
"145 1493 LINE",
"82 0 LINE"
);
}
);
width = 1233;
}
);
note = W;
unicode = 0057;
},
{
glyphname = X;
lastChange = "2018-11-11 15:31:49 +0000";
layers = (
{
layerId = "0E6DE79C-D280-4215-AD87-69B89CD8F3FA";
paths = (
{
closed = 1;
nodes = (
"-127 0 LINE",
"104 0 LINE",
"610 612 LINE",
"864 0 LINE",
"1065 0 LINE",
"741 774 LINE",
"1337 1493 LINE",
"1106 1493 LINE",
"666 961 LINE",
"442 1493 LINE",
"242 1493 LINE",
"530 797 LINE"
);
}
);
width = 1233;
}
);
note = X;
unicode = 0058;
},
{
glyphname = Y;
lastChange = "2018-11-11 15:31:49 +0000";
layers = (
{
layerId = "0E6DE79C-D280-4215-AD87-69B89CD8F3FA";
paths = (
{
closed = 1;
nodes = (
"377 0 LINE",
"584 0 LINE",
"713 670 LINE",
"1348 1493 LINE",
"1130 1493 LINE",
"633 842 LINE",
"397 1493 LINE",
"195 1493 LINE",
"508 670 LINE"
);
}
);
width = 1233;
}
);
note = Y;
unicode = 0059;
},
{
glyphname = Z;
lastChange = "2018-11-11 15:31:49 +0000";
layers = (
{
layerId = "0E6DE79C-D280-4215-AD87-69B89CD8F3FA";
paths = (
{
closed = 1;
nodes = (
"999 1323 LINE",
"23 154 LINE",
"-6 0 LINE",
"1006 0 LINE",
"1040 170 LINE",
"266 170 LINE",
"1245 1339 LINE",
"1274 1493 LINE",
"305 1493 LINE",
"272 1323 LINE"
);
}
);
width = 1233;
}
);
note = Z;
unicode = 005A;
},
{
glyphname = bracketleft;
lastChange = "2018-11-11 15:31:49 +0000";
layers = (
{
layerId = "0E6DE79C-D280-4215-AD87-69B89CD8F3FA";
paths = (
{
closed = 1;
nodes = (
"750 -370 LINE",
"777 -227 LINE",
"537 -227 LINE",
"836 1313 LINE",
"1076 1313 LINE",
"1104 1456 LINE",
"681 1456 LINE",
"324 -370 LINE"
);
}
);
width = 1233;
}
);
note = bracketleft;
unicode = 005B;
},
{
glyphname = backslash;
lastChange = "2018-11-11 15:31:49 +0000";
layers = (
{
layerId = "0E6DE79C-D280-4215-AD87-69B89CD8F3FA";
paths = (
{
closed = 1;
nodes = (
"356 1493 LINE",
"555 -190 LINE",
"725 -190 LINE",
"526 1493 LINE"
);
}
);
width = 1233;
}
);
note = backslash;
unicode = 005C;
},
{
glyphname = bracketright;
lastChange = "2018-11-11 15:31:49 +0000";
layers = (
{
layerId = "0E6DE79C-D280-4215-AD87-69B89CD8F3FA";
paths = (
{
closed = 1;
nodes = (
"525 1313 LINE",
"765 1313 LINE",
"466 -227 LINE",
"226 -227 LINE",
"197 -370 LINE",
"621 -370 LINE",
"978 1456 LINE",
"554 1456 LINE"
);
}
);
width = 1233;
}
);
note = bracketright;
unicode = 005D;
},
{
glyphname = asciicircum;
lastChange = "2018-11-11 15:31:49 +0000";
layers = (
{
layerId = "0E6DE79C-D280-4215-AD87-69B89CD8F3FA";
paths = (
{
closed = 1;
nodes = (
"72 936 LINE",
"250 936 LINE",
"616 1331 LINE",
"983 936 LINE",
"1161 936 LINE",
"705 1493 LINE",
"528 1493 LINE"
);
}
);
width = 1233;
}
);
note = asciicircum;
unicode = 005E;
},
{
glyphname = underscore;
lastChange = "2018-11-11 15:31:49 +0000";
layers = (
{
layerId = "0E6DE79C-D280-4215-AD87-69B89CD8F3FA";
paths = (
{
closed = 1;
nodes = (
"0 -360 LINE",
"1224 -360 LINE",
"1224 -190 LINE",
"0 -190 LINE"
);
}
);
width = 1233;
}
);
note = underscore;
unicode = 005F;
},
{
glyphname = grave;
lastChange = "2018-11-11 15:31:49 +0000";
layers = (
{
layerId = "0E6DE79C-D280-4215-AD87-69B89CD8F3FA";
paths = (
{
closed = 1;
nodes = (
"705 1262 LINE",
"848 1262 LINE",
"651 1638 LINE",
"453 1638 LINE"
);
}
);
width = 1233;
}
);
note = grave;
unicode = 0060;
},
{
glyphname = a;
lastChange = "2018-11-11 15:31:49 +0000";
layers = (
{
layerId = "0E6DE79C-D280-4215-AD87-69B89CD8F3FA";
paths = (
{
closed = 1;
nodes = (
"856 522 LINE SMOOTH",
"805 275 OFFCURVE",
"652 125 OFFCURVE",
"455 125 CURVE SMOOTH",
"338 125 OFFCURVE",
"264 196 OFFCURVE",
"264 307 CURVE SMOOTH",
"264 404 OFFCURVE",
"323 494 OFFCURVE",
"414 530 CURVE SMOOTH",
"471 554 OFFCURVE",
"533 563 OFFCURVE",
"692 563 CURVE SMOOTH",
"864 563 LINE"
);
},
{
closed = 1;
nodes = (
"1079 723 OFFCURVE",
"1087 795 OFFCURVE",
"1087 838 CURVE SMOOTH",
"1087 1031 OFFCURVE",
"942 1147 OFFCURVE",
"694 1147 CURVE SMOOTH",
"575 1147 OFFCURVE",
"447 1121 OFFCURVE",
"303 1069 CURVE",
"268 889 LINE",
"416 957 OFFCURVE",
"549 991 OFFCURVE",
"664 991 CURVE SMOOTH",
"820 991 OFFCURVE",
"907 928 OFFCURVE",
"907 815 CURVE SMOOTH",
"907 791 OFFCURVE",
"906 780 OFFCURVE",
"903 768 CURVE",
"891 707 LINE",
"645 707 LINE SMOOTH",
"293 707 OFFCURVE",
"72 537 OFFCURVE",
"72 276 CURVE SMOOTH",
"72 92 OFFCURVE",
"204 -29 OFFCURVE",
"408 -29 CURVE SMOOTH",
"555 -29 OFFCURVE",
"690 41 OFFCURVE",
"786 166 CURVE",
"754 0 LINE",
"938 0 LINE",
"1063 639 LINE SMOOTH"
);
}
);
width = 1233;
}
);
note = a;
unicode = 0061;
},
{
glyphname = b;
lastChange = "2018-11-11 15:31:49 +0000";
layers = (
{
layerId = "0E6DE79C-D280-4215-AD87-69B89CD8F3FA";
paths = (
{
closed = 1;
nodes = (
"406 127 OFFCURVE",
"332 219 OFFCURVE",
"332 383 CURVE SMOOTH",
"332 531 OFFCURVE",
"374 698 OFFCURVE",
"438 813 CURVE SMOOTH",
"506 930 OFFCURVE",
"598 993 OFFCURVE",
"709 993 CURVE SMOOTH",
"844 993 OFFCURVE",
"911 908 OFFCURVE",
"911 737 CURVE SMOOTH",
"911 593 OFFCURVE",
"870 428 OFFCURVE",
"805 303 CURVE SMOOTH",
"744 188 OFFCURVE",
"651 127 OFFCURVE",
"539 127 CURVE SMOOTH"
);
},
{
closed = 1;
nodes = (
"362 1556 LINE",
"59 0 LINE",
"244 0 LINE",
"270 141 LINE",
"315 29 OFFCURVE",
"404 -29 OFFCURVE",
"535 -29 CURVE SMOOTH",
"700 -29 OFFCURVE",
"853 60 OFFCURVE",
"954 213 CURVE SMOOTH",
"1050 357 OFFCURVE",
"1108 561 OFFCURVE",
"1108 754 CURVE SMOOTH",
"1108 1002 OFFCURVE",
"981 1147 OFFCURVE",
"762 1147 CURVE SMOOTH",
"626 1147 OFFCURVE",
"517 1089 OFFCURVE",
"434 977 CURVE",
"547 1556 LINE"
);
}
);
width = 1233;
}
);
note = b;
unicode = 0062;
},
{
glyphname = c;
lastChange = "2018-11-11 15:31:49 +0000";
layers = (
{
layerId = "0E6DE79C-D280-4215-AD87-69B89CD8F3FA";
paths = (
{
closed = 1;
nodes = (
"868 168 OFFCURVE",
"751 127 OFFCURVE",
"623 127 CURVE SMOOTH",
"442 127 OFFCURVE",
"350 224 OFFCURVE",
"350 416 CURVE SMOOTH",
"350 555 OFFCURVE",
"394 704 OFFCURVE",
"469 813 CURVE SMOOTH",
"549 932 OFFCURVE",
"662 991 OFFCURVE",
"809 991 CURVE SMOOTH",
"922 991 OFFCURVE",
"1012 956 OFFCURVE",
"1100 879 CURVE",
"1137 1061 LINE",
"1032 1118 OFFCURVE",
"922 1147 OFFCURVE",
"803 1147 CURVE SMOOTH",
"626 1147 OFFCURVE",
"478 1082 OFFCURVE",
"354 950 CURVE SMOOTH",
"233 819 OFFCURVE",
"156 615 OFFCURVE",
"156 416 CURVE SMOOTH",
"156 123 OFFCURVE",
"311 -29 OFFCURVE",
"610 -29 CURVE SMOOTH",
"730 -29 OFFCURVE",
"843 -1 OFFCURVE",
"940 51 CURVE",
"979 252 LINE"
);
}
);
width = 1233;
}
);
note = c;
unicode = 0063;
},
{
glyphname = d;
lastChange = "2018-11-11 15:31:49 +0000";
layers = (
{
layerId = "0E6DE79C-D280-4215-AD87-69B89CD8F3FA";
paths = (
{
closed = 1;
nodes = (
"817 991 OFFCURVE",
"893 897 OFFCURVE",
"893 737 CURVE SMOOTH",
"893 585 OFFCURVE",
"853 421 OFFCURVE",
"788 305 CURVE SMOOTH",
"724 188 OFFCURVE",
"631 127 OFFCURVE",
"518 127 CURVE SMOOTH",
"383 127 OFFCURVE",
"315 212 OFFCURVE",
"315 383 CURVE SMOOTH",
"315 536 OFFCURVE",
"353 697 OFFCURVE",
"418 817 CURVE SMOOTH",
"479 933 OFFCURVE",
"569 991 OFFCURVE",
"686 991 CURVE SMOOTH"
);
},
{
closed = 1;
nodes = (
"899 1088 OFFCURVE",
"799 1147 OFFCURVE",
"670 1147 CURVE SMOOTH",
"505 1147 OFFCURVE",
"368 1066 OFFCURVE",
"268 909 CURVE SMOOTH",
"176 765 OFFCURVE",
"119 560 OFFCURVE",
"119 369 CURVE SMOOTH",
"119 118 OFFCURVE",
"246 -29 OFFCURVE",
"463 -29 CURVE SMOOTH",
"596 -29 OFFCURVE",
"706 29 OFFCURVE",
"793 141 CURVE",
"766 0 LINE",
"950 0 LINE",
"1253 1556 LINE",
"1069 1556 LINE",
"954 977 LINE"
);
}
);
width = 1233;
}
);
note = d;
unicode = 0064;
},
{
glyphname = e;
lastChange = "2018-11-11 15:31:49 +0000";
layers = (
{
layerId = "0E6DE79C-D280-4215-AD87-69B89CD8F3FA";
paths = (
{
closed = 1;
nodes = (
"391 862 OFFCURVE",
"538 991 OFFCURVE",
"702 991 CURVE SMOOTH",
"857 991 OFFCURVE",
"948 897 OFFCURVE",
"948 737 CURVE SMOOTH",
"948 716 OFFCURVE",
"946 695 OFFCURVE",
"938 659 CURVE",
"332 659 LINE"
);
},
{
closed = 1;
nodes = (
"845 165 OFFCURVE",
"703 127 OFFCURVE",
"586 127 CURVE SMOOTH",
"390 127 OFFCURVE",
"285 227 OFFCURVE",
"285 412 CURVE SMOOTH",
"285 439 OFFCURVE",
"289 473 OFFCURVE",
"297 516 CURVE",
"1104 516 LINE",
"1120 620 OFFCURVE",
"1126 684 OFFCURVE",
"1126 729 CURVE SMOOTH",
"1126 984 OFFCURVE",
"965 1149 OFFCURVE",
"717 1149 CURVE SMOOTH",
"572 1149 OFFCURVE",
"435 1088 OFFCURVE",
"324 973 CURVE SMOOTH",
"183 828 OFFCURVE",
"98 616 OFFCURVE",
"98 408 CURVE SMOOTH",
"98 123 OFFCURVE",
"256 -29 OFFCURVE",
"553 -29 CURVE SMOOTH",
"690 -29 OFFCURVE",
"821 0 OFFCURVE",
"961 57 CURVE",
"997 240 LINE"
);
}
);
width = 1233;
}
);
note = e;
unicode = 0065;
},
{
glyphname = f;
lastChange = "2018-11-11 15:31:49 +0000";
layers = (
{
layerId = "0E6DE79C-D280-4215-AD87-69B89CD8F3FA";
paths = (
{
closed = 1;
nodes = (
"775 1556 OFFCURVE",
"657 1455 OFFCURVE",
"606 1198 CURVE SMOOTH",
"590 1120 LINE",
"293 1120 LINE",
"264 977 LINE",
"563 977 LINE",
"373 0 LINE",
"557 0 LINE",
"748 977 LINE",
"1133 977 LINE",
"1159 1120 LINE",
"774 1120 LINE",
"795 1219 LINE SMOOTH",
"822 1354 OFFCURVE",
"879 1403 OFFCURVE",
"1006 1403 CURVE SMOOTH",
"1214 1403 LINE",
"1245 1556 LINE",
"1024 1556 LINE SMOOTH"
);
}
);
width = 1233;
}
);
note = f;
unicode = 0066;
},
{
glyphname = g;
lastChange = "2018-11-11 15:31:49 +0000";
layers = (
{
layerId = "0E6DE79C-D280-4215-AD87-69B89CD8F3FA";
paths = (
{
closed = 1;
nodes = (
"377 145 OFFCURVE",
"297 240 OFFCURVE",
"297 399 CURVE SMOOTH",
"297 739 OFFCURVE",
"457 991 OFFCURVE",
"662 991 CURVE SMOOTH",
"795 991 OFFCURVE",
"874 898 OFFCURVE",
"874 739 CURVE SMOOTH",
"874 598 OFFCURVE",
"835 439 OFFCURVE",
"770 319 CURVE SMOOTH",
"709 207 OFFCURVE",
"617 145 OFFCURVE",
"512 145 CURVE SMOOTH"
);
},
{
closed = 1;
nodes = (
"961 1116 LINE",
"934 965 LINE",
"889 1078 OFFCURVE",
"782 1147 OFFCURVE",
"647 1147 CURVE SMOOTH",
"499 1147 OFFCURVE",
"353 1060 OFFCURVE",
"254 911 CURVE SMOOTH",
"158 770 OFFCURVE",
"102 576 OFFCURVE",
"102 391 CURVE SMOOTH",
"102 146 OFFCURVE",
"233 -8 OFFCURVE",
"438 -8 CURVE SMOOTH",
"585 -8 OFFCURVE",
"703 54 OFFCURVE",
"780 170 CURVE",
"756 53 LINE SMOOTH",
"707 -195 OFFCURVE",
"605 -293 OFFCURVE",
"406 -293 CURVE SMOOTH",
"299 -293 OFFCURVE",
"193 -262 OFFCURVE",
"96 -203 CURVE",
"59 -385 LINE",
"159 -421 OFFCURVE",
"266 -440 OFFCURVE",
"375 -440 CURVE SMOOTH",
"704 -440 OFFCURVE",
"871 -289 OFFCURVE",
"942 72 CURVE SMOOTH",
"1145 1116 LINE"
);
}
);
width = 1233;
}
);
note = g;
unicode = 0067;
},
{
glyphname = h;
lastChange = "2018-11-11 15:31:49 +0000";
layers = (
{
layerId = "0E6DE79C-D280-4215-AD87-69B89CD8F3FA";
paths = (
{
closed = 1;
nodes = (
"1088 763 OFFCURVE",
"1096 829 OFFCURVE",
"1096 872 CURVE SMOOTH",
"1096 1045 OFFCURVE",
"988 1147 OFFCURVE",
"803 1147 CURVE SMOOTH",
"672 1147 OFFCURVE",
"555 1081 OFFCURVE",
"455 952 CURVE",
"571 1556 LINE",
"387 1556 LINE",
"84 0 LINE",
"268 0 LINE",
"391 633 LINE SMOOTH",
"435 857 OFFCURVE",
"560 987 OFFCURVE",
"729 987 CURVE SMOOTH",
"845 987 OFFCURVE",
"909 927 OFFCURVE",
"909 819 CURVE SMOOTH",
"909 793 OFFCURVE",
"904 756 OFFCURVE",
"894 709 CURVE",
"893 702 OFFCURVE",
"892 698 OFFCURVE",
"891 695 CURVE",
"756 0 LINE",
"940 0 LINE",
"1075 694 LINE SMOOTH"
);
}
);
width = 1233;
}
);
note = h;
unicode = 0068;
},
{
glyphname = i;
lastChange = "2018-11-11 15:31:49 +0000";
layers = (
{
layerId = "0E6DE79C-D280-4215-AD87-69B89CD8F3FA";
paths = (
{
closed = 1;
nodes = (
"616 977 LINE",
"455 143 LINE",
"90 143 LINE",
"61 0 LINE",
"975 0 LINE",
"1004 143 LINE",
"639 143 LINE",
"829 1120 LINE",
"358 1120 LINE",
"330 977 LINE"
);
},
{
closed = 1;
nodes = (
"868 1323 LINE",
"913 1556 LINE",
"729 1556 LINE",
"684 1323 LINE"
);
}
);
width = 1233;
}
);
note = i;
unicode = 0069;
},
{
glyphname = j;
lastChange = "2018-11-11 15:31:49 +0000";
layers = (
{
layerId = "0E6DE79C-D280-4215-AD87-69B89CD8F3FA";
paths = (
{
closed = 1;
nodes = (
"465 -195 OFFCURVE",
"395 -270 OFFCURVE",
"268 -270 CURVE SMOOTH",
"35 -270 LINE",
"4 -426 LINE",
"258 -426 LINE SMOOTH",
"499 -426 OFFCURVE",
"627 -304 OFFCURVE",
"682 -20 CURVE SMOOTH",
"903 1120 LINE",
"401 1120 LINE",
"373 977 LINE",
"690 977 LINE",
"498 -20 LINE SMOOTH"
);
},
{
closed = 1;
nodes = (
"942 1323 LINE",
"987 1556 LINE",
"803 1556 LINE",
"758 1323 LINE"
);
}
);
width = 1233;
}
);
note = j;
unicode = 006A;
},
{
glyphname = k;
lastChange = "2018-11-11 15:31:49 +0000";
layers = (
{
layerId = "0E6DE79C-D280-4215-AD87-69B89CD8F3FA";
paths = (
{
closed = 1;
nodes = (
"281 0 LINE",
"369 449 LINE",
"537 582 LINE",
"844 0 LINE",
"1057 0 LINE",
"684 698 LINE",
"1204 1120 LINE",
"963 1120 LINE",
"414 682 LINE",
"584 1556 LINE",
"393 1556 LINE",
"90 0 LINE"
);
}
);
width = 1233;
}
);
note = k;
unicode = 006B;
},
{
glyphname = l;
lastChange = "2018-11-11 15:31:49 +0000";
layers = (
{
layerId = "0E6DE79C-D280-4215-AD87-69B89CD8F3FA";
paths = (
{
closed = 1;
nodes = (
"340 1567 LINE",
"311 1423 LINE",
"627 1423 LINE",
"416 412 LINE SMOOTH",
"404 351 OFFCURVE",
"397 295 OFFCURVE",
"397 258 CURVE SMOOTH",
"397 83 OFFCURVE",
"508 0 OFFCURVE",
"739 0 CURVE SMOOTH",
"946 0 LINE",
"977 156 LINE",
"766 156 LINE SMOOTH",
"645 156 OFFCURVE",
"586 204 OFFCURVE",
"586 301 CURVE SMOOTH",
"586 325 OFFCURVE",
"591 361 OFFCURVE",
"600 408 CURVE SMOOTH",
"840 1567 LINE"
);
}
);
width = 1233;
}
);
note = l;
unicode = 006C;
},
{
glyphname = m;
lastChange = "2018-11-11 15:31:49 +0000";
layers = (
{
layerId = "0E6DE79C-D280-4215-AD87-69B89CD8F3FA";
paths = (
{
closed = 1;
nodes = (
"735 1094 OFFCURVE",
"671 1147 OFFCURVE",
"571 1147 CURVE SMOOTH",
"486 1147 OFFCURVE",
"411 1104 OFFCURVE",
"352 1024 CURVE",
"371 1120 LINE",
"203 1120 LINE",
"-14 0 LINE",
"154 0 LINE",
"279 641 LINE SMOOTH",
"309 796 OFFCURVE",
"338 894 OFFCURVE",
"365 934 CURVE SMOOTH",
"392 973 OFFCURVE",
"430 993 OFFCURVE",
"479 993 CURVE SMOOTH",
"544 993 OFFCURVE",
"575 955 OFFCURVE",
"575 874 CURVE SMOOTH",
"575 859 OFFCURVE",
"572 832 OFFCURVE",
"567 795 CURVE SMOOTH",
"561 757 OFFCURVE",
"552 706 OFFCURVE",
"539 641 CURVE SMOOTH",
"414 0 LINE",
"582 0 LINE",
"707 641 LINE SMOOTH",
"736 790 OFFCURVE",
"764 886 OFFCURVE",
"792 929 CURVE SMOOTH",
"820 972 OFFCURVE",
"859 993 OFFCURVE",
"909 993 CURVE SMOOTH",
"977 993 OFFCURVE",
"1006 958 OFFCURVE",
"1006 874 CURVE SMOOTH",
"1006 858 OFFCURVE",
"1003 831 OFFCURVE",
"997 792 CURVE SMOOTH",
"990 753 OFFCURVE",
"981 702 OFFCURVE",
"969 641 CURVE SMOOTH",
"844 0 LINE",
"1012 0 LINE",
"1139 649 LINE SMOOTH",
"1167 792 OFFCURVE",
"1178 874 OFFCURVE",
"1178 946 CURVE SMOOTH",
"1178 1069 OFFCURVE",
"1104 1147 OFFCURVE",
"989 1147 CURVE SMOOTH",
"886 1147 OFFCURVE",
"800 1097 OFFCURVE",
"748 1006 CURVE"
);
}
);
width = 1233;
}
);
note = m;
unicode = 006D;
},
{
glyphname = n;
lastChange = "2018-11-11 15:31:49 +0000";
layers = (
{
layerId = "0E6DE79C-D280-4215-AD87-69B89CD8F3FA";
paths = (
{
closed = 1;
nodes = (
"1088 763 OFFCURVE",
"1096 829 OFFCURVE",
"1096 872 CURVE SMOOTH",
"1096 1045 OFFCURVE",
"988 1147 OFFCURVE",
"803 1147 CURVE SMOOTH",
"672 1147 OFFCURVE",
"555 1081 OFFCURVE",
"455 952 CURVE",
"487 1120 LINE",
"303 1120 LINE",
"84 0 LINE",
"268 0 LINE",
"391 633 LINE SMOOTH",
"435 857 OFFCURVE",
"560 987 OFFCURVE",
"729 987 CURVE SMOOTH",
"845 987 OFFCURVE",
"909 927 OFFCURVE",
"909 819 CURVE SMOOTH",
"909 793 OFFCURVE",
"904 756 OFFCURVE",
"894 709 CURVE",
"893 702 OFFCURVE",
"892 698 OFFCURVE",
"891 695 CURVE",
"756 0 LINE",
"940 0 LINE",
"1075 694 LINE SMOOTH"
);
}
);
width = 1233;
}
);
note = n;
unicode = 006E;
},
{
glyphname = o;
lastChange = "2018-11-11 15:31:49 +0000";
layers = (
{
layerId = "0E6DE79C-D280-4215-AD87-69B89CD8F3FA";
paths = (
{
closed = 1;
nodes = (
"845 991 OFFCURVE",
"920 905 OFFCURVE",
"920 733 CURVE SMOOTH",
"920 381 OFFCURVE",
"756 127 OFFCURVE",
"537 127 CURVE SMOOTH",
"388 127 OFFCURVE",
"313 213 OFFCURVE",
"313 385 CURVE SMOOTH",
"313 737 OFFCURVE",
"477 991 OFFCURVE",
"696 991 CURVE SMOOTH"
);
},
{
closed = 1;
nodes = (
"530 1147 OFFCURVE",
"379 1066 OFFCURVE",
"274 911 CURVE SMOOTH",
"174 760 OFFCURVE",
"117 573 OFFCURVE",
"117 393 CURVE SMOOTH",
"117 122 OFFCURVE",
"257 -29 OFFCURVE",
"506 -29 CURVE SMOOTH",
"702 -29 OFFCURVE",
"853 50 OFFCURVE",
"958 207 CURVE SMOOTH",
"1057 352 OFFCURVE",
"1114 543 OFFCURVE",
"1114 727 CURVE SMOOTH",
"1114 1002 OFFCURVE",
"974 1147 OFFCURVE",
"713 1147 CURVE SMOOTH"
);
}
);
width = 1233;
}
);
note = o;
unicode = 006F;
},
{
glyphname = p;
lastChange = "2018-11-11 15:31:49 +0000";
layers = (
{
layerId = "0E6DE79C-D280-4215-AD87-69B89CD8F3FA";
paths = (
{
closed = 1;
nodes = (
"352 26 OFFCURVE",
"445 -29 OFFCURVE",
"578 -29 CURVE SMOOTH",
"741 -29 OFFCURVE",
"879 54 OFFCURVE",
"979 211 CURVE SMOOTH",
"1072 358 OFFCURVE",
"1128 561 OFFCURVE",
"1128 752 CURVE SMOOTH",
"1128 1001 OFFCURVE",
"1004 1147 OFFCURVE",
"788 1147 CURVE SMOOTH",
"655 1147 OFFCURVE",
"536 1086 OFFCURVE",
"455 977 CURVE",
"483 1120 LINE",
"299 1120 LINE",
"-2 -426 LINE",
"182 -426 LINE",
"293 141 LINE"
);
},
{
closed = 1;
nodes = (
"432 127 OFFCURVE",
"354 219 OFFCURVE",
"354 383 CURVE SMOOTH",
"354 535 OFFCURVE",
"394 696 OFFCURVE",
"459 813 CURVE SMOOTH",
"523 930 OFFCURVE",
"616 991 OFFCURVE",
"729 991 CURVE SMOOTH",
"865 991 OFFCURVE",
"934 906 OFFCURVE",
"934 737 CURVE SMOOTH",
"934 586 OFFCURVE",
"894 424 OFFCURVE",
"829 301 CURVE SMOOTH",
"769 188 OFFCURVE",
"677 127 OFFCURVE",
"569 127 CURVE SMOOTH"
);
}
);
width = 1233;
}
);
note = p;
unicode = 0070;
},
{
glyphname = q;
lastChange = "2018-11-11 15:31:49 +0000";
layers = (
{
layerId = "0E6DE79C-D280-4215-AD87-69B89CD8F3FA";
paths = (
{
closed = 1;
nodes = (
"848 -426 LINE",
"1147 1120 LINE",
"963 1120 LINE",
"936 977 LINE",
"889 1090 OFFCURVE",
"799 1147 OFFCURVE",
"666 1147 CURVE SMOOTH",
"493 1147 OFFCURVE",
"352 1066 OFFCURVE",
"252 909 CURVE SMOOTH",
"156 760 OFFCURVE",
"98 554 OFFCURVE",
"98 365 CURVE SMOOTH",
"98 116 OFFCURVE",
"227 -29 OFFCURVE",
"446 -29 CURVE SMOOTH",
"582 -29 OFFCURVE",
"693 29 OFFCURVE",
"774 141 CURVE",
"664 -426 LINE"
);
},
{
closed = 1;
nodes = (
"800 991 OFFCURVE",
"874 901 OFFCURVE",
"874 737 CURVE SMOOTH",
"874 588 OFFCURVE",
"832 418 OFFCURVE",
"768 305 CURVE SMOOTH",
"701 189 OFFCURVE",
"607 127 OFFCURVE",
"498 127 CURVE SMOOTH",
"362 127 OFFCURVE",
"295 212 OFFCURVE",
"295 383 CURVE SMOOTH",
"295 527 OFFCURVE",
"336 692 OFFCURVE",
"401 817 CURVE SMOOTH",
"462 932 OFFCURVE",
"555 991 OFFCURVE",
"668 991 CURVE SMOOTH"
);
}
);
width = 1233;
}
);
note = q;
unicode = 0071;
},
{
glyphname = r;
lastChange = "2018-11-11 15:31:49 +0000";
layers = (
{
layerId = "0E6DE79C-D280-4215-AD87-69B89CD8F3FA";
paths = (
{
closed = 1;
nodes = (
"1166 1122 OFFCURVE",
"1088 1147 OFFCURVE",
"993 1147 CURVE SMOOTH",
"813 1147 OFFCURVE",
"667 1061 OFFCURVE",
"578 901 CURVE",
"618 1120 LINE",
"434 1120 LINE",
"217 0 LINE",
"401 0 LINE",
"508 549 LINE SMOOTH",
"559 814 OFFCURVE",
"725 977 OFFCURVE",
"944 977 CURVE SMOOTH",
"1045 977 OFFCURVE",
"1124 948 OFFCURVE",
"1184 889 CURVE",
"1219 1075 LINE"
);
}
);
width = 1233;
}
);
note = r;
unicode = 0072;
},
{
glyphname = s;
lastChange = "2018-11-11 15:31:49 +0000";
layers = (
{
layerId = "0E6DE79C-D280-4215-AD87-69B89CD8F3FA";
paths = (
{
closed = 1;
nodes = (
"980 1125 OFFCURVE",
"871 1147 OFFCURVE",
"754 1147 CURVE SMOOTH",
"455 1147 OFFCURVE",
"266 1003 OFFCURVE",
"266 776 CURVE SMOOTH",
"266 639 OFFCURVE",
"344 556 OFFCURVE",
"516 512 CURVE SMOOTH",
"583 494 LINE SMOOTH",
"590 492 OFFCURVE",
"599 490 OFFCURVE",
"611 487 CURVE SMOOTH",
"742 452 OFFCURVE",
"807 402 OFFCURVE",
"807 336 CURVE SMOOTH",
"807 213 OFFCURVE",
"683 125 OFFCURVE",
"506 125 CURVE SMOOTH",
"395 125 OFFCURVE",
"277 160 OFFCURVE",
"152 231 CURVE",
"115 41 LINE",
"247 -6 OFFCURVE",
"363 -29 OFFCURVE",
"471 -29 CURVE SMOOTH",
"788 -29 OFFCURVE",
"997 134 OFFCURVE",
"997 375 CURVE SMOOTH",
"997 498 OFFCURVE",
"920 580 OFFCURVE",
"764 621 CURVE SMOOTH",
"692 639 LINE",
"687 640 OFFCURVE",
"680 642 OFFCURVE",
"670 645 CURVE",
"523 682 OFFCURVE",
"449 734 OFFCURVE",
"449 799 CURVE SMOOTH",
"449 922 OFFCURVE",
"554 993 OFFCURVE",
"737 993 CURVE SMOOTH",
"840 993 OFFCURVE",
"947 961 OFFCURVE",
"1042 901 CURVE",
"1077 1081 LINE"
);
}
);
width = 1233;
}
);
note = s;
unicode = 0073;
},
{
glyphname = t;
lastChange = "2018-11-11 15:31:49 +0000";
layers = (
{
layerId = "0E6DE79C-D280-4215-AD87-69B89CD8F3FA";
paths = (
{
closed = 1;
nodes = (
"522 1120 LINE",
"223 1120 LINE",
"195 977 LINE",
"494 977 LINE",
"375 369 LINE SMOOTH",
"363 306 OFFCURVE",
"358 262 OFFCURVE",
"358 229 CURVE SMOOTH",
"358 72 OFFCURVE",
"459 0 OFFCURVE",
"682 0 CURVE SMOOTH",
"905 0 LINE",
"934 147 LINE",
"727 147 LINE SMOOTH",
"591 147 OFFCURVE",
"547 178 OFFCURVE",
"547 266 CURVE SMOOTH",
"547 295 OFFCURVE",
"551 329 OFFCURVE",
"559 369 CURVE SMOOTH",
"678 977 LINE",
"1096 977 LINE",
"1124 1120 LINE",
"707 1120 LINE",
"768 1438 LINE",
"584 1438 LINE"
);
}
);
width = 1233;
}
);
note = t;
unicode = 0074;
},
{
glyphname = u;
lastChange = "2018-11-11 15:31:49 +0000";
layers = (
{
layerId = "0E6DE79C-D280-4215-AD87-69B89CD8F3FA";
paths = (
{
closed = 1;
nodes = (
"131 362 OFFCURVE",
"125 298 OFFCURVE",
"125 246 CURVE SMOOTH",
"125 78 OFFCURVE",
"233 -27 OFFCURVE",
"408 -27 CURVE SMOOTH",
"548 -27 OFFCURVE",
"667 37 OFFCURVE",
"764 168 CURVE",
"731 0 LINE",
"915 0 LINE",
"1133 1120 LINE",
"948 1120 LINE",
"825 487 LINE SMOOTH",
"781 262 OFFCURVE",
"658 133 OFFCURVE",
"489 133 CURVE SMOOTH",
"376 133 OFFCURVE",
"311 192 OFFCURVE",
"311 297 CURVE SMOOTH",
"311 329 OFFCURVE",
"317 377 OFFCURVE",
"326 426 CURVE SMOOTH",
"461 1120 LINE",
"276 1120 LINE",
"143 426 LINE SMOOTH"
);
}
);
width = 1233;
}
);
note = u;
unicode = 0075;
},
{
glyphname = v;
lastChange = "2018-11-11 15:31:49 +0000";
layers = (
{
layerId = "0E6DE79C-D280-4215-AD87-69B89CD8F3FA";
paths = (
{
closed = 1;
nodes = (
"600 0 LINE",
"1214 1120 LINE",
"1016 1120 LINE",
"514 164 LINE",
"360 1120 LINE",
"182 1120 LINE",
"362 0 LINE"
);
}
);
width = 1233;
}
);
note = v;
unicode = 0076;
},
{
glyphname = w;
lastChange = "2018-11-11 15:31:49 +0000";
layers = (
{
layerId = "0E6DE79C-D280-4215-AD87-69B89CD8F3FA";
paths = (
{
closed = 1;
nodes = (
"307 0 LINE",
"604 623 LINE",
"664 0 LINE",
"829 0 LINE",
"1315 1120 LINE",
"1124 1120 LINE",
"762 215 LINE",
"713 793 LINE",
"551 793 LINE",
"283 215 LINE",
"268 1120 LINE",
"92 1120 LINE",
"141 0 LINE"
);
}
);
width = 1233;
}
);
note = w;
unicode = 0077;
},
{
glyphname = x;
lastChange = "2018-11-11 15:31:49 +0000";
layers = (
{
layerId = "0E6DE79C-D280-4215-AD87-69B89CD8F3FA";
paths = (
{
closed = 1;
nodes = (
"614 725 LINE",
"397 1120 LINE",
"201 1120 LINE",
"494 596 LINE",
"-70 0 LINE",
"156 0 LINE",
"573 444 LINE",
"817 0 LINE",
"1014 0 LINE",
"696 573 LINE",
"1208 1120 LINE",
"983 1120 LINE"
);
}
);
width = 1233;
}
);
note = x;
unicode = 0078;
},
{
glyphname = y;
lastChange = "2018-11-11 15:31:49 +0000";
layers = (
{
layerId = "0E6DE79C-D280-4215-AD87-69B89CD8F3FA";
paths = (
{
closed = 1;
nodes = (
"1020 1120 LINE",
"537 258 LINE",
"365 1120 LINE",
"182 1120 LINE",
"399 18 LINE",
"356 -66 LINE SMOOTH",
"276 -217 OFFCURVE",
"206 -272 OFFCURVE",
"98 -272 CURVE SMOOTH",
"-10 -272 LINE",
"-39 -426 LINE",
"109 -426 LINE SMOOTH",
"237 -426 OFFCURVE",
"335 -377 OFFCURVE",
"412 -276 CURVE SMOOTH",
"448 -227 OFFCURVE",
"518 -111 OFFCURVE",
"621 72 CURVE SMOOTH",
"690 193 OFFCURVE",
"745 289 OFFCURVE",
"786 360 CURVE SMOOTH",
"1225 1120 LINE"
);
}
);
width = 1233;
}
);
note = y;
unicode = 0079;
},
{
glyphname = z;
lastChange = "2018-11-11 15:31:49 +0000";
layers = (
{
layerId = "0E6DE79C-D280-4215-AD87-69B89CD8F3FA";
paths = (
{
closed = 1;
nodes = (
"895 973 LINE",
"111 168 LINE",
"78 0 LINE",
"915 0 LINE",
"944 147 LINE",
"315 147 LINE",
"1100 952 LINE",
"1133 1120 LINE",
"319 1120 LINE",
"291 973 LINE"
);
}
);
width = 1233;
}
);
note = z;
unicode = 007A;
},
{
glyphname = braceleft;
lastChange = "2018-11-11 15:31:49 +0000";
layers = (
{
layerId = "0E6DE79C-D280-4215-AD87-69B89CD8F3FA";
paths = (
{
closed = 1;
nodes = (
"917 1556 OFFCURVE",
"839 1538 OFFCURVE",
"776 1493 CURVE SMOOTH",
"704 1441 OFFCURVE",
"658 1352 OFFCURVE",
"625 1188 CURVE SMOOTH",
"575 944 LINE SMOOTH",
"535 744 OFFCURVE",
"467 684 OFFCURVE",
"274 684 CURVE SMOOTH",
"213 684 LINE",
"184 537 LINE",
"246 537 LINE SMOOTH",
"397 537 OFFCURVE",
"457 490 OFFCURVE",
"457 377 CURVE SMOOTH",
"457 347 OFFCURVE",
"454 315 OFFCURVE",
"447 282 CURVE",
"446 276 OFFCURVE",
"445 272 OFFCURVE",
"444 270 CURVE",
"399 34 LINE SMOOTH",
"390 -15 OFFCURVE",
"385 -61 OFFCURVE",
"385 -102 CURVE SMOOTH",
"385 -266 OFFCURVE",
"486 -334 OFFCURVE",
"735 -334 CURVE SMOOTH",
"807 -334 LINE",
"836 -190 LINE",
"758 -190 LINE SMOOTH",
"629 -190 OFFCURVE",
"575 -154 OFFCURVE",
"575 -70 CURVE SMOOTH",
"576 -37 OFFCURVE",
"578 -5 OFFCURVE",
"586 39 CURVE SMOOTH",
"633 283 LINE SMOOTH",
"642 334 OFFCURVE",
"647 377 OFFCURVE",
"647 410 CURVE SMOOTH",
"647 510 OFFCURVE",
"591 582 OFFCURVE",
"494 606 CURVE",
"642 634 OFFCURVE",
"714 719 OFFCURVE",
"758 932 CURVE SMOOTH",
"809 1184 LINE SMOOTH",
"849 1384 OFFCURVE",
"888 1413 OFFCURVE",
"1069 1413 CURVE SMOOTH",
"1147 1413 LINE",
"1176 1556 LINE",
"1094 1556 LINE SMOOTH"
);
}
);
width = 1233;
}
);
note = braceleft;
unicode = 007B;
},
{
glyphname = bar;
lastChange = "2018-11-11 15:31:49 +0000";
layers = (
{
layerId = "0E6DE79C-D280-4215-AD87-69B89CD8F3FA";
paths = (
{
closed = 1;
nodes = (
"530 -483 LINE",
"702 -483 LINE",
"702 1565 LINE",
"530 1565 LINE"
);
}
);
width = 1233;
}
);
note = bar;
unicode = 007C;
},
{
glyphname = braceright;
lastChange = "2018-11-11 15:31:49 +0000";
layers = (
{
layerId = "0E6DE79C-D280-4215-AD87-69B89CD8F3FA";
paths = (
{
closed = 1;
nodes = (
"244 -334 OFFCURVE",
"322 -315 OFFCURVE",
"385 -270 CURVE SMOOTH",
"457 -218 OFFCURVE",
"502 -130 OFFCURVE",
"537 35 CURVE SMOOTH",
"584 279 LINE SMOOTH",
"627 479 OFFCURVE",
"695 539 OFFCURVE",
"887 539 CURVE SMOOTH",
"948 539 LINE",
"977 686 LINE",
"915 686 LINE SMOOTH",
"766 686 OFFCURVE",
"705 731 OFFCURVE",
"705 846 CURVE SMOOTH",
"705 876 OFFCURVE",
"708 907 OFFCURVE",
"715 940 CURVE",
"716 946 OFFCURVE",
"716 950 OFFCURVE",
"717 952 CURVE",
"762 1188 LINE SMOOTH",
"771 1237 OFFCURVE",
"776 1282 OFFCURVE",
"776 1325 CURVE SMOOTH",
"776 1489 OFFCURVE",
"677 1556 OFFCURVE",
"426 1556 CURVE SMOOTH",
"352 1556 LINE",
"326 1413 LINE",
"403 1413 LINE SMOOTH",
"534 1413 OFFCURVE",
"586 1377 OFFCURVE",
"586 1292 CURVE SMOOTH",
"586 1260 OFFCURVE",
"583 1228 OFFCURVE",
"575 1183 CURVE SMOOTH",
"528 940 LINE SMOOTH",
"519 889 OFFCURVE",
"514 845 OFFCURVE",
"514 813 CURVE SMOOTH",
"514 712 OFFCURVE",
"569 641 OFFCURVE",
"668 616 CURVE",
"519 589 OFFCURVE",
"447 504 OFFCURVE",
"403 291 CURVE SMOOTH",
"352 39 LINE SMOOTH",
"312 -161 OFFCURVE",
"273 -190 OFFCURVE",
"92 -190 CURVE SMOOTH",
"14 -190 LINE",
"-14 -334 LINE",
"68 -334 LINE SMOOTH"
);
}
);
width = 1233;
}
);
note = braceright;
unicode = 007D;
},
{
glyphname = asciitilde;
lastChange = "2018-11-11 15:31:49 +0000";
layers = (
{
layerId = "0E6DE79C-D280-4215-AD87-69B89CD8F3FA";
paths = (
{
closed = 1;
nodes = (
"1057 699 OFFCURVE",
"962 552 OFFCURVE",
"857 552 CURVE SMOOTH",
"795 552 OFFCURVE",
"734 619 OFFCURVE",
"674 754 CURVE SMOOTH",
"613 889 OFFCURVE",
"526 955 OFFCURVE",
"413 954 CURVE SMOOTH",
"289 954 OFFCURVE",
"131 840 OFFCURVE",
"2 593 CURVE",
"118 517 LINE",
"163 592 OFFCURVE",
"205 653 OFFCURVE",
"242 702 CURVE SMOOTH",
"316 798 OFFCURVE",
"436 794 OFFCURVE",
"481 718 CURVE SMOOTH",
"526 641 OFFCURVE",
"635 388 OFFCURVE",
"820 377 CURVE",
"879 377 OFFCURVE",
"941 401 OFFCURVE",
"1006 449 CURVE SMOOTH",
"1071 496 OFFCURVE",
"1147 585 OFFCURVE",
"1232 716 CURVE",
"1120 804 LINE"
);
}
);
width = 1233;
}
);
note = asciitilde;
unicode = 007E;
},
{
glyphname = exclamdown;
lastChange = "2018-11-11 15:31:49 +0000";
layers = (
{
layerId = "0E6DE79C-D280-4215-AD87-69B89CD8F3FA";
paths = (
{
closed = 1;
nodes = (
"680 1493 LINE",
"631 1239 LINE",
"834 1239 LINE",
"883 1493 LINE"
);
},
{
closed = 1;
nodes = (
"768 1012 LINE",
"606 1012 LINE",
"518 655 LINE",
"389 0 LINE",
"592 0 LINE",
"719 655 LINE"
);
}
);
width = 1233;
}
);
note = exclamdown;
unicode = 00A1;
},
{
glyphname = cent;
lastChange = "2018-11-11 15:31:49 +0000";
layers = (
{
layerId = "0E6DE79C-D280-4215-AD87-69B89CD8F3FA";
paths = (
{
closed = 1;
nodes = (
"1004 1118 OFFCURVE",
"920 1141 OFFCURVE",
"840 1145 CURVE",
"895 1432 LINE",
"793 1432 LINE",
"737 1145 LINE",
"622 1137 OFFCURVE",
"519 1101 OFFCURVE",
"426 1036 CURVE SMOOTH",
"238 908 OFFCURVE",
"123 678 OFFCURVE",
"123 430 CURVE SMOOTH",
"123 170 OFFCURVE",
"266 0 OFFCURVE",
"510 -27 CURVE",
"455 -313 LINE",
"557 -313 LINE",
"612 -27 LINE",
"696 -22 OFFCURVE",
"787 0 OFFCURVE",
"887 41 CURVE",
"920 213 LINE",
"820 160 OFFCURVE",
"728 130 OFFCURVE",
"641 123 CURVE",
"811 993 LINE",
"907 985 OFFCURVE",
"990 956 OFFCURVE",
"1055 905 CURVE",
"1087 1077 LINE"
);
},
{
closed = 1;
nodes = (
"396 143 OFFCURVE",
"315 249 OFFCURVE",
"315 422 CURVE SMOOTH",
"315 722 OFFCURVE",
"489 971 OFFCURVE",
"709 991 CURVE",
"541 127 LINE"
);
}
);
width = 1233;
}
);
note = cent;
unicode = 00A2;
},
{
glyphname = sterling;
lastChange = "2018-11-11 15:31:49 +0000";
layers = (
{
layerId = "0E6DE79C-D280-4215-AD87-69B89CD8F3FA";
paths = (
{
closed = 1;
nodes = (
"1133 1501 OFFCURVE",
"1047 1520 OFFCURVE",
"967 1520 CURVE SMOOTH",
"663 1520 OFFCURVE",
"494 1363 OFFCURVE",
"426 1016 CURVE SMOOTH",
"379 778 LINE",
"180 778 LINE",
"154 635 LINE",
"352 635 LINE",
"262 170 LINE",
"25 170 LINE",
"-8 0 LINE",
"965 0 LINE",
"997 170 LINE",
"461 170 LINE",
"551 635 LINE",
"922 635 LINE",
"950 778 LINE",
"580 778 LINE",
"623 995 LINE SMOOTH",
"674 1263 OFFCURVE",
"769 1366 OFFCURVE",
"954 1366 CURVE SMOOTH",
"1038 1366 OFFCURVE",
"1120 1335 OFFCURVE",
"1192 1278 CURVE",
"1229 1462 LINE"
);
}
);
width = 1233;
}
);
note = sterling;
unicode = 00A3;
},
{
glyphname = currency;
lastChange = "2018-11-11 15:31:49 +0000";
layers = (
{
layerId = "0E6DE79C-D280-4215-AD87-69B89CD8F3FA";
paths = (
{
closed = 1;
nodes = (
"868 522 OFFCURVE",
"774 426 OFFCURVE",
"653 426 CURVE SMOOTH",
"533 426 OFFCURVE",
"438 520 OFFCURVE",
"438 643 CURVE SMOOTH",
"438 763 OFFCURVE",
"533 856 OFFCURVE",
"653 856 CURVE SMOOTH",
"774 856 OFFCURVE",
"868 763 OFFCURVE",
"868 643 CURVE SMOOTH"
);
},
{
closed = 1;
nodes = (
"776 964 OFFCURVE",
"714 983 OFFCURVE",
"653 983 CURVE SMOOTH",
"585 983 OFFCURVE",
"526 963 OFFCURVE",
"465 922 CURVE",
"299 1090 LINE",
"205 995 LINE",
"373 829 LINE",
"332 769 OFFCURVE",
"311 708 OFFCURVE",
"311 641 CURVE SMOOTH",
"311 580 OFFCURVE",
"330 519 OFFCURVE",
"371 451 CURVE",
"205 285 LINE",
"297 195 LINE",
"461 358 LINE",
"525 321 OFFCURVE",
"589 301 OFFCURVE",
"653 301 CURVE SMOOTH",
"720 301 OFFCURVE",
"779 321 OFFCURVE",
"840 362 CURVE",
"1006 195 LINE",
"1100 289 LINE",
"932 455 LINE",
"973 515 OFFCURVE",
"993 574 OFFCURVE",
"993 641 CURVE SMOOTH",
"993 705 OFFCURVE",
"974 766 OFFCURVE",
"934 831 CURVE",
"1100 997 LINE",
"1010 1090 LINE",
"844 924 LINE"
);
}
);
width = 1233;
}
);
note = currency;
unicode = 00A4;
},
{
glyphname = yen;
lastChange = "2018-11-11 15:31:49 +0000";
layers = (
{
layerId = "0E6DE79C-D280-4215-AD87-69B89CD8F3FA";
paths = (
{
closed = 1;
nodes = (
"666 635 LINE",
"676 670 LINE",
"786 821 LINE",
"1098 821 LINE",
"1120 932 LINE",
"868 932 LINE",
"1272 1493 LINE",
"1061 1493 LINE",
"602 829 LINE",
"379 1493 LINE",
"172 1493 LINE",
"377 932 LINE",
"131 932 LINE",
"109 821 LINE",
"418 821 LINE",
"473 670 LINE",
"467 635 LINE",
"70 635 LINE",
"47 524 LINE",
"444 524 LINE",
"346 0 LINE",
"545 0 LINE",
"643 524 LINE",
"1036 524 LINE",
"1059 635 LINE"
);
}
);
width = 1233;
}
);
note = yen;
unicode = 00A5;
},
{
glyphname = brokenbar;
lastChange = "2018-11-11 15:31:49 +0000";
layers = (
{
layerId = "0E6DE79C-D280-4215-AD87-69B89CD8F3FA";
paths = (
{
closed = 1;
nodes = (
"530 674 LINE",
"702 674 LINE",
"702 1432 LINE",
"530 1432 LINE"
);
},
{
closed = 1;
nodes = (
"530 -350 LINE",
"702 -350 LINE",
"702 408 LINE",
"530 408 LINE"
);
}
);
width = 1233;
}
);
note = brokenbar;
unicode = 00A6;
},
{
glyphname = section;
lastChange = "2018-11-11 15:31:49 +0000";
layers = (
{
layerId = "0E6DE79C-D280-4215-AD87-69B89CD8F3FA";
paths = (
{
closed = 1;
nodes = (
"969 1493 OFFCURVE",
"871 1511 OFFCURVE",
"776 1511 CURVE SMOOTH",
"528 1511 OFFCURVE",
"350 1366 OFFCURVE",
"350 1167 CURVE SMOOTH",
"350 1096 OFFCURVE",
"373 1046 OFFCURVE",
"428 997 CURVE",
"271 913 OFFCURVE",
"182 794 OFFCURVE",
"182 666 CURVE SMOOTH",
"182 569 OFFCURVE",
"220 510 OFFCURVE",
"387 397 CURVE SMOOTH",
"461 346 LINE",
"474 337 LINE SMOOTH",
"596 254 OFFCURVE",
"657 180 OFFCURVE",
"657 115 CURVE SMOOTH",
"657 11 OFFCURVE",
"561 -57 OFFCURVE",
"412 -57 CURVE SMOOTH",
"331 -57 OFFCURVE",
"232 -30 OFFCURVE",
"133 18 CURVE",
"100 -143 LINE",
"211 -182 OFFCURVE",
"313 -201 OFFCURVE",
"406 -201 CURVE SMOOTH",
"671 -201 OFFCURVE",
"848 -57 OFFCURVE",
"848 152 CURVE SMOOTH",
"848 225 OFFCURVE",
"821 285 OFFCURVE",
"766 332 CURVE",
"918 403 OFFCURVE",
"1012 531 OFFCURVE",
"1012 666 CURVE SMOOTH",
"1012 758 OFFCURVE",
"968 823 OFFCURVE",
"803 938 CURVE SMOOTH",
"717 997 LINE SMOOTH",
"706 1005 OFFCURVE",
"690 1016 OFFCURVE",
"669 1029 CURVE",
"580 1089 OFFCURVE",
"535 1145 OFFCURVE",
"535 1198 CURVE SMOOTH",
"535 1294 OFFCURVE",
"633 1368 OFFCURVE",
"770 1368 CURVE SMOOTH",
"847 1368 OFFCURVE",
"941 1341 OFFCURVE",
"1036 1290 CURVE",
"1069 1454 LINE"
);
},
{
closed = 1;
nodes = (
"475 534 OFFCURVE",
"419 578 OFFCURVE",
"391 610 CURVE SMOOTH",
"362 642 OFFCURVE",
"348 675 OFFCURVE",
"348 709 CURVE SMOOTH",
"348 782 OFFCURVE",
"407 859 OFFCURVE",
"516 928 CURVE",
"596 877 LINE SMOOTH",
"694 814 OFFCURVE",
"761 764 OFFCURVE",
"797 727 CURVE SMOOTH",
"832 690 OFFCURVE",
"850 653 OFFCURVE",
"850 618 CURVE SMOOTH",
"850 545 OFFCURVE",
"790 469 OFFCURVE",
"678 401 CURVE",
"559 479 LINE SMOOTH"
);
}
);
width = 1233;
}
);
note = section;
unicode = 00A7;
},
{
glyphname = dieresis;
lastChange = "2018-11-11 15:31:49 +0000";
layers = (
{
layerId = "0E6DE79C-D280-4215-AD87-69B89CD8F3FA";
paths = (
{
closed = 1;
nodes = (
"639 1350 LINE",
"678 1552 LINE",
"475 1552 LINE",
"436 1350 LINE"
);
},
{
closed = 1;
nodes = (
"1030 1350 LINE",
"1069 1552 LINE",
"866 1552 LINE",
"827 1350 LINE"
);
}
);
width = 1233;
}
);
note = dieresis;
unicode = 00A8;
},
{
glyphname = copyright;
lastChange = "2018-11-11 15:31:49 +0000";
layers = (
{
layerId = "0E6DE79C-D280-4215-AD87-69B89CD8F3FA";
paths = (
{
closed = 1;
nodes = (
"795 1102 OFFCURVE",
"718 1116 OFFCURVE",
"637 1116 CURVE SMOOTH",
"398 1116 OFFCURVE",
"250 972 OFFCURVE",
"250 741 CURVE SMOOTH",
"250 512 OFFCURVE",
"397 369 OFFCURVE",
"637 369 CURVE SMOOTH",
"718 369 OFFCURVE",
"795 383 OFFCURVE",
"864 414 CURVE",
"864 518 LINE",
"797 483 OFFCURVE",
"730 467 OFFCURVE",
"655 467 CURVE SMOOTH",
"482 467 OFFCURVE",
"385 565 OFFCURVE",
"385 741 CURVE SMOOTH",
"385 912 OFFCURVE",
"481 1018 OFFCURVE",
"637 1018 CURVE SMOOTH",
"714 1018 OFFCURVE",
"787 1000 OFFCURVE",
"864 963 CURVE",
"864 1071 LINE"
);
},
{
closed = 1;
nodes = (
"759 1255 OFFCURVE",
"879 1206 OFFCURVE",
"979 1106 CURVE SMOOTH",
"1079 1006 OFFCURVE",
"1130 882 OFFCURVE",
"1130 741 CURVE SMOOTH",
"1130 601 OFFCURVE",
"1080 480 OFFCURVE",
"979 379 CURVE SMOOTH",
"878 278 OFFCURVE",
"757 227 OFFCURVE",
"616 227 CURVE SMOOTH",
"476 227 OFFCURVE",
"355 278 OFFCURVE",
"254 379 CURVE SMOOTH",
"154 479 OFFCURVE",
"102 602 OFFCURVE",
"102 741 CURVE SMOOTH",
"102 882 OFFCURVE",
"154 1006 OFFCURVE",
"254 1106 CURVE SMOOTH",
"354 1206 OFFCURVE",
"475 1255 OFFCURVE",
"616 1255 CURVE SMOOTH"
);
},
{
closed = 1;
nodes = (
"448 1358 OFFCURVE",
"302 1298 OFFCURVE",
"182 1178 CURVE SMOOTH",
"62 1057 OFFCURVE",
"0 909 OFFCURVE",
"0 741 CURVE SMOOTH",
"0 574 OFFCURVE",
"61 428 OFFCURVE",
"182 307 CURVE SMOOTH",
"303 186 OFFCURVE",
"449 125 OFFCURVE",
"616 125 CURVE SMOOTH",
"784 125 OFFCURVE",
"930 186 OFFCURVE",
"1051 307 CURVE SMOOTH",
"1172 428 OFFCURVE",
"1233 574 OFFCURVE",
"1233 741 CURVE SMOOTH",
"1233 909 OFFCURVE",
"1171 1057 OFFCURVE",
"1051 1178 CURVE SMOOTH",
"931 1298 OFFCURVE",
"785 1358 OFFCURVE",
"616 1358 CURVE SMOOTH"
);
}
);
width = 1233;
}
);
note = copyright;
unicode = 00A9;
},
{
glyphname = ordfeminine;
lastChange = "2018-11-11 15:31:49 +0000";
layers = (
{
layerId = "0E6DE79C-D280-4215-AD87-69B89CD8F3FA";
paths = (
{
closed = 1;
nodes = (
"864 1075 LINE SMOOTH",
"828 910 OFFCURVE",
"723 817 OFFCURVE",
"575 817 CURVE SMOOTH",
"495 817 OFFCURVE",
"442 865 OFFCURVE",
"442 938 CURVE SMOOTH",
"442 1053 OFFCURVE",
"532 1104 OFFCURVE",
"729 1104 CURVE SMOOTH",
"870 1104 LINE"
);
},
{
closed = 1;
nodes = (
"1033 1204 OFFCURVE",
"1036 1237 OFFCURVE",
"1036 1268 CURVE SMOOTH",
"1036 1437 OFFCURVE",
"940 1520 OFFCURVE",
"743 1520 CURVE SMOOTH",
"656 1520 OFFCURVE",
"557 1501 OFFCURVE",
"457 1464 CURVE",
"434 1337 LINE",
"530 1384 OFFCURVE",
"619 1405 OFFCURVE",
"711 1405 CURVE SMOOTH",
"839 1405 OFFCURVE",
"895 1363 OFFCURVE",
"895 1268 CURVE SMOOTH",
"895 1259 OFFCURVE",
"894 1246 OFFCURVE",
"892 1228 CURVE",
"891 1223 OFFCURVE",
"891 1220 OFFCURVE",
"891 1219 CURVE",
"717 1219 LINE SMOOTH",
"452 1219 OFFCURVE",
"295 1107 OFFCURVE",
"295 920 CURVE SMOOTH",
"295 784 OFFCURVE",
"387 698 OFFCURVE",
"532 698 CURVE SMOOTH",
"647 698 OFFCURVE",
"748 745 OFFCURVE",
"819 829 CURVE",
"797 717 LINE",
"940 717 LINE",
"1026 1165 LINE SMOOTH"
);
},
{
closed = 1;
nodes = (
"899 469 LINE",
"922 592 LINE",
"246 592 LINE",
"223 469 LINE"
);
}
);
width = 1233;
}
);
note = ordfeminine;
unicode = 00AA;
},
{
glyphname = guillemotleft;
lastChange = "2018-11-11 15:31:49 +0000";
layers = (
{
layerId = "0E6DE79C-D280-4215-AD87-69B89CD8F3FA";
paths = (
{
closed = 1;
nodes = (
"541 559 LINE",
"928 141 LINE",
"963 317 LINE",
"713 584 LINE",
"1063 848 LINE",
"1106 1059 LINE",
"557 641 LINE"
);
},
{
closed = 1;
nodes = (
"74 559 LINE",
"461 141 LINE",
"496 317 LINE",
"246 584 LINE",
"596 848 LINE",
"639 1059 LINE",
"90 641 LINE"
);
}
);
width = 1233;
}
);
note = guillemotleft;
unicode = 00AB;
},
{
glyphname = logicalnot;
lastChange = "2018-11-11 15:31:49 +0000";
layers = (
{
layerId = "0E6DE79C-D280-4215-AD87-69B89CD8F3FA";
paths = (
{
closed = 1;
nodes = (
"977 690 LINE",
"977 371 LINE",
"1145 371 LINE",
"1145 862 LINE",
"88 862 LINE",
"88 690 LINE"
);
}
);
width = 1233;
}
);
note = logicalnot;
unicode = 00AC;
},
{
glyphname = sfthyphen;
lastChange = "2018-11-11 15:31:49 +0000";
layers = (
{
layerId = "0E6DE79C-D280-4215-AD87-69B89CD8F3FA";
paths = (
{
closed = 1;
nodes = (
"1092 555 LINE",
"1127 724 LINE",
"137 724 LINE",
"102 555 LINE"
);
}
);
width = 1233;
}
);
note = sfthyphen;
unicode = 00AD;
},
{
glyphname = registered;
lastChange = "2018-11-11 15:31:49 +0000";
layers = (
{
layerId = "0E6DE79C-D280-4215-AD87-69B89CD8F3FA";
paths = (
{
closed = 1;
nodes = (
"362 406 LINE",
"492 406 LINE",
"492 702 LINE",
"547 702 LINE SMOOTH",
"607 702 OFFCURVE",
"637 687 OFFCURVE",
"702 580 CURVE SMOOTH",
"809 406 LINE",
"952 406 LINE",
"838 592 LINE SMOOTH",
"813 631 OFFCURVE",
"790 662 OFFCURVE",
"771 685 CURVE SMOOTH",
"752 707 OFFCURVE",
"736 720 OFFCURVE",
"723 723 CURVE",
"830 742 OFFCURVE",
"891 806 OFFCURVE",
"891 901 CURVE SMOOTH",
"891 1036 OFFCURVE",
"796 1100 OFFCURVE",
"600 1100 CURVE SMOOTH",
"362 1100 LINE"
);
},
{
closed = 1;
nodes = (
"714 1016 OFFCURVE",
"758 984 OFFCURVE",
"758 901 CURVE SMOOTH",
"758 817 OFFCURVE",
"714 784 OFFCURVE",
"594 784 CURVE SMOOTH",
"492 784 LINE",
"492 1016 LINE",
"594 1016 LINE SMOOTH"
);
},
{
closed = 1;
nodes = (
"448 1358 OFFCURVE",
"302 1298 OFFCURVE",
"182 1178 CURVE SMOOTH",
"62 1057 OFFCURVE",
"0 909 OFFCURVE",
"0 741 CURVE SMOOTH",
"0 574 OFFCURVE",
"61 428 OFFCURVE",
"182 307 CURVE SMOOTH",
"303 186 OFFCURVE",
"449 125 OFFCURVE",
"616 125 CURVE SMOOTH",
"784 125 OFFCURVE",
"930 186 OFFCURVE",
"1051 307 CURVE SMOOTH",
"1172 428 OFFCURVE",
"1233 574 OFFCURVE",
"1233 741 CURVE SMOOTH",
"1233 909 OFFCURVE",
"1171 1057 OFFCURVE",
"1051 1178 CURVE SMOOTH",
"931 1298 OFFCURVE",
"785 1358 OFFCURVE",
"616 1358 CURVE SMOOTH"
);
},
{
closed = 1;
nodes = (
"759 1255 OFFCURVE",
"879 1206 OFFCURVE",
"979 1106 CURVE SMOOTH",
"1079 1006 OFFCURVE",
"1130 882 OFFCURVE",
"1130 741 CURVE SMOOTH",
"1130 601 OFFCURVE",
"1080 480 OFFCURVE",
"979 379 CURVE SMOOTH",
"878 278 OFFCURVE",
"757 227 OFFCURVE",
"616 227 CURVE SMOOTH",
"476 227 OFFCURVE",
"355 278 OFFCURVE",
"254 379 CURVE SMOOTH",
"154 479 OFFCURVE",
"102 602 OFFCURVE",
"102 741 CURVE SMOOTH",
"102 882 OFFCURVE",
"154 1006 OFFCURVE",
"254 1106 CURVE SMOOTH",
"354 1206 OFFCURVE",
"475 1255 OFFCURVE",
"616 1255 CURVE SMOOTH"
);
}
);
width = 1233;
}
);
note = registered;
unicode = 00AE;
},
{
glyphname = macron;
lastChange = "2018-11-11 15:31:49 +0000";
layers = (
{
layerId = "0E6DE79C-D280-4215-AD87-69B89CD8F3FA";
paths = (
{
closed = 1;
nodes = (
"1101 1378 LINE",
"1127 1526 LINE",
"129 1526 LINE",
"103 1378 LINE"
);
}
);
width = 1233;
}
);
note = macron;
unicode = 00AF;
},
{
glyphname = degree;
lastChange = "2018-11-11 15:31:49 +0000";
layers = (
{
layerId = "0E6DE79C-D280-4215-AD87-69B89CD8F3FA";
paths = (
{
closed = 1;
nodes = (
"439 1520 OFFCURVE",
"299 1379 OFFCURVE",
"299 1200 CURVE SMOOTH",
"299 1020 OFFCURVE",
"434 885 OFFCURVE",
"614 885 CURVE SMOOTH",
"793 885 OFFCURVE",
"934 1024 OFFCURVE",
"934 1200 CURVE SMOOTH",
"934 1288 OFFCURVE",
"902 1365 OFFCURVE",
"842 1425 CURVE SMOOTH",
"783 1486 OFFCURVE",
"703 1520 OFFCURVE",
"616 1520 CURVE SMOOTH"
);
},
{
closed = 1;
nodes = (
"721 1391 OFFCURVE",
"807 1305 OFFCURVE",
"807 1200 CURVE SMOOTH",
"807 1096 OFFCURVE",
"721 1012 OFFCURVE",
"614 1012 CURVE SMOOTH",
"509 1012 OFFCURVE",
"426 1093 OFFCURVE",
"426 1200 CURVE SMOOTH",
"426 1307 OFFCURVE",
"511 1391 OFFCURVE",
"616 1391 CURVE SMOOTH"
);
}
);
width = 1233;
}
);
note = degree;
unicode = 00B0;
},
{
glyphname = plusminus;
lastChange = "2018-11-11 15:31:49 +0000";
layers = (
{
layerId = "0E6DE79C-D280-4215-AD87-69B89CD8F3FA";
paths = (
{
closed = 1;
nodes = (
"1145 0 LINE",
"1145 170 LINE",
"88 170 LINE",
"88 0 LINE"
);
},
{
closed = 1;
nodes = (
"532 842 LINE",
"88 842 LINE",
"88 672 LINE",
"532 672 LINE",
"532 340 LINE",
"700 340 LINE",
"700 672 LINE",
"1145 672 LINE",
"1145 842 LINE",
"700 842 LINE",
"700 1171 LINE",
"532 1171 LINE"
);
}
);
width = 1233;
}
);
note = plusminus;
unicode = 00B1;
},
{
glyphname = twosuperior;
lastChange = "2018-11-11 15:31:49 +0000";
layers = (
{
layerId = "0E6DE79C-D280-4215-AD87-69B89CD8F3FA";
paths = (
{
closed = 1;
nodes = (
"682 933 LINE SMOOTH",
"888 1095 OFFCURVE",
"991 1222 OFFCURVE",
"991 1315 CURVE SMOOTH",
"991 1440 OFFCURVE",
"894 1520 OFFCURVE",
"737 1520 CURVE SMOOTH",
"666 1520 OFFCURVE",
"587 1503 OFFCURVE",
"475 1464 CURVE",
"451 1337 LINE",
"562 1392 OFFCURVE",
"639 1415 OFFCURVE",
"707 1415 CURVE SMOOTH",
"791 1415 OFFCURVE",
"844 1371 OFFCURVE",
"844 1303 CURVE SMOOTH",
"844 1233 OFFCURVE",
"740 1114 OFFCURVE",
"531 945 CURVE SMOOTH",
"498 918 LINE",
"328 778 LINE",
"307 668 LINE",
"864 668 LINE",
"887 782 LINE",
"492 782 LINE",
"662 918 LINE"
);
}
);
width = 1233;
}
);
note = twosuperior;
unicode = 00B2;
},
{
glyphname = threesuperior;
lastChange = "2018-11-11 15:31:49 +0000";
layers = (
{
layerId = "0E6DE79C-D280-4215-AD87-69B89CD8F3FA";
paths = (
{
closed = 1;
nodes = (
"901 1140 OFFCURVE",
"983 1224 OFFCURVE",
"983 1329 CURVE SMOOTH",
"983 1450 OFFCURVE",
"892 1520 OFFCURVE",
"731 1520 CURVE SMOOTH",
"658 1520 OFFCURVE",
"578 1508 OFFCURVE",
"483 1485 CURVE",
"461 1370 LINE",
"541 1399 OFFCURVE",
"608 1413 OFFCURVE",
"664 1413 CURVE SMOOTH",
"779 1413 OFFCURVE",
"836 1379 OFFCURVE",
"836 1311 CURVE SMOOTH",
"836 1226 OFFCURVE",
"750 1167 OFFCURVE",
"621 1167 CURVE SMOOTH",
"549 1167 LINE",
"528 1061 LINE",
"600 1061 LINE SMOOTH",
"719 1061 OFFCURVE",
"774 1019 OFFCURVE",
"774 930 CURVE SMOOTH",
"774 826 OFFCURVE",
"681 760 OFFCURVE",
"532 760 CURVE SMOOTH",
"465 760 OFFCURVE",
"400 776 OFFCURVE",
"311 815 CURVE",
"287 694 LINE",
"366 667 OFFCURVE",
"451 653 OFFCURVE",
"539 653 CURVE SMOOTH",
"772 653 OFFCURVE",
"922 767 OFFCURVE",
"922 942 CURVE SMOOTH",
"922 1037 OFFCURVE",
"868 1100 OFFCURVE",
"772 1116 CURVE"
);
}
);
width = 1233;
}
);
note = threesuperior;
unicode = 00B3;
},
{
glyphname = acute;
lastChange = "2018-11-11 15:31:49 +0000";
layers = (
{
layerId = "0E6DE79C-D280-4215-AD87-69B89CD8F3FA";
paths = (
{
closed = 1;
nodes = (
"731 1262 LINE",
"1126 1638 LINE",
"907 1638 LINE",
"575 1262 LINE"
);
}
);
width = 1233;
}
);
note = acute;
unicode = 00B4;
},
{
glyphname = mu;
lastChange = "2018-11-11 15:31:49 +0000";
layers = (
{
layerId = "0E6DE79C-D280-4215-AD87-69B89CD8F3FA";
paths = (
{
closed = 1;
nodes = (
"246 137 LINE",
"289 26 OFFCURVE",
"371 -29 OFFCURVE",
"494 -29 CURVE SMOOTH",
"625 -29 OFFCURVE",
"713 20 OFFCURVE",
"784 129 CURVE",
"784 32 OFFCURVE",
"841 -29 OFFCURVE",
"930 -29 CURVE SMOOTH",
"974 -29 OFFCURVE",
"1024 -13 OFFCURVE",
"1077 16 CURVE",
"1106 164 LINE",
"1085 155 OFFCURVE",
"1070 149 OFFCURVE",
"1059 146 CURVE SMOOTH",
"1048 143 OFFCURVE",
"1040 141 OFFCURVE",
"1034 141 CURVE SMOOTH",
"1002 141 OFFCURVE",
"985 163 OFFCURVE",
"985 203 CURVE SMOOTH",
"985 218 OFFCURVE",
"987 234 OFFCURVE",
"991 258 CURVE SMOOTH",
"1159 1120 LINE",
"973 1120 LINE",
"846 467 LINE SMOOTH",
"802 240 OFFCURVE",
"695 131 OFFCURVE",
"512 131 CURVE SMOOTH",
"376 131 OFFCURVE",
"301 198 OFFCURVE",
"301 319 CURVE SMOOTH",
"301 346 OFFCURVE",
"305 383 OFFCURVE",
"313 424 CURVE SMOOTH",
"449 1120 LINE",
"262 1120 LINE",
"-39 -426 LINE",
"137 -426 LINE"
);
}
);
width = 1233;
}
);
note = mu;
unicode = 00B5;
},
{
glyphname = paragraph;
lastChange = "2018-11-11 15:31:49 +0000";
layers = (
{
layerId = "0E6DE79C-D280-4215-AD87-69B89CD8F3FA";
paths = (
{
closed = 1;
nodes = (
"383 1493 OFFCURVE",
"125 1283 OFFCURVE",
"125 1004 CURVE SMOOTH",
"125 789 OFFCURVE",
"270 654 OFFCURVE",
"506 649 CURVE",
"342 -197 LINE",
"483 -197 LINE",
"786 1370 LINE",
"977 1370 LINE",
"674 -197 LINE",
"813 -197 LINE",
"1141 1493 LINE",
"735 1493 LINE SMOOTH"
);
}
);
width = 1233;
}
);
note = paragraph;
unicode = 00B6;
},
{
glyphname = periodcentered;
lastChange = "2018-11-11 15:31:49 +0000";
layers = (
{
layerId = "0E6DE79C-D280-4215-AD87-69B89CD8F3FA";
paths = (
{
closed = 1;
nodes = (
"707 559 LINE",
"766 864 LINE",
"512 864 LINE",
"455 559 LINE"
);
}
);
width = 1233;
}
);
note = periodcentered;
unicode = 00B7;
},
{
glyphname = onesuperior;
lastChange = "2018-11-11 15:31:49 +0000";
layers = (
{
layerId = "0E6DE79C-D280-4215-AD87-69B89CD8F3FA";
paths = (
{
closed = 1;
nodes = (
"901 668 LINE",
"922 778 LINE",
"717 778 LINE",
"858 1503 LINE",
"721 1503 LINE",
"483 1464 LINE",
"461 1348 LINE",
"692 1389 LINE",
"575 778 LINE",
"369 778 LINE",
"348 668 LINE"
);
}
);
width = 1233;
}
);
note = onesuperior;
unicode = 00B9;
},
{
glyphname = ordmasculine;
lastChange = "2018-11-11 15:31:49 +0000";
layers = (
{
layerId = "0E6DE79C-D280-4215-AD87-69B89CD8F3FA";
paths = (
{
closed = 1;
nodes = (
"754 698 OFFCURVE",
"865 751 OFFCURVE",
"946 850 CURVE SMOOTH",
"1019 938 OFFCURVE",
"1065 1063 OFFCURVE",
"1065 1180 CURVE SMOOTH",
"1065 1391 OFFCURVE",
"942 1520 OFFCURVE",
"741 1520 CURVE SMOOTH",
"621 1520 OFFCURVE",
"509 1467 OFFCURVE",
"428 1368 CURVE SMOOTH",
"353 1279 OFFCURVE",
"307 1152 OFFCURVE",
"307 1036 CURVE SMOOTH",
"307 827 OFFCURVE",
"430 698 OFFCURVE",
"633 698 CURVE SMOOTH"
);
},
{
closed = 1;
nodes = (
"463 1241 OFFCURVE",
"582 1405 OFFCURVE",
"725 1405 CURVE SMOOTH",
"841 1405 OFFCURVE",
"911 1320 OFFCURVE",
"911 1180 CURVE SMOOTH",
"911 979 OFFCURVE",
"790 813 OFFCURVE",
"649 813 CURVE SMOOTH",
"533 813 OFFCURVE",
"463 898 OFFCURVE",
"463 1038 CURVE SMOOTH"
);
},
{
closed = 1;
nodes = (
"899 469 LINE",
"922 592 LINE",
"246 592 LINE",
"223 469 LINE"
);
}
);
width = 1233;
}
);
note = ordmasculine;
unicode = 00BA;
},
{
glyphname = guillemotright;
lastChange = "2018-11-11 15:31:49 +0000";
layers = (
{
layerId = "0E6DE79C-D280-4215-AD87-69B89CD8F3FA";
paths = (
{
closed = 1;
nodes = (
"647 641 LINE",
"260 1059 LINE",
"225 883 LINE",
"475 614 LINE",
"125 352 LINE",
"82 141 LINE",
"633 559 LINE"
);
},
{
closed = 1;
nodes = (
"1114 641 LINE",
"727 1059 LINE",
"692 883 LINE",
"942 614 LINE",
"592 352 LINE",
"549 141 LINE",
"1100 559 LINE"
);
}
);
width = 1233;
}
);
note = guillemotright;
unicode = 00BB;
},
{
glyphname = questiondown;
lastChange = "2018-11-11 15:31:49 +0000";
layers = (
{
layerId = "0E6DE79C-D280-4215-AD87-69B89CD8F3FA";
paths = (
{
closed = 1;
nodes = (
"615 854 OFFCURVE",
"587 804 OFFCURVE",
"475 711 CURVE SMOOTH",
"371 625 LINE SMOOTH",
"198 481 OFFCURVE",
"143 387 OFFCURVE",
"143 262 CURVE SMOOTH",
"143 94 OFFCURVE",
"286 -27 OFFCURVE",
"489 -27 CURVE SMOOTH",
"624 -27 OFFCURVE",
"757 10 OFFCURVE",
"901 86 CURVE",
"938 274 LINE",
"797 186 OFFCURVE",
"662 137 OFFCURVE",
"557 137 CURVE SMOOTH",
"424 137 OFFCURVE",
"346 194 OFFCURVE",
"346 293 CURVE SMOOTH",
"346 368 OFFCURVE",
"389 436 OFFCURVE",
"502 532 CURVE SMOOTH",
"608 621 LINE SMOOTH",
"756 745 OFFCURVE",
"793 814 OFFCURVE",
"817 938 CURVE SMOOTH",
"846 1092 LINE",
"655 1092 LINE",
"635 969 LINE SMOOTH"
);
},
{
closed = 1;
nodes = (
"727 1493 LINE",
"678 1239 LINE",
"881 1239 LINE",
"930 1493 LINE"
);
}
);
width = 1233;
}
);
note = questiondown;
unicode = 00BF;
},
{
glyphname = Aring;
lastChange = "2018-11-11 15:31:49 +0000";
layers = (
{
layerId = "0E6DE79C-D280-4215-AD87-69B89CD8F3FA";
paths = (
{
closed = 1;
nodes = (
"924 1542 OFFCURVE",
"856 1475 OFFCURVE",
"772 1475 CURVE SMOOTH",
"687 1475 OFFCURVE",
"621 1542 OFFCURVE",
"621 1626 CURVE SMOOTH",
"621 1713 OFFCURVE",
"687 1778 OFFCURVE",
"772 1778 CURVE SMOOTH",
"856 1778 OFFCURVE",
"924 1710 OFFCURVE",
"924 1626 CURVE SMOOTH"
);
},
{
closed = 1;
nodes = (
"371 551 LINE",
"735 1325 LINE",
"801 551 LINE"
);
},
{
closed = 1;
nodes = (
"111 0 LINE",
"295 389 LINE",
"815 389 LINE",
"850 0 LINE",
"1051 0 LINE",
"897 1386 LINE",
"990 1429 OFFCURVE",
"1047 1518 OFFCURVE",
"1047 1626 CURVE SMOOTH",
"1047 1778 OFFCURVE",
"924 1901 OFFCURVE",
"772 1901 CURVE SMOOTH",
"619 1901 OFFCURVE",
"498 1778 OFFCURVE",
"498 1626 CURVE SMOOTH",
"498 1534 OFFCURVE",
"532 1462 OFFCURVE",
"600 1415 CURVE",
"-106 0 LINE"
);
}
);
width = 1233;
}
);
note = Aring;
unicode = 00C5;
},
{
glyphname = AE;
lastChange = "2018-11-11 15:31:49 +0000";
layers = (
{
layerId = "0E6DE79C-D280-4215-AD87-69B89CD8F3FA";
paths = (
{
closed = 1;
nodes = (
"-145 0 LINE",
"39 0 LINE",
"215 383 LINE",
"567 383 LINE",
"492 0 LINE",
"1034 0 LINE",
"1067 170 LINE",
"711 170 LINE",
"817 711 LINE",
"1124 711 LINE",
"1157 881 LINE",
"850 881 LINE",
"936 1323 LINE",
"1274 1323 LINE",
"1307 1493 LINE",
"555 1493 LINE"
);
},
{
closed = 1;
nodes = (
"600 551 LINE",
"291 551 LINE",
"647 1323 LINE",
"750 1323 LINE"
);
}
);
width = 1233;
}
);
note = AE;
unicode = 00C6;
},
{
glyphname = Eth;
lastChange = "2018-11-11 15:31:49 +0000";
layers = (
{
layerId = "0E6DE79C-D280-4215-AD87-69B89CD8F3FA";
paths = (
{
closed = 1;
nodes = (
"334 709 LINE",
"600 709 LINE",
"629 858 LINE",
"362 858 LINE",
"453 1327 LINE",
"567 1327 LINE SMOOTH",
"824 1327 OFFCURVE",
"924 1234 OFFCURVE",
"924 999 CURVE SMOOTH",
"924 822 OFFCURVE",
"873 585 OFFCURVE",
"801 432 CURVE SMOOTH",
"710 244 OFFCURVE",
"571 166 OFFCURVE",
"324 166 CURVE SMOOTH",
"227 166 LINE"
);
},
{
closed = 1;
nodes = (
"160 858 LINE",
"31 858 LINE",
"2 709 LINE",
"129 709 LINE",
"-8 0 LINE",
"295 0 LINE SMOOTH",
"648 0 OFFCURVE",
"836 99 OFFCURVE",
"975 354 CURVE SMOOTH",
"1070 531 OFFCURVE",
"1130 777 OFFCURVE",
"1130 993 CURVE SMOOTH",
"1130 1329 OFFCURVE",
"950 1493 OFFCURVE",
"586 1493 CURVE SMOOTH",
"283 1493 LINE"
);
}
);
width = 1233;
}
);
note = Eth;
unicode = 00D0;
},
{
glyphname = multiply;
lastChange = "2018-11-11 15:31:49 +0000";
layers = (
{
layerId = "0E6DE79C-D280-4215-AD87-69B89CD8F3FA";
paths = (
{
closed = 1;
nodes = (
"616 524 LINE",
"965 174 LINE",
"1081 293 LINE",
"733 641 LINE",
"1083 991 LINE",
"967 1108 LINE",
"616 758 LINE",
"266 1108 LINE",
"150 991 LINE",
"500 641 LINE",
"150 293 LINE",
"268 174 LINE"
);
}
);
width = 1233;
}
);
note = multiply;
unicode = 00D7;
},
{
glyphname = Oslash;
lastChange = "2018-11-11 15:31:49 +0000";
layers = (
{
layerId = "0E6DE79C-D280-4215-AD87-69B89CD8F3FA";
paths = (
{
closed = 1;
nodes = (
"939 1093 OFFCURVE",
"940 1073 OFFCURVE",
"940 1036 CURVE SMOOTH",
"940 872 OFFCURVE",
"903 666 OFFCURVE",
"836 473 CURVE SMOOTH",
"755 241 OFFCURVE",
"651 135 OFFCURVE",
"502 135 CURVE SMOOTH",
"414 135 OFFCURVE",
"349 170 OFFCURVE",
"322 229 CURVE",
"938 1116 LINE"
);
},
{
closed = 1;
nodes = (
"290 405 OFFCURVE",
"287 444 OFFCURVE",
"287 457 CURVE SMOOTH",
"287 601 OFFCURVE",
"328 821 OFFCURVE",
"395 1018 CURVE SMOOTH",
"475 1250 OFFCURVE",
"578 1356 OFFCURVE",
"729 1356 CURVE SMOOTH",
"804 1356 OFFCURVE",
"866 1326 OFFCURVE",
"905 1274 CURVE",
"291 389 LINE"
);
},
{
closed = 1;
nodes = (
"1100 1559 LINE",
"1016 1434 LINE",
"944 1491 OFFCURVE",
"857 1520 OFFCURVE",
"754 1520 CURVE SMOOTH",
"542 1520 OFFCURVE",
"385 1421 OFFCURVE",
"268 1217 CURVE SMOOTH",
"156 1018 OFFCURVE",
"80 713 OFFCURVE",
"80 449 CURVE SMOOTH",
"80 334 OFFCURVE",
"97 241 OFFCURVE",
"133 164 CURVE",
"14 -6 LINE",
"113 -70 LINE",
"207 63 LINE",
"279 2 OFFCURVE",
"369 -29 OFFCURVE",
"477 -29 CURVE SMOOTH",
"688 -29 OFFCURVE",
"846 71 OFFCURVE",
"963 276 CURVE SMOOTH",
"1074 473 OFFCURVE",
"1151 781 OFFCURVE",
"1151 1042 CURVE SMOOTH",
"1151 1163 OFFCURVE",
"1133 1257 OFFCURVE",
"1094 1337 CURVE",
"1200 1495 LINE"
);
}
);
width = 1233;
}
);
note = Oslash;
unicode = 00D8;
},
{
glyphname = Thorn;
lastChange = "2018-11-11 15:31:49 +0000";
layers = (
{
layerId = "0E6DE79C-D280-4215-AD87-69B89CD8F3FA";
paths = (
{
closed = 1;
nodes = (
"930 365 OFFCURVE",
"1159 559 OFFCURVE",
"1159 874 CURVE SMOOTH",
"1159 1097 OFFCURVE",
"1011 1217 OFFCURVE",
"735 1217 CURVE SMOOTH",
"494 1217 LINE",
"545 1491 LINE",
"342 1493 LINE",
"51 0 LINE",
"254 0 LINE",
"326 365 LINE",
"557 365 LINE SMOOTH"
);
},
{
closed = 1;
nodes = (
"871 1059 OFFCURVE",
"952 995 OFFCURVE",
"952 858 CURVE SMOOTH",
"952 655 OFFCURVE",
"809 522 OFFCURVE",
"590 522 CURVE SMOOTH",
"356 522 LINE",
"461 1059 LINE",
"698 1059 LINE SMOOTH"
);
}
);
width = 1233;
}
);
note = Thorn;
unicode = 00DE;
},
{
glyphname = germandbls;
lastChange = "2018-11-11 15:31:49 +0000";
layers = (
{
layerId = "0E6DE79C-D280-4215-AD87-69B89CD8F3FA";
paths = (
{
closed = 1;
nodes = (
"242 0 LINE",
"461 1133 LINE SMOOTH",
"496 1316 OFFCURVE",
"589 1405 OFFCURVE",
"750 1405 CURVE SMOOTH",
"873 1405 OFFCURVE",
"946 1342 OFFCURVE",
"946 1237 CURVE SMOOTH",
"946 1217 OFFCURVE",
"944 1198 OFFCURVE",
"940 1178 CURVE",
"703 1130 OFFCURVE",
"559 994 OFFCURVE",
"559 819 CURVE SMOOTH",
"559 735 OFFCURVE",
"585 687 OFFCURVE",
"705 596 CURVE SMOOTH",
"766 549 LINE SMOOTH",
"879 465 OFFCURVE",
"905 421 OFFCURVE",
"905 352 CURVE SMOOTH",
"905 208 OFFCURVE",
"798 119 OFFCURVE",
"623 119 CURVE SMOOTH",
"528 119 OFFCURVE",
"439 141 OFFCURVE",
"360 184 CURVE",
"330 20 LINE",
"417 -12 OFFCURVE",
"505 -29 OFFCURVE",
"600 -29 CURVE SMOOTH",
"896 -29 OFFCURVE",
"1081 125 OFFCURVE",
"1081 369 CURVE SMOOTH",
"1081 485 OFFCURVE",
"1038 561 OFFCURVE",
"885 674 CURVE SMOOTH",
"834 713 LINE SMOOTH",
"754 772 OFFCURVE",
"733 805 OFFCURVE",
"733 856 CURVE SMOOTH",
"733 984 OFFCURVE",
"876 1080 OFFCURVE",
"1108 1108 CURVE",
"1120 1156 OFFCURVE",
"1126 1203 OFFCURVE",
"1126 1247 CURVE SMOOTH",
"1126 1446 OFFCURVE",
"995 1556 OFFCURVE",
"760 1556 CURVE SMOOTH",
"489 1556 OFFCURVE",
"332 1420 OFFCURVE",
"276 1137 CURVE SMOOTH",
"55 0 LINE"
);
}
);
width = 1233;
}
);
note = germandbls;
unicode = 00DF;
},
{
glyphname = ae;
lastChange = "2018-11-11 15:31:49 +0000";
layers = (
{
layerId = "0E6DE79C-D280-4215-AD87-69B89CD8F3FA";
paths = (
{
closed = 1;
nodes = (
"439 195 OFFCURVE",
"380 123 OFFCURVE",
"260 123 CURVE SMOOTH",
"181 123 OFFCURVE",
"123 182 OFFCURVE",
"123 262 CURVE SMOOTH",
"123 330 OFFCURVE",
"148 400 OFFCURVE",
"188 444 CURVE SMOOTH",
"235 496 OFFCURVE",
"286 514 OFFCURVE",
"453 514 CURVE SMOOTH",
"502 514 LINE",
"487 442 LINE SMOOTH"
);
},
{
closed = 1;
nodes = (
"711 739 LINE SMOOTH",
"743 911 OFFCURVE",
"813 995 OFFCURVE",
"924 995 CURVE SMOOTH",
"1003 995 OFFCURVE",
"1051 939 OFFCURVE",
"1051 846 CURVE SMOOTH",
"1051 803 OFFCURVE",
"1048 767 OFFCURVE",
"1040 731 CURVE SMOOTH",
"1024 657 LINE",
"694 657 LINE"
);
},
{
closed = 1;
nodes = (
"1203 727 OFFCURVE",
"1214 810 OFFCURVE",
"1214 862 CURVE SMOOTH",
"1214 1037 OFFCURVE",
"1111 1147 OFFCURVE",
"950 1147 CURVE SMOOTH",
"843 1147 OFFCURVE",
"747 1101 OFFCURVE",
"680 1018 CURVE",
"639 1102 OFFCURVE",
"558 1147 OFFCURVE",
"449 1147 CURVE SMOOTH",
"374 1147 OFFCURVE",
"281 1124 OFFCURVE",
"176 1079 CURVE",
"141 911 LINE",
"242 966 OFFCURVE",
"334 995 OFFCURVE",
"399 995 CURVE SMOOTH",
"502 995 OFFCURVE",
"561 935 OFFCURVE",
"561 834 CURVE SMOOTH",
"561 799 OFFCURVE",
"558 772 OFFCURVE",
"553 745 CURVE SMOOTH",
"535 657 LINE",
"418 657 LINE SMOOTH",
"119 657 OFFCURVE",
"-47 507 OFFCURVE",
"-47 240 CURVE SMOOTH",
"-47 76 OFFCURVE",
"62 -29 OFFCURVE",
"233 -29 CURVE SMOOTH",
"357 -29 OFFCURVE",
"451 24 OFFCURVE",
"514 131 CURVE",
"547 28 OFFCURVE",
"643 -29 OFFCURVE",
"784 -29 CURVE SMOOTH",
"880 -29 OFFCURVE",
"968 0 OFFCURVE",
"1047 55 CURVE",
"1081 227 LINE",
"1010 160 OFFCURVE",
"908 119 OFFCURVE",
"815 119 CURVE SMOOTH",
"702 119 OFFCURVE",
"633 181 OFFCURVE",
"633 285 CURVE SMOOTH",
"633 304 OFFCURVE",
"636 331 OFFCURVE",
"641 368 CURVE SMOOTH",
"646 405 OFFCURVE",
"655 453 OFFCURVE",
"668 514 CURVE",
"1163 514 LINE",
"1180 604 LINE SMOOTH"
);
}
);
width = 1233;
}
);
note = ae;
unicode = 00E6;
},
{
glyphname = eth;
lastChange = "2018-11-11 15:31:49 +0000";
layers = (
{
layerId = "0E6DE79C-D280-4215-AD87-69B89CD8F3FA";
paths = (
{
closed = 1;
nodes = (
"1102 1499 LINE",
"815 1411 LINE",
"711 1556 LINE",
"498 1556 LINE",
"639 1356 LINE",
"365 1270 LINE",
"395 1178 LINE",
"692 1272 LINE",
"747 1195 OFFCURVE",
"780 1141 OFFCURVE",
"805 1090 CURVE",
"797 1091 OFFCURVE",
"786 1092 OFFCURVE",
"772 1093 CURVE SMOOTH",
"740 1096 OFFCURVE",
"718 1098 OFFCURVE",
"707 1098 CURVE SMOOTH",
"528 1098 OFFCURVE",
"367 1012 OFFCURVE",
"266 864 CURVE SMOOTH",
"171 724 OFFCURVE",
"119 557 OFFCURVE",
"119 389 CURVE SMOOTH",
"119 118 OFFCURVE",
"259 -29 OFFCURVE",
"516 -29 CURVE SMOOTH",
"704 -29 OFFCURVE",
"858 52 OFFCURVE",
"961 207 CURVE SMOOTH",
"1054 346 OFFCURVE",
"1106 522 OFFCURVE",
"1106 707 CURVE SMOOTH",
"1106 908 OFFCURVE",
"1034 1099 OFFCURVE",
"870 1327 CURVE",
"1130 1407 LINE"
);
},
{
closed = 1;
nodes = (
"899 858 OFFCURVE",
"911 790 OFFCURVE",
"911 705 CURVE SMOOTH",
"911 362 OFFCURVE",
"755 127 OFFCURVE",
"532 127 CURVE SMOOTH",
"393 127 OFFCURVE",
"313 219 OFFCURVE",
"313 379 CURVE SMOOTH",
"313 716 OFFCURVE",
"474 944 OFFCURVE",
"713 944 CURVE SMOOTH",
"772 944 OFFCURVE",
"825 932 OFFCURVE",
"874 907 CURVE"
);
}
);
width = 1233;
}
);
note = eth;
unicode = 00F0;
},
{
glyphname = divide;
lastChange = "2018-11-11 15:31:49 +0000";
layers = (
{
layerId = "0E6DE79C-D280-4215-AD87-69B89CD8F3FA";
paths = (
{
closed = 1;
nodes = (
"739 150 LINE",
"739 395 LINE",
"494 395 LINE",
"494 150 LINE"
);
},
{
closed = 1;
nodes = (
"739 889 LINE",
"739 1135 LINE",
"494 1135 LINE",
"494 889 LINE"
);
},
{
closed = 1;
nodes = (
"1145 557 LINE",
"1145 727 LINE",
"88 727 LINE",
"88 557 LINE"
);
}
);
width = 1233;
}
);
note = divide;
unicode = 00F7;
},
{
glyphname = oslash;
lastChange = "2018-11-11 15:31:49 +0000";
layers = (
{
layerId = "0E6DE79C-D280-4215-AD87-69B89CD8F3FA";
paths = (
{
closed = 1;
nodes = (
"918 798 OFFCURVE",
"920 768 OFFCURVE",
"920 733 CURVE SMOOTH",
"920 382 OFFCURVE",
"754 127 OFFCURVE",
"537 127 CURVE SMOOTH",
"468 127 OFFCURVE",
"417 146 OFFCURVE",
"377 186 CURVE",
"911 825 LINE"
);
},
{
closed = 1;
nodes = (
"139 -96 LINE",
"258 45 LINE",
"326 -4 OFFCURVE",
"407 -29 OFFCURVE",
"506 -29 CURVE SMOOTH",
"702 -29 OFFCURVE",
"853 50 OFFCURVE",
"958 207 CURVE SMOOTH",
"1057 352 OFFCURVE",
"1114 543 OFFCURVE",
"1114 727 CURVE SMOOTH",
"1114 839 OFFCURVE",
"1094 922 OFFCURVE",
"1051 989 CURVE",
"1174 1135 LINE",
"1081 1212 LINE",
"969 1075 LINE",
"908 1123 OFFCURVE",
"829 1147 OFFCURVE",
"725 1147 CURVE SMOOTH",
"529 1147 OFFCURVE",
"382 1070 OFFCURVE",
"274 911 CURVE SMOOTH",
"174 764 OFFCURVE",
"119 578 OFFCURVE",
"119 389 CURVE SMOOTH",
"119 282 OFFCURVE",
"137 197 OFFCURVE",
"176 133 CURVE",
"47 -20 LINE"
);
},
{
closed = 1;
nodes = (
"315 326 OFFCURVE",
"313 352 OFFCURVE",
"313 379 CURVE SMOOTH",
"313 736 OFFCURVE",
"477 991 OFFCURVE",
"696 991 CURVE SMOOTH",
"765 991 OFFCURVE",
"811 975 OFFCURVE",
"852 938 CURVE",
"319 302 LINE"
);
}
);
width = 1233;
}
);
note = oslash;
unicode = 00F8;
},
{
glyphname = thorn;
lastChange = "2018-11-11 15:31:49 +0000";
layers = (
{
layerId = "0E6DE79C-D280-4215-AD87-69B89CD8F3FA";
paths = (
{
closed = 1;
nodes = (
"352 26 OFFCURVE",
"445 -29 OFFCURVE",
"578 -29 CURVE SMOOTH",
"741 -29 OFFCURVE",
"879 54 OFFCURVE",
"979 211 CURVE SMOOTH",
"1072 358 OFFCURVE",
"1128 561 OFFCURVE",
"1128 752 CURVE SMOOTH",
"1128 1001 OFFCURVE",
"1004 1147 OFFCURVE",
"788 1147 CURVE SMOOTH",
"655 1147 OFFCURVE",
"536 1086 OFFCURVE",
"455 977 CURVE",
"569 1567 LINE",
"385 1567 LINE",
"-2 -426 LINE",
"182 -426 LINE",
"293 141 LINE"
);
},
{
closed = 1;
nodes = (
"432 127 OFFCURVE",
"354 219 OFFCURVE",
"354 383 CURVE SMOOTH",
"354 535 OFFCURVE",
"394 696 OFFCURVE",
"459 813 CURVE SMOOTH",
"523 930 OFFCURVE",
"616 991 OFFCURVE",
"729 991 CURVE SMOOTH",
"865 991 OFFCURVE",
"934 906 OFFCURVE",
"934 737 CURVE SMOOTH",
"934 586 OFFCURVE",
"894 424 OFFCURVE",
"829 301 CURVE SMOOTH",
"769 188 OFFCURVE",
"677 127 OFFCURVE",
"569 127 CURVE SMOOTH"
);
}
);
width = 1233;
}
);
note = thorn;
unicode = 00FE;
},
{
glyphname = dcroat;
lastChange = "2018-11-11 15:31:49 +0000";
layers = (
{
layerId = "0E6DE79C-D280-4215-AD87-69B89CD8F3FA";
paths = (
{
closed = 1;
nodes = (
"817 991 OFFCURVE",
"893 897 OFFCURVE",
"893 737 CURVE SMOOTH",
"893 585 OFFCURVE",
"853 421 OFFCURVE",
"788 305 CURVE SMOOTH",
"724 188 OFFCURVE",
"631 127 OFFCURVE",
"518 127 CURVE SMOOTH",
"383 127 OFFCURVE",
"315 212 OFFCURVE",
"315 383 CURVE SMOOTH",
"315 536 OFFCURVE",
"353 697 OFFCURVE",
"418 817 CURVE SMOOTH",
"479 933 OFFCURVE",
"569 991 OFFCURVE",
"686 991 CURVE SMOOTH"
);
},
{
closed = 1;
nodes = (
"899 1088 OFFCURVE",
"799 1147 OFFCURVE",
"670 1147 CURVE SMOOTH",
"505 1147 OFFCURVE",
"368 1066 OFFCURVE",
"268 909 CURVE SMOOTH",
"176 765 OFFCURVE",
"119 560 OFFCURVE",
"119 369 CURVE SMOOTH",
"119 118 OFFCURVE",
"246 -29 OFFCURVE",
"463 -29 CURVE SMOOTH",
"596 -29 OFFCURVE",
"706 29 OFFCURVE",
"793 141 CURVE",
"766 0 LINE",
"950 0 LINE",
"1200 1286 LINE",
"1393 1286 LINE",
"1415 1407 LINE",
"1223 1407 LINE",
"1253 1556 LINE",
"1069 1556 LINE",
"1038 1407 LINE",
"709 1407 LINE",
"684 1286 LINE",
"1016 1286 LINE",
"954 977 LINE"
);
}
);
width = 1233;
}
);
note = dcroat;
unicode = 0111;
},
{
glyphname = Hbar;
lastChange = "2018-11-11 15:31:49 +0000";
layers = (
{
layerId = "0E6DE79C-D280-4215-AD87-69B89CD8F3FA";
paths = (
{
closed = 1;
nodes = (
"105 1269 LINE",
"73 1105 LINE",
"207 1105 LINE",
"-8 0 LINE",
"194 0 LINE",
"332 711 LINE",
"886 711 LINE",
"748 0 LINE",
"950 0 LINE",
"1165 1105 LINE",
"1300 1105 LINE",
"1332 1269 LINE",
"1197 1269 LINE",
"1240 1493 LINE",
"1038 1493 LINE",
"995 1269 LINE",
"441 1269 LINE",
"484 1493 LINE",
"282 1493 LINE",
"239 1269 LINE"
);
},
{
closed = 1;
nodes = (
"919 881 LINE",
"365 881 LINE",
"409 1105 LINE",
"963 1105 LINE"
);
}
);
width = 1233;
}
);
note = Hbar;
unicode = 0126;
},
{
glyphname = hbar;
lastChange = "2018-11-11 15:31:49 +0000";
layers = (
{
layerId = "0E6DE79C-D280-4215-AD87-69B89CD8F3FA";
paths = (
{
closed = 1;
nodes = (
"1047 757 OFFCURVE",
"1053 813 OFFCURVE",
"1053 863 CURVE SMOOTH",
"1053 1003 OFFCURVE",
"1011 1147 OFFCURVE",
"782 1147 CURVE SMOOTH",
"630 1147 OFFCURVE",
"502 1080 OFFCURVE",
"413 952 CURVE",
"475 1270 LINE",
"828 1270 LINE",
"860 1434 LINE",
"507 1434 LINE",
"530 1556 LINE",
"346 1556 LINE",
"323 1434 LINE",
"198 1434 LINE",
"166 1270 LINE",
"291 1270 LINE",
"44 0 LINE",
"228 0 LINE",
"351 633 LINE SMOOTH",
"395 866 OFFCURVE",
"520 987 OFFCURVE",
"688 987 CURVE SMOOTH",
"837 987 OFFCURVE",
"862 897 OFFCURVE",
"862 809 CURVE SMOOTH",
"862 776 OFFCURVE",
"858 738 OFFCURVE",
"850 695 CURVE SMOOTH",
"715 0 LINE",
"900 0 LINE",
"1034 694 LINE SMOOTH"
);
}
);
width = 1233;
}
);
note = hbar;
unicode = 0127;
},
{
glyphname = dotlessi;
lastChange = "2018-11-11 15:31:49 +0000";
layers = (
{
layerId = "0E6DE79C-D280-4215-AD87-69B89CD8F3FA";
paths = (
{
closed = 1;
nodes = (
"616 977 LINE",
"455 143 LINE",
"90 143 LINE",
"61 0 LINE",
"975 0 LINE",
"1004 143 LINE",
"639 143 LINE",
"829 1120 LINE",
"358 1120 LINE",
"330 977 LINE"
);
}
);
width = 1233;
}
);
note = dotlessi;
unicode = 0131;
},
{
glyphname = IJ;
lastChange = "2018-11-11 15:31:49 +0000";
layers = (
{
layerId = "0E6DE79C-D280-4215-AD87-69B89CD8F3FA";
paths = (
{
closed = 1;
nodes = (
"714 3 OFFCURVE",
"800 -28 OFFCURVE",
"885 -28 CURVE SMOOTH",
"1092 -28 OFFCURVE",
"1192 103 OFFCURVE",
"1261 488 CURVE SMOOTH",
"1443 1494 LINE",
"1062 1494 LINE",
"1031 1324 LINE",
"1280 1324 LINE",
"1129 488 LINE SMOOTH",
"1104 351 OFFCURVE",
"1075 258 OFFCURVE",
"1042 209 CURVE SMOOTH",
"1009 160 OFFCURVE",
"961 136 OFFCURVE",
"899 136 CURVE SMOOTH",
"808 136 OFFCURVE",
"729 193 OFFCURVE",
"672 298 CURVE",
"631 62 LINE"
);
},
{
closed = 1;
nodes = (
"470 1323 LINE",
"253 170 LINE",
"35 170 LINE",
"3 0 LINE",
"582 0 LINE",
"614 170 LINE",
"395 170 LINE",
"611 1323 LINE",
"830 1323 LINE",
"862 1493 LINE",
"283 1493 LINE",
"251 1323 LINE"
);
}
);
width = 1233;
}
);
note = IJ;
unicode = 0132;
},
{
glyphname = ij;
lastChange = "2018-11-11 15:31:49 +0000";
layers = (
{
layerId = "0E6DE79C-D280-4215-AD87-69B89CD8F3FA";
paths = (
{
closed = 1;
nodes = (
"559 978 LINE",
"398 144 LINE",
"33 144 LINE",
"4 1 LINE",
"918 1 LINE",
"947 144 LINE",
"582 144 LINE",
"772 1121 LINE",
"301 1121 LINE",
"273 978 LINE"
);
},
{
closed = 1;
nodes = (
"811 1324 LINE",
"856 1557 LINE",
"672 1557 LINE",
"627 1324 LINE"
);
},
{
closed = 1;
nodes = (
"987 -198 OFFCURVE",
"917 -273 OFFCURVE",
"790 -273 CURVE SMOOTH",
"557 -273 LINE",
"526 -429 LINE",
"780 -429 LINE SMOOTH",
"1021 -429 OFFCURVE",
"1149 -307 OFFCURVE",
"1204 -23 CURVE SMOOTH",
"1425 1117 LINE",
"923 1117 LINE",
"895 974 LINE",
"1212 974 LINE",
"1020 -23 LINE SMOOTH"
);
},
{
closed = 1;
nodes = (
"1464 1320 LINE",
"1509 1553 LINE",
"1325 1553 LINE",
"1280 1320 LINE"
);
}
);
width = 1233;
}
);
note = ij;
unicode = 0133;
},
{
glyphname = kgreenlandic;
lastChange = "2018-11-11 15:31:49 +0000";
layers = (
{
layerId = "0E6DE79C-D280-4215-AD87-69B89CD8F3FA";
paths = (
{
closed = 1;
nodes = (
"317 0 LINE",
"404 449 LINE",
"566 578 LINE",
"868 0 LINE",
"1093 0 LINE",
"719 698 LINE",
"1242 1120 LINE",
"1018 1120 LINE",
"444 655 LINE",
"535 1120 LINE",
"345 1120 LINE",
"127 0 LINE"
);
}
);
width = 1233;
}
);
note = kgreenlandic;
unicode = 0138;
},
{
glyphname = Lslash;
lastChange = "2018-11-11 15:31:49 +0000";
layers = (
{
layerId = "0E6DE79C-D280-4215-AD87-69B89CD8F3FA";
paths = (
{
closed = 1;
nodes = (
"-29 559 LINE",
"45 459 LINE",
"195 563 LINE",
"82 0 LINE",
"1006 0 LINE",
"1038 168 LINE",
"317 168 LINE",
"430 729 LINE",
"829 1008 LINE",
"756 1108 LINE",
"459 899 LINE",
"573 1491 LINE",
"371 1491 LINE",
"231 739 LINE"
);
}
);
width = 1233;
}
);
note = Lslash;
unicode = 0141;
},
{
glyphname = lslash;
lastChange = "2018-11-11 15:31:49 +0000";
layers = (
{
layerId = "0E6DE79C-D280-4215-AD87-69B89CD8F3FA";
paths = (
{
closed = 1;
nodes = (
"1114 1133 LINE",
"1040 1231 LINE",
"725 1014 LINE",
"840 1567 LINE",
"340 1567 LINE",
"311 1423 LINE",
"627 1423 LINE",
"512 870 LINE",
"88 578 LINE",
"162 479 LINE",
"475 698 LINE",
"416 412 LINE SMOOTH",
"404 359 OFFCURVE",
"397 305 OFFCURVE",
"397 258 CURVE SMOOTH",
"397 83 OFFCURVE",
"508 0 OFFCURVE",
"739 0 CURVE SMOOTH",
"946 0 LINE",
"977 156 LINE",
"766 156 LINE SMOOTH",
"645 156 OFFCURVE",
"586 204 OFFCURVE",
"586 301 CURVE SMOOTH",
"586 322 OFFCURVE",
"591 359 OFFCURVE",
"600 408 CURVE SMOOTH",
"690 840 LINE"
);
}
);
width = 1233;
}
);
note = lslash;
unicode = 0142;
},
{
glyphname = Eng;
lastChange = "2018-11-11 15:31:49 +0000";
layers = (
{
layerId = "0E6DE79C-D280-4215-AD87-69B89CD8F3FA";
paths = (
{
closed = 1;
nodes = (
"1241 1348 OFFCURVE",
"1151 1522 OFFCURVE",
"902 1522 CURVE SMOOTH",
"734 1522 OFFCURVE",
"595 1443 OFFCURVE",
"494 1295 CURVE",
"533 1493 LINE",
"331 1493 LINE",
"40 0 LINE",
"242 0 LINE",
"425 937 LINE SMOOTH",
"477 1208 OFFCURVE",
"611 1358 OFFCURVE",
"799 1358 CURVE SMOOTH",
"964 1358 OFFCURVE",
"1019 1249 OFFCURVE",
"972 1009 CURVE SMOOTH",
"775 0 LINE SMOOTH",
"738 -195 OFFCURVE",
"664 -270 OFFCURVE",
"544 -270 CURVE SMOOTH",
"377 -270 LINE",
"347 -426 LINE",
"552 -426 LINE SMOOTH",
"772 -426 OFFCURVE",
"924 -280 OFFCURVE",
"975 -20 CURVE SMOOTH",
"1173 999 LINE SMOOTH"
);
}
);
width = 1233;
}
);
note = Eng;
unicode = 014A;
},
{
glyphname = eng;
lastChange = "2018-11-11 15:31:49 +0000";
layers = (
{
layerId = "0E6DE79C-D280-4215-AD87-69B89CD8F3FA";
paths = (
{
closed = 1;
nodes = (
"1128 757 OFFCURVE",
"1134 813 OFFCURVE",
"1134 862 CURVE SMOOTH",
"1134 1003 OFFCURVE",
"1092 1147 OFFCURVE",
"864 1147 CURVE SMOOTH",
"711 1147 OFFCURVE",
"585 1080 OFFCURVE",
"494 952 CURVE",
"527 1120 LINE",
"343 1120 LINE",
"125 0 LINE",
"309 0 LINE",
"432 633 LINE SMOOTH",
"476 861 OFFCURVE",
"597 987 OFFCURVE",
"769 987 CURVE SMOOTH",
"920 987 OFFCURVE",
"943 897 OFFCURVE",
"943 809 CURVE SMOOTH",
"943 776 OFFCURVE",
"939 737 OFFCURVE",
"931 694 CURVE SMOOTH",
"792 -20 LINE SMOOTH",
"760 -188 OFFCURVE",
"684 -270 OFFCURVE",
"564 -270 CURVE SMOOTH",
"379 -270 LINE",
"349 -426 LINE",
"554 -426 LINE SMOOTH",
"774 -426 OFFCURVE",
"926 -280 OFFCURVE",
"977 -20 CURVE SMOOTH",
"1116 694 LINE SMOOTH"
);
}
);
width = 1233;
}
);
note = eng;
unicode = 014B;
},
{
glyphname = OE;
lastChange = "2018-11-11 15:31:49 +0000";
layers = (
{
layerId = "0E6DE79C-D280-4215-AD87-69B89CD8F3FA";
paths = (
{
closed = 1;
nodes = (
"842 711 LINE",
"1169 711 LINE",
"1202 881 LINE",
"874 881 LINE",
"961 1323 LINE",
"1319 1323 LINE",
"1352 1493 LINE",
"758 1493 LINE SMOOTH",
"437 1493 OFFCURVE",
"269 1375 OFFCURVE",
"154 1067 CURVE SMOOTH",
"83 876 OFFCURVE",
"35 609 OFFCURVE",
"35 414 CURVE SMOOTH",
"35 135 OFFCURVE",
"176 0 OFFCURVE",
"467 0 CURVE SMOOTH",
"1071 0 LINE",
"1104 170 LINE",
"735 170 LINE"
);
},
{
closed = 1;
nodes = (
"539 170 LINE",
"477 170 LINE SMOOTH",
"313 170 OFFCURVE",
"229 252 OFFCURVE",
"229 412 CURVE SMOOTH",
"229 493 OFFCURVE",
"244 604 OFFCURVE",
"272 745 CURVE SMOOTH",
"305 913 OFFCURVE",
"338 1033 OFFCURVE",
"371 1106 CURVE SMOOTH",
"434 1251 OFFCURVE",
"545 1323 OFFCURVE",
"702 1323 CURVE SMOOTH",
"764 1323 LINE"
);
}
);
width = 1233;
}
);
note = OE;
unicode = 0152;
},
{
glyphname = oe;
lastChange = "2018-11-11 15:31:49 +0000";
layers = (
{
layerId = "0E6DE79C-D280-4215-AD87-69B89CD8F3FA";
paths = (
{
closed = 1;
nodes = (
"691 1099 OFFCURVE",
"605 1147 OFFCURVE",
"498 1147 CURVE SMOOTH",
"342 1147 OFFCURVE",
"220 1074 OFFCURVE",
"145 938 CURVE SMOOTH",
"93 843 OFFCURVE",
"54 720 OFFCURVE",
"25 559 CURVE SMOOTH",
"4 455 OFFCURVE",
"-6 365 OFFCURVE",
"-6 293 CURVE SMOOTH",
"-6 85 OFFCURVE",
"99 -29 OFFCURVE",
"291 -29 CURVE SMOOTH",
"399 -29 OFFCURVE",
"496 17 OFFCURVE",
"573 104 CURVE",
"618 19 OFFCURVE",
"711 -29 OFFCURVE",
"838 -29 CURVE SMOOTH",
"933 -29 OFFCURVE",
"1021 0 OFFCURVE",
"1100 55 CURVE",
"1135 227 LINE",
"1063 160 OFFCURVE",
"961 119 OFFCURVE",
"868 119 CURVE SMOOTH",
"755 119 OFFCURVE",
"686 181 OFFCURVE",
"686 285 CURVE SMOOTH",
"686 304 OFFCURVE",
"689 331 OFFCURVE",
"695 368 CURVE SMOOTH",
"700 405 OFFCURVE",
"709 453 OFFCURVE",
"721 514 CURVE",
"1223 514 LINE",
"1239 604 LINE SMOOTH",
"1260 716 OFFCURVE",
"1272 805 OFFCURVE",
"1272 862 CURVE SMOOTH",
"1272 1039 OFFCURVE",
"1171 1147 OFFCURVE",
"1008 1147 CURVE SMOOTH",
"901 1147 OFFCURVE",
"812 1104 OFFCURVE",
"735 1020 CURVE"
);
},
{
closed = 1;
nodes = (
"801 906 OFFCURVE",
"872 991 OFFCURVE",
"983 991 CURVE SMOOTH",
"1064 991 OFFCURVE",
"1110 937 OFFCURVE",
"1110 842 CURVE SMOOTH",
"1110 807 OFFCURVE",
"1106 770 OFFCURVE",
"1098 729 CURVE SMOOTH",
"1083 653 LINE",
"754 653 LINE",
"768 735 LINE SMOOTH"
);
},
{
closed = 1;
nodes = (
"219 123 OFFCURVE",
"168 183 OFFCURVE",
"168 291 CURVE SMOOTH",
"168 339 OFFCURVE",
"182 444 OFFCURVE",
"205 559 CURVE SMOOTH",
"229 687 OFFCURVE",
"256 785 OFFCURVE",
"285 856 CURVE SMOOTH",
"322 949 OFFCURVE",
"386 995 OFFCURVE",
"473 995 CURVE SMOOTH",
"562 995 OFFCURVE",
"612 937 OFFCURVE",
"612 834 CURVE SMOOTH",
"612 813 OFFCURVE",
"609 780 OFFCURVE",
"603 735 CURVE SMOOTH",
"597 690 OFFCURVE",
"588 631 OFFCURVE",
"575 559 CURVE SMOOTH",
"547 418 OFFCURVE",
"520 319 OFFCURVE",
"496 260 CURVE SMOOTH",
"457 172 OFFCURVE",
"391 123 OFFCURVE",
"311 123 CURVE SMOOTH"
);
}
);
width = 1233;
}
);
note = oe;
unicode = 0153;
},
{
glyphname = Tbar;
lastChange = "2018-11-11 15:31:49 +0000";
layers = (
{
layerId = "0E6DE79C-D280-4215-AD87-69B89CD8F3FA";
paths = (
{
closed = 1;
nodes = (
"628 1323 LINE",
"516 747 LINE",
"251 747 LINE",
"218 577 LINE",
"483 577 LINE",
"371 0 LINE",
"574 0 LINE",
"686 577 LINE",
"951 577 LINE",
"984 747 LINE",
"719 747 LINE",
"831 1323 LINE",
"1298 1323 LINE",
"1331 1493 LINE",
"192 1493 LINE",
"159 1323 LINE"
);
}
);
width = 1233;
}
);
note = Tbar;
unicode = 0166;
},
{
glyphname = tbar;
lastChange = "2018-11-11 15:31:49 +0000";
layers = (
{
layerId = "0E6DE79C-D280-4215-AD87-69B89CD8F3FA";
paths = (
{
closed = 1;
nodes = (
"508 1120 LINE",
"209 1120 LINE",
"181 977 LINE",
"480 977 LINE",
"435 744 LINE",
"206 744 LINE",
"178 602 LINE",
"407 602 LINE",
"362 369 LINE SMOOTH",
"353 320 OFFCURVE",
"348 276 OFFCURVE",
"348 237 CURVE SMOOTH",
"348 170 OFFCURVE",
"362 118 OFFCURVE",
"391 83 CURVE SMOOTH",
"437 28 OFFCURVE",
"529 0 OFFCURVE",
"667 0 CURVE SMOOTH",
"892 0 LINE",
"921 147 LINE",
"714 147 LINE SMOOTH",
"636 147 OFFCURVE",
"584 163 OFFCURVE",
"559 196 CURVE SMOOTH",
"544 216 OFFCURVE",
"537 245 OFFCURVE",
"537 283 CURVE SMOOTH",
"537 308 OFFCURVE",
"540 336 OFFCURVE",
"546 369 CURVE SMOOTH",
"591 602 LINE",
"820 602 LINE",
"848 744 LINE",
"619 744 LINE",
"664 977 LINE",
"1082 977 LINE",
"1110 1120 LINE",
"692 1120 LINE",
"754 1438 LINE",
"570 1438 LINE"
);
}
);
width = 1233;
}
);
note = tbar;
unicode = 0167;
},
{
glyphname = longs;
lastChange = "2018-11-11 15:31:49 +0000";
layers = (
{
layerId = "0E6DE79C-D280-4215-AD87-69B89CD8F3FA";
paths = (
{
closed = 1;
nodes = (
"822 1354 OFFCURVE",
"879 1403 OFFCURVE",
"1006 1403 CURVE SMOOTH",
"1214 1403 LINE",
"1245 1556 LINE",
"1024 1556 LINE SMOOTH",
"775 1556 OFFCURVE",
"657 1455 OFFCURVE",
"606 1198 CURVE SMOOTH",
"590 1120 LINE",
"293 1120 LINE",
"264 977 LINE",
"563 977 LINE",
"373 0 LINE",
"557 0 LINE",
"795 1219 LINE SMOOTH"
);
}
);
width = 1233;
}
);
note = longs;
unicode = 017F;
},
{
glyphname = uni0180;
lastChange = "2018-11-11 15:31:49 +0000";
layers = (
{
layerId = "0E6DE79C-D280-4215-AD87-69B89CD8F3FA";
paths = (
{
closed = 1;
nodes = (
"828 1270 LINE",
"860 1434 LINE",
"523 1434 LINE",
"547 1556 LINE",
"362 1556 LINE",
"338 1434 LINE",
"198 1434 LINE",
"166 1270 LINE",
"306 1270 LINE",
"59 0 LINE",
"244 0 LINE",
"270 141 LINE",
"315 29 OFFCURVE",
"404 -29 OFFCURVE",
"535 -29 CURVE SMOOTH",
"700 -29 OFFCURVE",
"851 60 OFFCURVE",
"954 213 CURVE SMOOTH",
"1050 358 OFFCURVE",
"1108 561 OFFCURVE",
"1108 754 CURVE SMOOTH",
"1108 1002 OFFCURVE",
"981 1147 OFFCURVE",
"762 1147 CURVE SMOOTH",
"626 1147 OFFCURVE",
"517 1089 OFFCURVE",
"434 977 CURVE",
"491 1270 LINE"
);
},
{
closed = 1;
nodes = (
"406 127 OFFCURVE",
"332 219 OFFCURVE",
"332 383 CURVE SMOOTH",
"332 531 OFFCURVE",
"374 698 OFFCURVE",
"438 813 CURVE SMOOTH",
"506 930 OFFCURVE",
"598 993 OFFCURVE",
"709 993 CURVE SMOOTH",
"844 993 OFFCURVE",
"911 908 OFFCURVE",
"911 737 CURVE SMOOTH",
"911 593 OFFCURVE",
"870 428 OFFCURVE",
"805 303 CURVE SMOOTH",
"744 188 OFFCURVE",
"651 127 OFFCURVE",
"539 127 CURVE SMOOTH"
);
}
);
width = 1233;
}
);
note = uni0180;
unicode = 0180;
},
{
glyphname = uni0181;
lastChange = "2018-11-11 15:31:49 +0000";
layers = (
{
layerId = "0E6DE79C-D280-4215-AD87-69B89CD8F3FA";
paths = (
{
closed = 1;
nodes = (
"965 1327 OFFCURVE",
"1047 1253 OFFCURVE",
"1018 1102 CURVE SMOOTH",
"987 950 OFFCURVE",
"878 877 OFFCURVE",
"681 877 CURVE SMOOTH",
"565 877 LINE",
"652 1327 LINE",
"768 1327 LINE SMOOTH"
);
},
{
closed = 1;
nodes = (
"315 1493 OFFCURVE",
"145 1390 OFFCURVE",
"98 1149 CURVE SMOOTH",
"84 1079 LINE",
"240 1079 LINE",
"250 1128 LINE SMOOTH",
"279 1280 OFFCURVE",
"379 1327 OFFCURVE",
"450 1327 CURVE",
"192 0 LINE",
"545 0 LINE SMOOTH",
"880 0 OFFCURVE",
"1098 151 OFFCURVE",
"1150 418 CURVE SMOOTH",
"1189 621 OFFCURVE",
"1102 762 OFFCURVE",
"911 805 CURVE",
"1082 832 OFFCURVE",
"1189 941 OFFCURVE",
"1225 1124 CURVE SMOOTH",
"1270 1360 OFFCURVE",
"1124 1493 OFFCURVE",
"816 1493 CURVE SMOOTH",
"483 1493 LINE SMOOTH"
);
},
{
closed = 1;
nodes = (
"891 713 OFFCURVE",
"977 627 OFFCURVE",
"941 440 CURVE SMOOTH",
"905 255 OFFCURVE",
"785 166 OFFCURVE",
"568 166 CURVE SMOOTH",
"427 166 LINE",
"533 713 LINE",
"674 713 LINE SMOOTH"
);
}
);
width = 1233;
}
);
note = uni0181;
unicode = 0181;
},
{
glyphname = uni0183;
lastChange = "2018-11-11 15:31:49 +0000";
layers = (
{
layerId = "0E6DE79C-D280-4215-AD87-69B89CD8F3FA";
paths = (
{
closed = 1;
nodes = (
"1063 1372 LINE",
"1099 1556 LINE",
"347 1556 LINE",
"45 0 LINE",
"229 0 LINE",
"256 141 LINE",
"296 30 OFFCURVE",
"389 -29 OFFCURVE",
"522 -29 CURVE SMOOTH",
"793 -29 OFFCURVE",
"1001 194 OFFCURVE",
"1073 563 CURVE SMOOTH",
"1144 927 OFFCURVE",
"1022 1147 OFFCURVE",
"753 1147 CURVE SMOOTH",
"617 1147 OFFCURVE",
"498 1086 OFFCURVE",
"418 977 CURVE",
"495 1372 LINE"
);
},
{
closed = 1;
nodes = (
"688 163 OFFCURVE",
"614 127 OFFCURVE",
"525 127 CURVE SMOOTH",
"346 127 OFFCURVE",
"282 276 OFFCURVE",
"337 559 CURVE SMOOTH",
"393 843 OFFCURVE",
"514 991 OFFCURVE",
"693 991 CURVE SMOOTH",
"782 991 OFFCURVE",
"842 955 OFFCURVE",
"873 882 CURVE SMOOTH",
"936 737 OFFCURVE",
"867 381 OFFCURVE",
"748 236 CURVE SMOOTH"
);
}
);
width = 1233;
}
);
note = uni0183;
unicode = 0183;
},
{
glyphname = uni0184;
lastChange = "2018-11-11 15:31:49 +0000";
layers = (
{
layerId = "0E6DE79C-D280-4215-AD87-69B89CD8F3FA";
paths = (
{
closed = 1;
nodes = (
"873 713 OFFCURVE",
"959 625 OFFCURVE",
"920 430 CURVE SMOOTH",
"884 242 OFFCURVE",
"778 166 OFFCURVE",
"543 166 CURVE SMOOTH",
"304 166 LINE",
"410 713 LINE",
"649 713 LINE SMOOTH"
);
},
{
closed = 1;
nodes = (
"131 1176 LINE",
"253 948 LINE",
"69 0 LINE",
"511 0 LINE SMOOTH",
"686 0 OFFCURVE",
"825 35 OFFCURVE",
"927 104 CURVE SMOOTH",
"1131 241 OFFCURVE",
"1162 538 OFFCURVE",
"1117 671 CURVE SMOOTH",
"1074 798 OFFCURVE",
"928 867 OFFCURVE",
"677 877 CURVE",
"442 877 LINE",
"562 1493 LINE"
);
}
);
width = 1233;
}
);
note = uni0184;
unicode = 0184;
},
{
glyphname = uni0185;
lastChange = "2018-11-11 15:31:49 +0000";
layers = (
{
layerId = "0E6DE79C-D280-4215-AD87-69B89CD8F3FA";
paths = (
{
closed = 1;
nodes = (
"748 163 OFFCURVE",
"674 127 OFFCURVE",
"586 127 CURVE SMOOTH",
"497 127 OFFCURVE",
"436 164 OFFCURVE",
"404 237 CURVE SMOOTH",
"341 384 OFFCURVE",
"410 735 OFFCURVE",
"529 882 CURVE SMOOTH",
"590 955 OFFCURVE",
"665 991 OFFCURVE",
"754 991 CURVE SMOOTH",
"842 991 OFFCURVE",
"902 955 OFFCURVE",
"933 882 CURVE SMOOTH",
"996 737 OFFCURVE",
"927 381 OFFCURVE",
"808 236 CURVE SMOOTH"
);
},
{
closed = 1;
nodes = (
"140 1176 LINE",
"290 948 LINE",
"106 0 LINE",
"290 0 LINE",
"317 141 LINE",
"357 30 OFFCURVE",
"449 -29 OFFCURVE",
"582 -29 CURVE SMOOTH",
"854 -29 OFFCURVE",
"1061 194 OFFCURVE",
"1133 563 CURVE SMOOTH",
"1204 927 OFFCURVE",
"1082 1147 OFFCURVE",
"813 1147 CURVE SMOOTH",
"677 1147 OFFCURVE",
"559 1086 OFFCURVE",
"480 977 CURVE",
"592 1556 LINE"
);
}
);
width = 1233;
}
);
note = uni0185;
unicode = 0185;
},
{
glyphname = uni0186;
lastChange = "2018-11-11 15:31:49 +0000";
layers = (
{
layerId = "0E6DE79C-D280-4215-AD87-69B89CD8F3FA";
paths = (
{
closed = 1;
nodes = (
"96 -2 OFFCURVE",
"197 -29 OFFCURVE",
"318 -29 CURVE SMOOTH",
"701 -29 OFFCURVE",
"977 254 OFFCURVE",
"1073 745 CURVE SMOOTH",
"1168 1233 OFFCURVE",
"1000 1520 OFFCURVE",
"620 1520 CURVE SMOOTH",
"499 1520 OFFCURVE",
"387 1493 OFFCURVE",
"274 1438 CURVE",
"233 1231 LINE",
"348 1312 OFFCURVE",
"473 1356 OFFCURVE",
"588 1356 CURVE SMOOTH",
"851 1356 OFFCURVE",
"942 1154 OFFCURVE",
"862 745 CURVE SMOOTH",
"782 337 OFFCURVE",
"613 135 OFFCURVE",
"350 135 CURVE SMOOTH",
"233 135 OFFCURVE",
"126 179 OFFCURVE",
"45 260 CURVE",
"18 122 OFFCURVE",
"4 53 OFFCURVE",
"4 53 CURVE"
);
}
);
width = 1233;
}
);
note = uni0186;
unicode = 0186;
},
{
glyphname = uni0187;
lastChange = "2018-11-11 15:31:49 +0000";
layers = (
{
layerId = "0E6DE79C-D280-4215-AD87-69B89CD8F3FA";
paths = (
{
closed = 1;
nodes = (
"775 179 OFFCURVE",
"651 135 OFFCURVE",
"534 135 CURVE SMOOTH",
"271 135 OFFCURVE",
"180 337 OFFCURVE",
"259 745 CURVE SMOOTH",
"322 1064 OFFCURVE",
"495 1288 OFFCURVE",
"758 1288 CURVE SMOOTH",
"873 1288 OFFCURVE",
"980 1244 OFFCURVE",
"1064 1163 CURVE",
"1077 1233 LINE SMOOTH",
"1112 1413 OFFCURVE",
"1193 1483 OFFCURVE",
"1305 1483 CURVE",
"1335 1639 LINE",
"1315 1639 LINE SMOOTH",
"1205 1639 OFFCURVE",
"1113 1604 OFFCURVE",
"1040 1533 CURVE SMOOTH",
"1005 1500 OFFCURVE",
"976 1466 OFFCURVE",
"955 1432 CURVE",
"904 1445 OFFCURVE",
"849 1452 OFFCURVE",
"790 1452 CURVE SMOOTH",
"410 1452 OFFCURVE",
"125 1142 OFFCURVE",
"48 745 CURVE SMOOTH",
"-47 254 OFFCURVE",
"119 -29 OFFCURVE",
"502 -29 CURVE SMOOTH",
"623 -29 OFFCURVE",
"735 -2 OFFCURVE",
"848 53 CURVE",
"888 260 LINE"
);
}
);
width = 1233;
}
);
note = uni0187;
unicode = 0187;
},
{
glyphname = uni0188;
lastChange = "2018-11-11 15:31:49 +0000";
layers = (
{
layerId = "0E6DE79C-D280-4215-AD87-69B89CD8F3FA";
paths = (
{
closed = 1;
nodes = (
"770 165 OFFCURVE",
"664 127 OFFCURVE",
"536 127 CURVE SMOOTH",
"307 127 OFFCURVE",
"208 283 OFFCURVE",
"261 559 CURVE SMOOTH",
"316 836 OFFCURVE",
"473 991 OFFCURVE",
"704 991 CURVE SMOOTH",
"828 991 OFFCURVE",
"913 955 OFFCURVE",
"993 868 CURVE",
"1022 1016 LINE SMOOTH",
"1055 1184 OFFCURVE",
"1130 1266 OFFCURVE",
"1250 1266 CURVE",
"1280 1422 LINE",
"1260 1422 LINE SMOOTH",
"1040 1422 OFFCURVE",
"924 1283 OFFCURVE",
"869 1131 CURVE",
"826 1142 OFFCURVE",
"782 1147 OFFCURVE",
"735 1147 CURVE SMOOTH",
"388 1147 OFFCURVE",
"139 927 OFFCURVE",
"68 559 CURVE SMOOTH",
"-4 191 OFFCURVE",
"159 -29 OFFCURVE",
"506 -29 CURVE SMOOTH",
"615 -29 OFFCURVE",
"725 0 OFFCURVE",
"836 57 CURVE",
"873 248 LINE"
);
}
);
width = 1233;
}
);
note = uni0188;
unicode = 0188;
},
{
glyphname = uni018A;
lastChange = "2018-11-11 15:31:49 +0000";
layers = (
{
layerId = "0E6DE79C-D280-4215-AD87-69B89CD8F3FA";
paths = (
{
closed = 1;
nodes = (
"303 1493 OFFCURVE",
"133 1390 OFFCURVE",
"86 1149 CURVE SMOOTH",
"73 1079 LINE",
"229 1079 LINE",
"238 1128 LINE SMOOTH",
"267 1280 OFFCURVE",
"367 1327 OFFCURVE",
"439 1327 CURVE",
"181 0 LINE",
"414 0 LINE SMOOTH",
"870 0 OFFCURVE",
"1125 236 OFFCURVE",
"1225 745 CURVE SMOOTH",
"1324 1257 OFFCURVE",
"1160 1493 OFFCURVE",
"704 1493 CURVE SMOOTH",
"471 1493 LINE SMOOTH"
);
},
{
closed = 1;
nodes = (
"642 1327 LINE",
"668 1327 LINE SMOOTH",
"1009 1327 OFFCURVE",
"1097 1186 OFFCURVE",
"1012 745 CURVE SMOOTH",
"927 308 OFFCURVE",
"782 166 OFFCURVE",
"442 166 CURVE SMOOTH",
"416 166 LINE"
);
}
);
width = 1233;
}
);
note = uni018A;
unicode = 018A;
},
{
glyphname = uni018B;
lastChange = "2018-11-11 15:31:49 +0000";
layers = (
{
layerId = "0E6DE79C-D280-4215-AD87-69B89CD8F3FA";
paths = (
{
closed = 1;
nodes = (
"582 166 LINE SMOOTH",
"347 166 OFFCURVE",
"271 242 OFFCURVE",
"307 430 CURVE SMOOTH",
"346 625 OFFCURVE",
"464 713 OFFCURVE",
"688 713 CURVE SMOOTH",
"927 713 LINE",
"821 166 LINE"
);
},
{
closed = 1;
nodes = (
"959 877 LINE",
"724 877 LINE",
"470 867 OFFCURVE",
"297 798 OFFCURVE",
"204 671 CURVE SMOOTH",
"156 604 OFFCURVE",
"122 517 OFFCURVE",
"101 410 CURVE SMOOTH",
"48 139 OFFCURVE",
"199 0 OFFCURVE",
"550 0 CURVE SMOOTH",
"992 0 LINE",
"1282 1493 LINE",
"380 1493 LINE",
"348 1327 LINE",
"1047 1327 LINE"
);
}
);
width = 1233;
}
);
note = uni018B;
unicode = 018B;
},
{
glyphname = uni018C;
lastChange = "2018-11-11 15:31:49 +0000";
layers = (
{
layerId = "0E6DE79C-D280-4215-AD87-69B89CD8F3FA";
paths = (
{
closed = 1;
nodes = (
"547 166 LINE SMOOTH",
"312 166 OFFCURVE",
"236 242 OFFCURVE",
"272 430 CURVE SMOOTH",
"311 625 OFFCURVE",
"429 713 OFFCURVE",
"653 713 CURVE SMOOTH",
"892 713 LINE",
"786 166 LINE"
);
},
{
closed = 1;
nodes = (
"924 877 LINE",
"689 877 LINE",
"435 867 OFFCURVE",
"262 798 OFFCURVE",
"169 671 CURVE SMOOTH",
"121 604 OFFCURVE",
"87 517 OFFCURVE",
"66 410 CURVE SMOOTH",
"13 139 OFFCURVE",
"164 0 OFFCURVE",
"515 0 CURVE SMOOTH",
"957 0 LINE",
"1247 1493 LINE",
"345 1493 LINE",
"313 1327 LINE",
"1012 1327 LINE"
);
}
);
width = 1233;
}
);
note = uni018C;
unicode = 018C;
},
{
glyphname = uni018D;
lastChange = "2018-11-11 15:31:49 +0000";
layers = (
{
layerId = "0E6DE79C-D280-4215-AD87-69B89CD8F3FA";
paths = (
{
closed = 1;
nodes = (
"501 955 OFFCURVE",
"575 991 OFFCURVE",
"664 991 CURVE SMOOTH",
"843 991 OFFCURVE",
"908 843 OFFCURVE",
"852 559 CURVE SMOOTH",
"797 276 OFFCURVE",
"675 127 OFFCURVE",
"496 127 CURVE SMOOTH",
"407 127 OFFCURVE",
"348 163 OFFCURVE",
"317 236 CURVE SMOOTH",
"255 381 OFFCURVE",
"323 737 OFFCURVE",
"442 882 CURVE SMOOTH"
);
},
{
closed = 1;
nodes = (
"934 977 LINE",
"895 1086 OFFCURVE",
"802 1147 OFFCURVE",
"666 1147 CURVE SMOOTH",
"397 1147 OFFCURVE",
"189 927 OFFCURVE",
"118 563 CURVE SMOOTH",
"46 194 OFFCURVE",
"168 -29 OFFCURVE",
"439 -29 CURVE SMOOTH",
"572 -29 OFFCURVE",
"688 30 OFFCURVE",
"771 141 CURVE",
"744 0 LINE",
"928 0 LINE",
"1230 1556 LINE",
"478 1556 LINE",
"442 1372 LINE",
"1010 1372 LINE"
);
}
);
width = 1233;
}
);
note = uni018D;
unicode = 018D;
},
{
glyphname = uni018E;
lastChange = "2018-11-11 15:31:49 +0000";
layers = (
{
layerId = "0E6DE79C-D280-4215-AD87-69B89CD8F3FA";
paths = (
{
closed = 1;
nodes = (
"328 1323 LINE",
"1012 1323 LINE",
"926 881 LINE",
"272 881 LINE",
"239 711 LINE",
"893 711 LINE",
"788 170 LINE",
"85 170 LINE",
"52 0 LINE",
"957 0 LINE",
"1247 1493 LINE",
"361 1493 LINE"
);
}
);
width = 1233;
}
);
note = uni018E;
unicode = 018E;
},
{
glyphname = uni018F;
lastChange = "2018-11-11 15:31:49 +0000";
layers = (
{
layerId = "0E6DE79C-D280-4215-AD87-69B89CD8F3FA";
paths = (
{
closed = 1;
nodes = (
"16 222 OFFCURVE",
"128 -29 OFFCURVE",
"465 -29 CURVE SMOOTH",
"802 -29 OFFCURVE",
"1015 225 OFFCURVE",
"1116 745 CURVE SMOOTH",
"1217 1266 OFFCURVE",
"1104 1520 OFFCURVE",
"767 1520 CURVE SMOOTH",
"646 1520 OFFCURVE",
"534 1493 OFFCURVE",
"421 1438 CURVE",
"380 1231 LINE",
"495 1312 OFFCURVE",
"620 1356 OFFCURVE",
"735 1356 CURVE SMOOTH",
"940 1356 OFFCURVE",
"979 1180 OFFCURVE",
"920 828 CURVE",
"133 828 LINE",
"117 745 LINE SMOOTH"
);
},
{
closed = 1;
nodes = (
"807 309 OFFCURVE",
"702 135 OFFCURVE",
"497 135 CURVE SMOOTH",
"293 135 OFFCURVE",
"258 311 OFFCURVE",
"310 644 CURVE",
"884 644 LINE"
);
}
);
width = 1233;
}
);
note = uni018F;
unicode = 018F;
},
{
glyphname = uni0190;
lastChange = "2018-11-11 15:31:49 +0000";
layers = (
{
layerId = "0E6DE79C-D280-4215-AD87-69B89CD8F3FA";
paths = (
{
closed = 1;
nodes = (
"245 747 OFFCURVE",
"111 611 OFFCURVE",
"72 412 CURVE SMOOTH",
"19 137 OFFCURVE",
"181 -29 OFFCURVE",
"508 -29 CURVE SMOOTH",
"645 -29 OFFCURVE",
"796 -3 OFFCURVE",
"943 45 CURVE",
"982 246 LINE",
"833 175 OFFCURVE",
"694 141 OFFCURVE",
"563 141 CURVE SMOOTH",
"342 141 OFFCURVE",
"240 244 OFFCURVE",
"276 432 CURVE SMOOTH",
"309 605 OFFCURVE",
"458 715 OFFCURVE",
"661 715 CURVE SMOOTH",
"815 715 LINE",
"847 881 LINE",
"693 881 LINE SMOOTH",
"508 881 OFFCURVE",
"415 967 OFFCURVE",
"443 1112 CURVE SMOOTH",
"474 1265 OFFCURVE",
"590 1350 OFFCURVE",
"769 1350 CURVE SMOOTH",
"888 1350 OFFCURVE",
"1008 1323 OFFCURVE",
"1136 1270 CURVE",
"1172 1456 LINE",
"1019 1499 OFFCURVE",
"899 1520 OFFCURVE",
"802 1520 CURVE SMOOTH",
"511 1520 OFFCURVE",
"292 1361 OFFCURVE",
"245 1120 CURVE SMOOTH",
"213 956 OFFCURVE",
"285 844 OFFCURVE",
"450 799 CURVE"
);
}
);
width = 1233;
}
);
note = uni0190;
unicode = 0190;
},
{
glyphname = uni0191;
lastChange = "2018-11-11 15:31:49 +0000";
layers = (
{
layerId = "0E6DE79C-D280-4215-AD87-69B89CD8F3FA";
paths = (
{
closed = 1;
nodes = (
"240 -188 OFFCURVE",
"165 -270 OFFCURVE",
"45 -270 CURVE SMOOTH",
"-93 -270 LINE",
"-124 -426 LINE",
"52 -426 LINE SMOOTH",
"272 -426 OFFCURVE",
"426 -280 OFFCURVE",
"475 -20 CURVE SMOOTH",
"618 713 LINE",
"1142 713 LINE",
"1175 883 LINE",
"651 883 LINE",
"736 1323 LINE",
"1323 1323 LINE",
"1357 1493 LINE",
"567 1493 LINE",
"272 -20 LINE SMOOTH"
);
}
);
width = 1233;
}
);
note = uni0191;
unicode = 0191;
},
{
glyphname = florin;
lastChange = "2018-11-11 15:31:49 +0000";
layers = (
{
layerId = "0E6DE79C-D280-4215-AD87-69B89CD8F3FA";
paths = (
{
closed = 1;
nodes = (
"1043 1556 LINE",
"1035 1556 LINE SMOOTH",
"904 1556 OFFCURVE",
"813 1522 OFFCURVE",
"754 1470 CURVE SMOOTH",
"684 1409 OFFCURVE",
"637 1318 OFFCURVE",
"614 1198 CURVE SMOOTH",
"599 1120 LINE",
"303 1120 LINE",
"275 977 LINE",
"572 977 LINE",
"380 -20 LINE SMOOTH",
"341 -224 OFFCURVE",
"291 -270 OFFCURVE",
"151 -270 CURVE SMOOTH",
"102 -270 LINE",
"71 -426 LINE",
"141 -426 LINE SMOOTH",
"382 -426 OFFCURVE",
"509 -305 OFFCURVE",
"564 -20 CURVE SMOOTH",
"758 977 LINE",
"1143 977 LINE",
"1171 1120 LINE",
"786 1120 LINE",
"805 1219 LINE SMOOTH",
"832 1356 OFFCURVE",
"884 1403 OFFCURVE",
"1015 1403 CURVE SMOOTH",
"1017 1403 LINE",
"1226 1403 LINE",
"1256 1556 LINE",
"1047 1556 LINE"
);
}
);
width = 1233;
}
);
note = florin;
unicode = 0192;
},
{
glyphname = uni0193;
lastChange = "2018-11-11 15:31:49 +0000";
layers = (
{
layerId = "0E6DE79C-D280-4215-AD87-69B89CD8F3FA";
paths = (
{
closed = 1;
nodes = (
"636 766 LINE",
"604 600 LINE",
"821 600 LINE",
"743 199 LINE",
"679 155 OFFCURVE",
"610 135 OFFCURVE",
"521 135 CURVE SMOOTH",
"257 135 OFFCURVE",
"170 330 OFFCURVE",
"251 745 CURVE SMOOTH",
"330 1153 OFFCURVE",
"501 1356 OFFCURVE",
"764 1356 CURVE SMOOTH",
"891 1356 OFFCURVE",
"992 1309 OFFCURVE",
"1080 1206 CURVE",
"1086 1233 LINE SMOOTH",
"1121 1413 OFFCURVE",
"1201 1483 OFFCURVE",
"1313 1483 CURVE",
"1344 1639 LINE",
"1324 1639 LINE SMOOTH",
"1214 1639 OFFCURVE",
"1122 1604 OFFCURVE",
"1048 1533 CURVE SMOOTH",
"1031 1516 OFFCURVE",
"1015 1499 OFFCURVE",
"1002 1482 CURVE",
"991 1486 OFFCURVE",
"981 1490 OFFCURVE",
"970 1494 CURVE",
"916 1511 OFFCURVE",
"858 1520 OFFCURVE",
"795 1520 CURVE SMOOTH",
"415 1520 OFFCURVE",
"135 1233 OFFCURVE",
"40 745 CURVE SMOOTH",
"-56 256 OFFCURVE",
"110 -29 OFFCURVE",
"489 -29 CURVE SMOOTH",
"646 -29 OFFCURVE",
"793 23 OFFCURVE",
"921 123 CURVE",
"1046 766 LINE"
);
}
);
width = 1233;
}
);
note = uni0193;
unicode = 0193;
},
{
glyphname = uni0194;
lastChange = "2018-11-11 15:31:49 +0000";
layers = (
{
layerId = "0E6DE79C-D280-4215-AD87-69B89CD8F3FA";
paths = (
{
closed = 1;
nodes = (
"1162 1353 LINE",
"681 798 LINE",
"418 1353 LINE",
"201 1353 LINE",
"531 657 LINE",
"239 334 OFFCURVE",
"86 50 OFFCURVE",
"71 -194 CURVE SMOOTH",
"62 -351 OFFCURVE",
"193 -430 OFFCURVE",
"465 -430 CURVE SMOOTH",
"1016 -430 OFFCURVE",
"1087 51 OFFCURVE",
"767 650 CURVE",
"1379 1353 LINE"
);
},
{
closed = 1;
nodes = (
"714 298 OFFCURVE",
"748 90 OFFCURVE",
"707 -130 CURVE SMOOTH",
"690 -222 OFFCURVE",
"613 -268 OFFCURVE",
"476 -268 CURVE SMOOTH",
"334 -268 OFFCURVE",
"271 -222 OFFCURVE",
"287 -130 CURVE SMOOTH",
"324 86 OFFCURVE",
"431 294 OFFCURVE",
"607 495 CURVE"
);
}
);
width = 1233;
}
);
note = uni0194;
unicode = 0194;
},
{
glyphname = uni0195;
lastChange = "2018-11-11 15:31:49 +0000";
layers = (
{
layerId = "0E6DE79C-D280-4215-AD87-69B89CD8F3FA";
paths = (
{
closed = 1;
nodes = (
"798 998 OFFCURVE",
"713 1147 OFFCURVE",
"557 1147 CURVE SMOOTH",
"444 1147 OFFCURVE",
"403 1131 OFFCURVE",
"264 952 CURVE",
"382 1556 LINE",
"216 1556 LINE",
"-86 0 LINE",
"79 0 LINE",
"202 633 LINE SMOOTH",
"247 861 OFFCURVE",
"372 987 OFFCURVE",
"468 987 CURVE SMOOTH",
"512 987 OFFCURVE",
"545 963 OFFCURVE",
"568 916 CURVE SMOOTH",
"590 869 OFFCURVE",
"591 795 OFFCURVE",
"572 694 CURVE SMOOTH",
"516 406 LINE SMOOTH",
"460 121 OFFCURVE",
"542 0 OFFCURVE",
"711 0 CURVE SMOOTH",
"916 0 OFFCURVE",
"1045 149 OFFCURVE",
"1105 453 CURVE SMOOTH",
"1185 864 LINE",
"1018 864 LINE",
"938 453 LINE SMOOTH",
"918 349 OFFCURVE",
"888 275 OFFCURVE",
"847 231 CURVE SMOOTH",
"758 134 OFFCURVE",
"713 135 OFFCURVE",
"677 204 CURVE SMOOTH",
"660 237 OFFCURVE",
"662 304 OFFCURVE",
"682 406 CURVE",
"683 406 LINE",
"739 694 LINE SMOOTH"
);
}
);
width = 1233;
}
);
note = uni0195;
unicode = 0195;
},
{
glyphname = uni0196;
lastChange = "2018-11-11 15:31:49 +0000";
layers = (
{
layerId = "0E6DE79C-D280-4215-AD87-69B89CD8F3FA";
paths = (
{
closed = 1;
nodes = (
"396 142 OFFCURVE",
"493 0 OFFCURVE",
"720 0 CURVE SMOOTH",
"937 0 LINE",
"969 171 LINE",
"784 171 LINE SMOOTH",
"664 171 OFFCURVE",
"621 252 OFFCURVE",
"654 421 CURVE SMOOTH",
"829 1323 LINE",
"1142 1323 LINE",
"1175 1493 LINE",
"346 1493 LINE",
"313 1323 LINE",
"626 1323 LINE",
"448 406 LINE SMOOTH"
);
}
);
width = 1233;
}
);
note = uni0196;
unicode = 0196;
},
{
glyphname = uni0197;
lastChange = "2018-11-11 15:31:49 +0000";
layers = (
{
layerId = "0E6DE79C-D280-4215-AD87-69B89CD8F3FA";
paths = (
{
closed = 1;
nodes = (
"626 1323 LINE",
"514 747 LINE",
"251 747 LINE",
"218 577 LINE",
"481 577 LINE",
"402 170 LINE",
"89 170 LINE",
"56 0 LINE",
"885 0 LINE",
"918 170 LINE",
"605 170 LINE",
"684 577 LINE",
"686 577 LINE",
"951 577 LINE",
"984 747 LINE",
"719 747 LINE",
"717 747 LINE",
"829 1323 LINE",
"1142 1323 LINE",
"1175 1493 LINE",
"346 1493 LINE",
"313 1323 LINE"
);
}
);
width = 1233;
}
);
note = uni0197;
unicode = 0197;
},
{
glyphname = uni0198;
lastChange = "2018-11-11 15:31:49 +0000";
layers = (
{
layerId = "0E6DE79C-D280-4215-AD87-69B89CD8F3FA";
paths = (
{
closed = 1;
nodes = (
"330 829 LINE",
"459 1493 LINE",
"256 1493 LINE",
"-34 0 LINE",
"169 0 LINE",
"282 584 LINE",
"468 748 LINE",
"810 0 LINE",
"1054 0 LINE",
"628 883 LINE",
"825 1055 LINE SMOOTH",
"1000 1208 OFFCURVE",
"1097 1226 OFFCURVE",
"1157 1138 CURVE SMOOTH",
"1183 1101 LINE",
"1311 1215 LINE",
"1274 1266 LINE SMOOTH",
"1162 1418 OFFCURVE",
"991 1407 OFFCURVE",
"732 1180 CURVE SMOOTH"
);
}
);
width = 1233;
}
);
note = uni0198;
unicode = 0198;
},
{
glyphname = uni0199;
lastChange = "2018-11-11 15:31:49 +0000";
layers = (
{
layerId = "0E6DE79C-D280-4215-AD87-69B89CD8F3FA";
paths = (
{
closed = 1;
nodes = (
"275 0 LINE",
"362 449 LINE",
"524 578 LINE",
"826 0 LINE",
"1051 0 LINE",
"676 698 LINE",
"1199 1120 LINE",
"975 1120 LINE",
"402 655 LINE",
"498 1150 LINE",
"493 1150 LINE",
"526 1318 OFFCURVE",
"601 1400 OFFCURVE",
"721 1400 CURVE SMOOTH",
"906 1400 LINE",
"936 1556 LINE",
"731 1556 LINE SMOOTH",
"511 1556 OFFCURVE",
"359 1410 OFFCURVE",
"308 1150 CURVE SMOOTH",
"280 1002 LINE",
"85 0 LINE"
);
}
);
width = 1233;
}
);
note = uni0199;
unicode = 0199;
},
{
glyphname = uni019A;
lastChange = "2018-11-11 15:31:49 +0000";
layers = (
{
layerId = "0E6DE79C-D280-4215-AD87-69B89CD8F3FA";
paths = (
{
closed = 1;
nodes = (
"613 602 LINE",
"834 602 LINE",
"861 744 LINE",
"640 744 LINE",
"631 744 LINE",
"791 1567 LINE",
"312 1567 LINE",
"284 1423 LINE",
"579 1423 LINE",
"447 744 LINE",
"219 744 LINE",
"192 602 LINE",
"420 602 LINE",
"382 406 LINE SMOOTH",
"331 147 OFFCURVE",
"429 0 OFFCURVE",
"649 0 CURVE SMOOTH",
"882 0 LINE",
"912 156 LINE",
"697 156 LINE SMOOTH",
"578 156 OFFCURVE",
"534 241 OFFCURVE",
"566 406 CURVE SMOOTH",
"604 602 LINE"
);
}
);
width = 1233;
}
);
note = uni019A;
unicode = 019A;
},
{
glyphname = uni019B;
lastChange = "2018-11-11 15:31:49 +0000";
layers = (
{
layerId = "0E6DE79C-D280-4215-AD87-69B89CD8F3FA";
paths = (
{
closed = 1;
nodes = (
"405 1493 LINE",
"505 1113 LINE",
"69 847 LINE",
"127 736 LINE",
"538 987 LINE",
"557 913 LINE",
"-45 0 LINE",
"146 0 LINE",
"612 704 LINE",
"797 0 LINE",
"988 0 LINE",
"703 1087 LINE",
"1123 1345 LINE",
"1065 1455 LINE",
"670 1213 LINE",
"596 1493 LINE"
);
}
);
width = 1233;
}
);
note = uni019B;
unicode = 019B;
},
{
glyphname = uni019C;
lastChange = "2018-11-11 15:31:49 +0000";
layers = (
{
layerId = "0E6DE79C-D280-4215-AD87-69B89CD8F3FA";
paths = (
{
closed = 1;
nodes = (
"467 19 OFFCURVE",
"524 -27 OFFCURVE",
"625 -27 CURVE SMOOTH",
"709 -27 OFFCURVE",
"785 16 OFFCURVE",
"844 96 CURVE",
"826 0 LINE",
"993 0 LINE",
"1283 1493 LINE",
"1116 1493 LINE",
"919 479 LINE SMOOTH",
"889 326 OFFCURVE",
"861 230 OFFCURVE",
"834 189 CURVE SMOOTH",
"807 148 OFFCURVE",
"769 127 OFFCURVE",
"720 127 CURVE SMOOTH",
"671 127 OFFCURVE",
"640 146 OFFCURVE",
"629 183 CURVE SMOOTH",
"617 220 OFFCURVE",
"627 319 OFFCURVE",
"658 479 CURVE SMOOTH",
"855 1493 LINE",
"687 1493 LINE",
"490 479 LINE SMOOTH",
"460 326 OFFCURVE",
"431 230 OFFCURVE",
"404 189 CURVE SMOOTH",
"376 148 OFFCURVE",
"335 127 OFFCURVE",
"282 127 CURVE SMOOTH",
"235 127 OFFCURVE",
"207 146 OFFCURVE",
"197 185 CURVE SMOOTH",
"187 223 OFFCURVE",
"197 321 OFFCURVE",
"228 479 CURVE SMOOTH",
"425 1493 LINE",
"257 1493 LINE",
"58 471 LINE SMOOTH",
"21 278 OFFCURVE",
"14 147 OFFCURVE",
"37 78 CURVE SMOOTH",
"60 8 OFFCURVE",
"117 -27 OFFCURVE",
"207 -27 CURVE SMOOTH",
"306 -27 OFFCURVE",
"384 18 OFFCURVE",
"448 114 CURVE"
);
}
);
width = 1233;
}
);
note = uni019C;
unicode = 019C;
},
{
glyphname = uni019D;
lastChange = "2018-11-11 15:31:49 +0000";
layers = (
{
layerId = "0E6DE79C-D280-4215-AD87-69B89CD8F3FA";
paths = (
{
closed = 1;
nodes = (
"50 -188 OFFCURVE",
"-19 -270 OFFCURVE",
"-127 -270 CURVE",
"-158 -426 LINE",
"-131 -426 LINE SMOOTH",
"68 -426 OFFCURVE",
"207 -280 OFFCURVE",
"258 -20 CURVE SMOOTH",
"501 1229 LINE",
"715 0 LINE",
"946 0 LINE",
"1236 1493 LINE",
"1061 1493 LINE",
"822 264 LINE",
"607 1493 LINE",
"377 1493 LINE",
"82 -20 LINE SMOOTH"
);
}
);
width = 1233;
}
);
note = uni019D;
unicode = 019D;
},
{
glyphname = uni019E;
lastChange = "2018-11-11 15:31:49 +0000";
layers = (
{
layerId = "0E6DE79C-D280-4215-AD87-69B89CD8F3FA";
paths = (
{
closed = 1;
nodes = (
"1176 998 OFFCURVE",
"1092 1147 OFFCURVE",
"864 1147 CURVE SMOOTH",
"711 1147 OFFCURVE",
"585 1080 OFFCURVE",
"494 952 CURVE",
"527 1120 LINE",
"343 1120 LINE",
"125 0 LINE",
"309 0 LINE",
"432 633 LINE SMOOTH",
"477 861 OFFCURVE",
"597 987 OFFCURVE",
"769 987 CURVE SMOOTH",
"920 987 OFFCURVE",
"971 895 OFFCURVE",
"931 694 CURVE SMOOTH",
"713 -430 LINE",
"898 -430 LINE",
"1116 694 LINE SMOOTH"
);
}
);
width = 1233;
}
);
note = uni019E;
unicode = 019E;
},
{
glyphname = uni019F;
lastChange = "2018-11-11 15:31:49 +0000";
layers = (
{
layerId = "0E6DE79C-D280-4215-AD87-69B89CD8F3FA";
paths = (
{
closed = 1;
nodes = (
"1217 1266 OFFCURVE",
"1104 1520 OFFCURVE",
"767 1520 CURVE SMOOTH",
"431 1520 OFFCURVE",
"218 1266 OFFCURVE",
"117 745 CURVE SMOOTH",
"16 222 OFFCURVE",
"128 -29 OFFCURVE",
"465 -29 CURVE SMOOTH",
"802 -29 OFFCURVE",
"1015 225 OFFCURVE",
"1116 745 CURVE SMOOTH"
);
},
{
closed = 1;
nodes = (
"424 1180 OFFCURVE",
"531 1356 OFFCURVE",
"735 1356 CURVE SMOOTH",
"940 1356 OFFCURVE",
"979 1180 OFFCURVE",
"920 828 CURVE",
"345 828 LINE"
);
},
{
closed = 1;
nodes = (
"807 309 OFFCURVE",
"702 135 OFFCURVE",
"497 135 CURVE SMOOTH",
"293 135 OFFCURVE",
"258 311 OFFCURVE",
"310 644 CURVE",
"884 644 LINE"
);
}
);
width = 1233;
}
);
note = uni019F;
unicode = 019F;
},
{
glyphname = uni01A2;
lastChange = "2018-11-11 15:31:49 +0000";
layers = (
{
layerId = "0E6DE79C-D280-4215-AD87-69B89CD8F3FA";
paths = (
{
closed = 1;
nodes = (
"-58 222 OFFCURVE",
"40 -29 OFFCURVE",
"344 -29 CURVE SMOOTH",
"495 -29 OFFCURVE",
"620 35 OFFCURVE",
"719 163 CURVE",
"896 1069 LINE",
"1107 1229 LINE",
"868 0 LINE",
"1043 0 LINE",
"1334 1493 LINE",
"1103 1493 LINE",
"931 1362 LINE",
"878 1467 OFFCURVE",
"782 1520 OFFCURVE",
"644 1520 CURVE SMOOTH",
"603 1520 OFFCURVE",
"563 1515 OFFCURVE",
"526 1506 CURVE SMOOTH",
"292 1447 OFFCURVE",
"132 1193 OFFCURVE",
"45 745 CURVE SMOOTH"
);
},
{
closed = 1;
nodes = (
"543 182 OFFCURVE",
"468 135 OFFCURVE",
"375 135 CURVE SMOOTH",
"284 135 OFFCURVE",
"227 182 OFFCURVE",
"205 276 CURVE SMOOTH",
"160 464 OFFCURVE",
"270 1027 OFFCURVE",
"387 1215 CURVE SMOOTH",
"446 1309 OFFCURVE",
"521 1356 OFFCURVE",
"613 1356 CURVE SMOOTH",
"705 1356 OFFCURVE",
"762 1309 OFFCURVE",
"784 1215 CURVE",
"602 276 LINE"
);
}
);
width = 1233;
}
);
note = uni01A2;
unicode = 01A2;
},
{
glyphname = uni01A3;
lastChange = "2018-11-11 15:31:49 +0000";
layers = (
{
layerId = "0E6DE79C-D280-4215-AD87-69B89CD8F3FA";
paths = (
{
closed = 1;
nodes = (
"60 220 OFFCURVE",
"129 -29 OFFCURVE",
"442 -29 CURVE SMOOTH",
"582 -29 OFFCURVE",
"699 21 OFFCURVE",
"792 122 CURVE",
"893 642 LINE",
"1105 799 LINE",
"866 -430 LINE",
"1042 -430 LINE",
"1332 1063 LINE",
"1101 1063 LINE",
"954 953 LINE",
"962 996 LINE",
"907 1097 OFFCURVE",
"810 1147 OFFCURVE",
"670 1147 CURVE SMOOTH",
"603 1147 OFFCURVE",
"540 1135 OFFCURVE",
"482 1110 CURVE SMOOTH",
"301 1033 OFFCURVE",
"182 850 OFFCURVE",
"125 559 CURVE SMOOTH"
);
},
{
closed = 1;
nodes = (
"311 612 OFFCURVE",
"323 661 OFFCURVE",
"338 705 CURVE SMOOTH",
"402 896 OFFCURVE",
"503 991 OFFCURVE",
"640 991 CURVE SMOOTH",
"725 991 OFFCURVE",
"782 955 OFFCURVE",
"811 882 CURVE",
"685 236 LINE",
"628 163 OFFCURVE",
"557 127 OFFCURVE",
"472 127 CURVE SMOOTH",
"458 127 OFFCURVE",
"445 128 OFFCURVE",
"433 130 CURVE SMOOTH",
"294 153 OFFCURVE",
"250 296 OFFCURVE",
"301 559 CURVE SMOOTH"
);
}
);
width = 1233;
}
);
note = uni01A3;
unicode = 01A3;
},
{
glyphname = uni01A4;
lastChange = "2018-11-11 15:31:49 +0000";
layers = (
{
layerId = "0E6DE79C-D280-4215-AD87-69B89CD8F3FA";
paths = (
{
closed = 1;
nodes = (
"1247 1104 OFFCURVE",
"1250 1155 OFFCURVE",
"1246 1201 CURVE SMOOTH",
"1229 1396 OFFCURVE",
"1085 1493 OFFCURVE",
"814 1493 CURVE SMOOTH",
"519 1493 LINE SMOOTH",
"351 1493 OFFCURVE",
"181 1390 OFFCURVE",
"134 1149 CURVE SMOOTH",
"120 1079 LINE",
"276 1079 LINE",
"286 1128 LINE SMOOTH",
"315 1280 OFFCURVE",
"415 1327 OFFCURVE",
"487 1327 CURVE",
"229 0 LINE",
"431 0 LINE",
"547 600 LINE",
"641 600 LINE SMOOTH",
"714 600 OFFCURVE",
"780 607 OFFCURVE",
"841 622 CURVE SMOOTH",
"1059 673 OFFCURVE",
"1191 815 OFFCURVE",
"1236 1047 CURVE SMOOTH"
);
},
{
closed = 1;
nodes = (
"689 1327 LINE",
"782 1327 LINE SMOOTH",
"876 1327 OFFCURVE",
"944 1303 OFFCURVE",
"987 1254 CURVE SMOOTH",
"1072 1156 OFFCURVE",
"1022 998 OFFCURVE",
"978 923 CURVE SMOOTH",
"915 818 OFFCURVE",
"814 766 OFFCURVE",
"673 766 CURVE SMOOTH",
"580 766 LINE"
);
}
);
width = 1233;
}
);
note = uni01A4;
unicode = 01A4;
},
{
glyphname = uni01A5;
lastChange = "2018-11-11 15:31:49 +0000";
layers = (
{
layerId = "0E6DE79C-D280-4215-AD87-69B89CD8F3FA";
paths = (
{
closed = 1;
nodes = (
"397 618 OFFCURVE",
"412 671 OFFCURVE",
"429 718 CURVE SMOOTH",
"494 900 OFFCURVE",
"599 991 OFFCURVE",
"742 991 CURVE SMOOTH",
"747 991 OFFCURVE",
"753 991 OFFCURVE",
"759 991 CURVE",
"924 982 OFFCURVE",
"980 838 OFFCURVE",
"926 559 CURVE SMOOTH",
"870 274 OFFCURVE",
"751 127 OFFCURVE",
"574 127 CURVE SMOOTH",
"551 127 OFFCURVE",
"531 129 OFFCURVE",
"512 134 CURVE SMOOTH",
"379 167 OFFCURVE",
"337 309 OFFCURVE",
"386 559 CURVE SMOOTH"
);
},
{
closed = 1;
nodes = (
"479 1036 OFFCURVE",
"481 1046 OFFCURVE",
"483 1055 CURVE SMOOTH",
"518 1202 OFFCURVE",
"592 1276 OFFCURVE",
"704 1276 CURVE SMOOTH",
"889 1276 LINE",
"920 1432 LINE",
"715 1432 LINE SMOOTH",
"663 1432 OFFCURVE",
"614 1424 OFFCURVE",
"569 1407 CURVE SMOOTH",
"423 1354 OFFCURVE",
"331 1227 OFFCURVE",
"292 1026 CURVE SMOOTH",
"9 -426 LINE",
"194 -426 LINE",
"305 141 LINE",
"342 30 OFFCURVE",
"435 -29 OFFCURVE",
"571 -29 CURVE SMOOTH",
"840 -29 OFFCURVE",
"1047 191 OFFCURVE",
"1118 555 CURVE SMOOTH",
"1190 926 OFFCURVE",
"1070 1147 OFFCURVE",
"799 1147 CURVE SMOOTH",
"794 1147 OFFCURVE",
"790 1147 OFFCURVE",
"785 1147 CURVE SMOOTH",
"655 1143 OFFCURVE",
"549 1086 OFFCURVE",
"467 977 CURVE",
"477 1026 LINE SMOOTH"
);
}
);
width = 1233;
}
);
note = uni01A5;
unicode = 01A5;
},
{
glyphname = uni01A6;
lastChange = "2018-11-11 15:31:49 +0000";
layers = (
{
layerId = "0E6DE79C-D280-4215-AD87-69B89CD8F3FA";
paths = (
{
closed = 1;
nodes = (
"926 469 OFFCURVE",
"1114 615 OFFCURVE",
"1114 904 CURVE SMOOTH",
"1114 1081 OFFCURVE",
"1006 1229 OFFCURVE",
"678 1229 CURVE SMOOTH",
"465 1229 LINE",
"517 1493 LINE",
"314 1493 LINE",
"24 0 LINE",
"227 0 LINE",
"298 367 LINE",
"491 367 LINE SMOOTH",
"623 367 OFFCURVE",
"680 328 OFFCURVE",
"741 113 CURVE SMOOTH",
"845 -264 LINE",
"1062 -264 LINE",
"939 144 LINE SMOOTH",
"871 367 OFFCURVE",
"825 414 OFFCURVE",
"726 441 CURVE"
);
},
{
closed = 1;
nodes = (
"838 1063 OFFCURVE",
"897 973 OFFCURVE",
"897 866 CURVE SMOOTH",
"897 845 OFFCURVE",
"894 822 OFFCURVE",
"889 797 CURVE SMOOTH",
"855 621 OFFCURVE",
"742 533 OFFCURVE",
"551 533 CURVE SMOOTH",
"330 533 LINE",
"433 1063 LINE",
"646 1063 LINE SMOOTH"
);
}
);
width = 1233;
}
);
note = uni01A6;
unicode = 01A6;
},
{
glyphname = uni01A7;
lastChange = "2018-11-11 15:31:49 +0000";
layers = (
{
layerId = "0E6DE79C-D280-4215-AD87-69B89CD8F3FA";
paths = (
{
closed = 1;
nodes = (
"458 1316 OFFCURVE",
"590 1356 OFFCURVE",
"715 1356 CURVE SMOOTH",
"906 1356 OFFCURVE",
"1005 1261 OFFCURVE",
"976 1110 CURVE SMOOTH",
"951 978 OFFCURVE",
"879 919 OFFCURVE",
"672 872 CURVE SMOOTH",
"561 848 LINE SMOOTH",
"268 783 OFFCURVE",
"121 649 OFFCURVE",
"73 408 CURVE SMOOTH",
"18 124 OFFCURVE",
"168 -29 OFFCURVE",
"504 -29 CURVE SMOOTH",
"644 -29 OFFCURVE",
"791 1 OFFCURVE",
"946 61 CURVE",
"988 276 LINE",
"816 179 OFFCURVE",
"675 135 OFFCURVE",
"536 135 CURVE SMOOTH",
"332 135 OFFCURVE",
"232 231 OFFCURVE",
"264 395 CURVE SMOOTH",
"293 544 OFFCURVE",
"376 614 OFFCURVE",
"577 657 CURVE SMOOTH",
"690 682 LINE SMOOTH",
"979 745 OFFCURVE",
"1122 866 OFFCURVE",
"1163 1079 CURVE SMOOTH",
"1215 1346 OFFCURVE",
"1054 1520 OFFCURVE",
"757 1520 CURVE SMOOTH",
"642 1520 OFFCURVE",
"511 1494 OFFCURVE",
"360 1442 CURVE",
"321 1237 LINE"
);
}
);
width = 1233;
}
);
note = uni01A7;
unicode = 01A7;
},
{
glyphname = uni01A8;
lastChange = "2018-11-11 15:31:49 +0000";
layers = (
{
layerId = "0E6DE79C-D280-4215-AD87-69B89CD8F3FA";
paths = (
{
closed = 1;
nodes = (
"453 962 OFFCURVE",
"565 993 OFFCURVE",
"676 993 CURVE SMOOTH",
"759 993 OFFCURVE",
"819 980 OFFCURVE",
"855 953 CURVE SMOOTH",
"927 899 OFFCURVE",
"896 766 OFFCURVE",
"825 717 CURVE SMOOTH",
"790 692 OFFCURVE",
"709 668 OFFCURVE",
"582 645 CURVE SMOOTH",
"505 631 LINE SMOOTH",
"316 596 OFFCURVE",
"200 491 OFFCURVE",
"167 324 CURVE SMOOTH",
"124 103 OFFCURVE",
"265 -29 OFFCURVE",
"545 -29 CURVE SMOOTH",
"656 -29 OFFCURVE",
"780 -6 OFFCURVE",
"929 41 CURVE",
"966 231 LINE",
"815 160 OFFCURVE",
"683 125 OFFCURVE",
"571 125 CURVE SMOOTH",
"408 125 OFFCURVE",
"328 194 OFFCURVE",
"351 313 CURVE SMOOTH",
"368 398 OFFCURVE",
"461 457 OFFCURVE",
"631 490 CURVE",
"639 492 LINE",
"711 506 LINE SMOOTH",
"931 547 OFFCURVE",
"1042 642 OFFCURVE",
"1075 811 CURVE SMOOTH",
"1116 1026 OFFCURVE",
"989 1147 OFFCURVE",
"720 1147 CURVE SMOOTH",
"600 1147 OFFCURVE",
"487 1125 OFFCURVE",
"371 1081 CURVE",
"336 901 LINE"
);
}
);
width = 1233;
}
);
note = uni01A8;
unicode = 01A8;
},
{
glyphname = uni01AA;
lastChange = "2018-11-11 15:31:49 +0000";
layers = (
{
layerId = "0E6DE79C-D280-4215-AD87-69B89CD8F3FA";
paths = (
{
closed = 1;
nodes = (
"370 1284 OFFCURVE",
"397 1400 OFFCURVE",
"562 1400 CURVE SMOOTH",
"635 1400 OFFCURVE",
"680 1384 OFFCURVE",
"696 1352 CURVE",
"705 1337 OFFCURVE",
"709 1314 OFFCURVE",
"708 1284 CURVE",
"529 1284 LINE SMOOTH"
);
},
{
closed = 1;
nodes = (
"1086 1285 LINE",
"895 1285 LINE",
"900 1433 OFFCURVE",
"854 1556 OFFCURVE",
"614 1556 CURVE SMOOTH",
"210 1556 OFFCURVE",
"138 1130 OFFCURVE",
"498 1130 CURVE SMOOTH",
"688 1130 LINE",
"455 -68 LINE SMOOTH",
"408 -308 OFFCURVE",
"489 -426 OFFCURVE",
"748 -426 CURVE SMOOTH",
"922 -426 LINE",
"952 -273 LINE",
"776 -273 LINE SMOOTH",
"643 -273 OFFCURVE",
"609 -226 OFFCURVE",
"636 -89 CURVE SMOOTH",
"875 1130 LINE",
"1056 1130 LINE"
);
}
);
width = 1233;
}
);
note = uni01AA;
unicode = 01AA;
},
{
glyphname = uni01AB;
lastChange = "2018-11-11 15:31:49 +0000";
layers = (
{
layerId = "0E6DE79C-D280-4215-AD87-69B89CD8F3FA";
paths = (
{
closed = 1;
nodes = (
"549 1120 LINE",
"250 1120 LINE",
"223 977 LINE",
"522 977 LINE",
"403 369 LINE SMOOTH",
"351 98 OFFCURVE",
"433 0 OFFCURVE",
"709 0 CURVE SMOOTH",
"749 0 LINE",
"745 -20 LINE SMOOTH",
"712 -188 OFFCURVE",
"637 -270 OFFCURVE",
"517 -270 CURVE SMOOTH",
"332 -270 LINE",
"302 -426 LINE",
"507 -426 LINE SMOOTH",
"727 -426 OFFCURVE",
"879 -280 OFFCURVE",
"930 -20 CURVE SMOOTH",
"934 0 LINE",
"962 147 LINE",
"755 147 LINE SMOOTH",
"599 147 OFFCURVE",
"555 204 OFFCURVE",
"587 369 CURVE SMOOTH",
"706 977 LINE",
"1124 977 LINE",
"1151 1120 LINE",
"733 1120 LINE",
"795 1438 LINE",
"611 1438 LINE"
);
}
);
width = 1233;
}
);
note = uni01AB;
unicode = 01AB;
},
{
glyphname = uni01AC;
lastChange = "2018-11-11 15:31:49 +0000";
layers = (
{
layerId = "0E6DE79C-D280-4215-AD87-69B89CD8F3FA";
paths = (
{
closed = 1;
nodes = (
"371 0 LINE",
"574 0 LINE",
"831 1323 LINE",
"1298 1323 LINE",
"1331 1493 LINE",
"598 1493 LINE SMOOTH",
"313 1493 OFFCURVE",
"172 1390 OFFCURVE",
"125 1149 CURVE SMOOTH",
"112 1079 LINE",
"268 1079 LINE",
"277 1128 LINE SMOOTH",
"306 1280 OFFCURVE",
"394 1338 OFFCURVE",
"566 1327 CURVE SMOOTH",
"628 1323 LINE"
);
}
);
width = 1233;
}
);
note = uni01AC;
unicode = 01AC;
},
{
glyphname = uni01AD;
lastChange = "2018-11-11 15:31:49 +0000";
layers = (
{
layerId = "0E6DE79C-D280-4215-AD87-69B89CD8F3FA";
paths = (
{
closed = 1;
nodes = (
"719 1318 OFFCURVE",
"794 1400 OFFCURVE",
"914 1400 CURVE SMOOTH",
"1099 1400 LINE",
"1129 1556 LINE",
"924 1556 LINE SMOOTH",
"704 1556 OFFCURVE",
"552 1410 OFFCURVE",
"501 1150 CURVE SMOOTH",
"495 1120 LINE",
"197 1120 LINE",
"170 977 LINE",
"469 977 LINE",
"350 369 LINE SMOOTH",
"298 98 OFFCURVE",
"380 0 OFFCURVE",
"656 0 CURVE SMOOTH",
"881 0 LINE",
"909 147 LINE",
"702 147 LINE SMOOTH",
"546 147 OFFCURVE",
"502 204 OFFCURVE",
"534 369 CURVE SMOOTH",
"653 977 LINE",
"1071 977 LINE",
"1098 1120 LINE",
"680 1120 LINE",
"686 1150 LINE SMOOTH"
);
}
);
width = 1233;
}
);
note = uni01AD;
unicode = 01AD;
},
{
glyphname = uni01AE;
lastChange = "2018-11-11 15:31:49 +0000";
layers = (
{
layerId = "0E6DE79C-D280-4215-AD87-69B89CD8F3FA";
paths = (
{
closed = 1;
nodes = (
"560 -89 OFFCURVE",
"564 -57 OFFCURVE",
"571 -20 CURVE SMOOTH",
"832 1323 LINE",
"1299 1323 LINE",
"1332 1493 LINE",
"193 1493 LINE",
"160 1323 LINE",
"629 1323 LINE",
"368 -20 LINE SMOOTH",
"359 -66 OFFCURVE",
"354 -116 OFFCURVE",
"354 -170 CURVE SMOOTH",
"354 -279 OFFCURVE",
"413 -426 OFFCURVE",
"633 -426 CURVE SMOOTH",
"856 -426 LINE",
"886 -270 LINE",
"701 -270 LINE SMOOTH",
"607 -270 OFFCURVE",
"560 -219 OFFCURVE",
"560 -117 CURVE SMOOTH"
);
}
);
width = 1233;
}
);
note = uni01AE;
unicode = 01AE;
},
{
glyphname = uni01B1;
lastChange = "2018-11-11 15:31:49 +0000";
layers = (
{
layerId = "0E6DE79C-D280-4215-AD87-69B89CD8F3FA";
paths = (
{
closed = 1;
nodes = (
"804 1288 LINE",
"945 1187 OFFCURVE",
"994 957 OFFCURVE",
"937 661 CURVE SMOOTH",
"877 354 OFFCURVE",
"712 166 OFFCURVE",
"507 166 CURVE SMOOTH",
"302 166 OFFCURVE",
"210 354 OFFCURVE",
"270 661 CURVE SMOOTH",
"327 957 OFFCURVE",
"466 1187 OFFCURVE",
"645 1288 CURVE",
"679 1460 LINE",
"216 1460 LINE",
"182 1288 LINE",
"430 1288 LINE",
"233 1111 OFFCURVE",
"126 929 OFFCURVE",
"78 678 CURVE SMOOTH",
"-3 262 OFFCURVE",
"154 0 OFFCURVE",
"477 0 CURVE SMOOTH",
"797 0 OFFCURVE",
"1056 263 OFFCURVE",
"1137 678 CURVE SMOOTH",
"1185 929 OFFCURVE",
"1151 1109 OFFCURVE",
"1022 1288 CURVE",
"1267 1288 LINE",
"1301 1460 LINE",
"838 1460 LINE"
);
}
);
width = 1233;
}
);
note = uni01B1;
unicode = 01B1;
},
{
glyphname = uni01B2;
lastChange = "2018-11-11 15:31:49 +0000";
layers = (
{
layerId = "0E6DE79C-D280-4215-AD87-69B89CD8F3FA";
paths = (
{
closed = 1;
nodes = (
"719 0 OFFCURVE",
"974 268 OFFCURVE",
"1054 683 CURVE SMOOTH",
"1103 934 OFFCURVE",
"1069 1114 OFFCURVE",
"940 1293 CURVE",
"722 1293 LINE",
"862 1192 OFFCURVE",
"911 962 OFFCURVE",
"854 666 CURVE SMOOTH",
"794 359 OFFCURVE",
"630 171 OFFCURVE",
"425 171 CURVE SMOOTH",
"305 171 OFFCURVE",
"262 253 OFFCURVE",
"294 421 CURVE SMOOTH",
"503 1493 LINE",
"300 1493 LINE",
"88 406 LINE SMOOTH",
"37 142 OFFCURVE",
"135 0 OFFCURVE",
"360 0 CURVE SMOOTH"
);
}
);
width = 1233;
}
);
note = uni01B2;
unicode = 01B2;
},
{
glyphname = uni01B3;
lastChange = "2018-11-11 15:31:49 +0000";
layers = (
{
layerId = "0E6DE79C-D280-4215-AD87-69B89CD8F3FA";
paths = (
{
closed = 1;
nodes = (
"1020 1237 OFFCURVE",
"1074 1293 OFFCURVE",
"1111 1309 CURVE",
"1134 1320 OFFCURVE",
"1155 1325 OFFCURVE",
"1174 1325 CURVE SMOOTH",
"1201 1325 OFFCURVE",
"1223 1315 OFFCURVE",
"1241 1294 CURVE SMOOTH",
"1249 1285 LINE",
"1347 1419 LINE",
"1325 1438 LINE SMOOTH",
"1283 1476 OFFCURVE",
"1235 1495 OFFCURVE",
"1182 1495 CURVE SMOOTH",
"1152 1495 OFFCURVE",
"1120 1489 OFFCURVE",
"1087 1477 CURVE SMOOTH",
"1009 1449 OFFCURVE",
"924 1368 OFFCURVE",
"831 1235 CURVE SMOOTH",
"555 834 LINE",
"355 1493 LINE",
"162 1493 LINE",
"431 670 LINE",
"301 0 LINE",
"483 0 LINE",
"614 670 LINE",
"951 1140 LINE SMOOTH"
);
}
);
width = 1233;
}
);
note = uni01B3;
unicode = 01B3;
},
{
glyphname = uni01B4;
lastChange = "2018-11-11 15:31:49 +0000";
layers = (
{
layerId = "0E6DE79C-D280-4215-AD87-69B89CD8F3FA";
paths = (
{
closed = 1;
nodes = (
"1171 969 OFFCURVE",
"1209 979 OFFCURVE",
"1261 958 CURVE SMOOTH",
"1288 948 LINE",
"1369 1095 LINE",
"1325 1112 LINE SMOOTH",
"1184 1167 OFFCURVE",
"1062 1111 OFFCURVE",
"963 943 CURVE SMOOTH",
"548 244 LINE",
"368 1120 LINE",
"173 1120 LINE",
"412 18 LINE",
"363 -66 LINE SMOOTH",
"259 -245 OFFCURVE",
"212 -272 OFFCURVE",
"111 -272 CURVE SMOOTH",
"3 -272 LINE",
"-26 -426 LINE",
"121 -426 LINE SMOOTH",
"286 -426 OFFCURVE",
"373 -375 OFFCURVE",
"533 -104 CURVE SMOOTH",
"1147 928 LINE SMOOTH"
);
}
);
width = 1233;
}
);
note = uni01B4;
unicode = 01B4;
},
{
glyphname = uni01B5;
lastChange = "2018-11-11 15:31:49 +0000";
layers = (
{
layerId = "0E6DE79C-D280-4215-AD87-69B89CD8F3FA";
paths = (
{
closed = 1;
nodes = (
"1027 1323 LINE",
"541 747 LINE",
"251 747 LINE",
"218 577 LINE",
"398 577 LINE",
"41 154 LINE",
"11 0 LINE",
"1024 0 LINE",
"1057 170 LINE",
"255 170 LINE",
"606 577 LINE",
"686 577 LINE",
"951 577 LINE",
"984 747 LINE",
"752 747 LINE",
"1262 1339 LINE",
"1292 1493 LINE",
"323 1493 LINE",
"290 1323 LINE"
);
}
);
width = 1233;
}
);
note = uni01B5;
unicode = 01B5;
},
{
glyphname = uni01B6;
lastChange = "2018-11-11 15:31:49 +0000";
layers = (
{
layerId = "0E6DE79C-D280-4215-AD87-69B89CD8F3FA";
paths = (
{
closed = 1;
nodes = (
"921 975 LINE",
"565 616 LINE",
"167 616 LINE",
"135 452 LINE",
"402 452 LINE",
"122 170 LINE",
"89 0 LINE",
"926 0 LINE",
"955 150 LINE",
"312 150 LINE",
"612 452 LINE",
"702 452 LINE",
"1056 452 LINE",
"1087 616 LINE",
"775 616 LINE",
"1111 954 LINE",
"1144 1122 LINE",
"331 1122 LINE",
"302 975 LINE"
);
}
);
width = 1233;
}
);
note = uni01B6;
unicode = 01B6;
},
{
glyphname = uni01B7;
lastChange = "2018-11-11 15:31:49 +0000";
layers = (
{
layerId = "0E6DE79C-D280-4215-AD87-69B89CD8F3FA";
paths = (
{
closed = 1;
nodes = (
"-88 140 OFFCURVE",
"86 -28 OFFCURVE",
"475 -28 CURVE SMOOTH",
"662 -28 OFFCURVE",
"814 12 OFFCURVE",
"931 93 CURVE SMOOTH",
"1165 254 OFFCURVE",
"1196 538 OFFCURVE",
"1115 677 CURVE SMOOTH",
"1028 821 OFFCURVE",
"877 884 OFFCURVE",
"737 884 CURVE",
"1199 1325 LINE",
"1231 1493 LINE",
"262 1493 LINE",
"229 1323 LINE",
"966 1323 LINE",
"511 882 LINE",
"478 716 LINE",
"652 716 LINE SMOOTH",
"872 716 OFFCURVE",
"983 614 OFFCURVE",
"948 435 CURVE SMOOTH",
"911 244 OFFCURVE",
"754 142 OFFCURVE",
"502 142 CURVE SMOOTH",
"249 142 OFFCURVE",
"133 244 OFFCURVE",
"170 435 CURVE",
"-31 435 LINE"
);
}
);
width = 1233;
}
);
note = uni01B7;
unicode = 01B7;
},
{
glyphname = uni01B8;
lastChange = "2018-11-11 15:31:49 +0000";
layers = (
{
layerId = "0E6DE79C-D280-4215-AD87-69B89CD8F3FA";
paths = (
{
closed = 1;
nodes = (
"911 244 OFFCURVE",
"754 142 OFFCURVE",
"502 142 CURVE SMOOTH",
"249 142 OFFCURVE",
"133 244 OFFCURVE",
"170 435 CURVE SMOOTH",
"205 614 OFFCURVE",
"354 716 OFFCURVE",
"574 716 CURVE SMOOTH",
"748 716 LINE",
"781 882 LINE",
"496 1323 LINE",
"1233 1323 LINE",
"1266 1493 LINE",
"297 1493 LINE",
"265 1325 LINE",
"555 884 LINE",
"485 884 OFFCURVE",
"403 865 OFFCURVE",
"310 828 CURVE SMOOTH",
"167 771 OFFCURVE",
"4 619 OFFCURVE",
"-31 435 CURVE SMOOTH",
"-88 140 OFFCURVE",
"90 -28 OFFCURVE",
"463 -28 CURVE SMOOTH",
"852 -28 OFFCURVE",
"1092 140 OFFCURVE",
"1149 435 CURVE",
"948 435 LINE"
);
}
);
width = 1233;
}
);
note = uni01B8;
unicode = 01B8;
},
{
glyphname = uni01B9;
lastChange = "2018-11-11 15:31:49 +0000";
layers = (
{
layerId = "0E6DE79C-D280-4215-AD87-69B89CD8F3FA";
paths = (
{
closed = 1;
nodes = (
"605 476 OFFCURVE",
"520 457 OFFCURVE",
"420 420 CURVE SMOOTH",
"268 364 OFFCURVE",
"74 211 OFFCURVE",
"3 27 CURVE SMOOTH",
"-112 -268 OFFCURVE",
"34 -436 OFFCURVE",
"407 -436 CURVE SMOOTH",
"532 -436 OFFCURVE",
"674 -411 OFFCURVE",
"834 -362 CURVE",
"910 -167 LINE",
"773 -232 OFFCURVE",
"624 -266 OFFCURVE",
"479 -266 CURVE SMOOTH",
"226 -266 OFFCURVE",
"129 -164 OFFCURVE",
"204 27 CURVE SMOOTH",
"272 203 OFFCURVE",
"443 308 OFFCURVE",
"663 308 CURVE SMOOTH",
"837 308 LINE",
"901 474 LINE",
"665 973 LINE",
"1332 973 LINE",
"1389 1120 LINE",
"515 1120 LINE",
"450 952 LINE",
"676 476 LINE"
);
}
);
width = 1233;
}
);
note = uni01B9;
unicode = 01B9;
},
{
glyphname = uni01BA;
lastChange = "2018-11-11 15:31:49 +0000";
layers = (
{
layerId = "0E6DE79C-D280-4215-AD87-69B89CD8F3FA";
paths = (
{
closed = 1;
nodes = (
"269 -274 OFFCURVE",
"168 -234 OFFCURVE",
"168 -155 CURVE SMOOTH",
"168 -149 OFFCURVE",
"169 -142 OFFCURVE",
"170 -135 CURVE",
"183 -70 OFFCURVE",
"266 -30 OFFCURVE",
"419 -14 CURVE SMOOTH",
"735 19 OFFCURVE",
"911 127 OFFCURVE",
"947 311 CURVE SMOOTH",
"950 328 OFFCURVE",
"951 343 OFFCURVE",
"951 358 CURVE SMOOTH",
"951 479 OFFCURVE",
"842 540 OFFCURVE",
"624 540 CURVE",
"1058 952 LINE",
"1091 1120 LINE",
"217 1120 LINE",
"188 973 LINE",
"855 973 LINE",
"260 405 LINE",
"550 405 LINE SMOOTH",
"692 405 OFFCURVE",
"763 371 OFFCURVE",
"763 303 CURVE SMOOTH",
"763 296 OFFCURVE",
"762 289 OFFCURVE",
"761 281 CURVE",
"748 216 OFFCURVE",
"645 171 OFFCURVE",
"450 146 CURVE SMOOTH",
"173 111 OFFCURVE",
"19 14 OFFCURVE",
"-12 -145 CURVE SMOOTH",
"-16 -164 OFFCURVE",
"-18 -182 OFFCURVE",
"-18 -199 CURVE SMOOTH",
"-18 -350 OFFCURVE",
"126 -426 OFFCURVE",
"413 -426 CURVE SMOOTH",
"542 -426 OFFCURVE",
"650 -410 OFFCURVE",
"775 -367 CURVE",
"810 -188 LINE",
"690 -247 OFFCURVE",
"584 -274 OFFCURVE",
"472 -274 CURVE SMOOTH"
);
}
);
width = 1233;
}
);
note = uni01BA;
unicode = 01BA;
},
{
glyphname = uni01BB;
lastChange = "2018-11-11 15:31:49 +0000";
layers = (
{
layerId = "0E6DE79C-D280-4215-AD87-69B89CD8F3FA";
paths = (
{
closed = 1;
nodes = (
"418 1306 OFFCURVE",
"561 1350 OFFCURVE",
"682 1350 CURVE SMOOTH",
"727 1350 OFFCURVE",
"767 1343 OFFCURVE",
"802 1328 CURVE SMOOTH",
"895 1288 OFFCURVE",
"929 1206 OFFCURVE",
"905 1083 CURVE SMOOTH",
"897 1042 OFFCURVE",
"882 1001 OFFCURVE",
"859 961 CURVE SMOOTH",
"828 905 OFFCURVE",
"769 834 OFFCURVE",
"682 747 CURVE",
"248 747 LINE",
"215 577 LINE",
"498 577 LINE",
"37 170 LINE",
"4 0 LINE",
"911 0 LINE",
"944 170 LINE",
"258 170 LINE",
"650 514 LINE",
"719 577 LINE",
"948 577 LINE",
"981 747 LINE",
"901 747 LINE",
"1012 860 OFFCURVE",
"1090 970 OFFCURVE",
"1115 1098 CURVE SMOOTH",
"1163 1350 OFFCURVE",
"1003 1520 OFFCURVE",
"711 1520 CURVE SMOOTH",
"584 1520 OFFCURVE",
"444 1487 OFFCURVE",
"292 1421 CURVE",
"253 1217 LINE"
);
}
);
width = 1233;
}
);
note = uni01BB;
unicode = 01BB;
},
{
glyphname = uni01BC;
lastChange = "2018-11-11 15:31:49 +0000";
layers = (
{
layerId = "0E6DE79C-D280-4215-AD87-69B89CD8F3FA";
paths = (
{
closed = 1;
nodes = (
"316 142 OFFCURVE",
"123 194 OFFCURVE",
"170 435 CURVE",
"-32 435 LINE",
"-47 358 OFFCURVE",
"-46 289 OFFCURVE",
"-29 228 CURVE SMOOTH",
"20 57 OFFCURVE",
"187 -28 OFFCURVE",
"474 -28 CURVE SMOOTH",
"661 -28 OFFCURVE",
"813 12 OFFCURVE",
"930 93 CURVE SMOOTH",
"1164 254 OFFCURVE",
"1196 542 OFFCURVE",
"1115 677 CURVE SMOOTH",
"1030 821 OFFCURVE",
"877 884 OFFCURVE",
"737 884 CURVE SMOOTH",
"447 884 LINE",
"533 1323 LINE",
"1254 1323 LINE",
"1287 1493 LINE",
"363 1493 LINE",
"212 716 LINE",
"653 716 LINE SMOOTH",
"872 716 OFFCURVE",
"983 614 OFFCURVE",
"948 435 CURVE SMOOTH",
"941 401 OFFCURVE",
"931 370 OFFCURVE",
"917 341 CURVE SMOOTH",
"850 208 OFFCURVE",
"712 142 OFFCURVE",
"501 142 CURVE SMOOTH"
);
}
);
width = 1233;
}
);
note = uni01BC;
unicode = 01BC;
},
{
glyphname = uni01BD;
lastChange = "2018-11-11 15:31:49 +0000";
layers = (
{
layerId = "0E6DE79C-D280-4215-AD87-69B89CD8F3FA";
paths = (
{
closed = 1;
nodes = (
"251 -266 OFFCURVE",
"127 -233 OFFCURVE",
"26 -167 CURVE",
"-12 -362 LINE",
"120 -411 OFFCURVE",
"248 -436 OFFCURVE",
"373 -436 CURVE SMOOTH",
"560 -436 OFFCURVE",
"712 -396 OFFCURVE",
"829 -315 CURVE SMOOTH",
"1063 -154 OFFCURVE",
"1094 130 OFFCURVE",
"1013 269 CURVE SMOOTH",
"926 413 OFFCURVE",
"772 477 OFFCURVE",
"635 476 CURVE SMOOTH",
"467 475 LINE",
"556 936 LINE",
"1124 936 LINE",
"1160 1120 LINE",
"408 1120 LINE",
"250 308 LINE",
"550 308 LINE SMOOTH",
"770 308 OFFCURVE",
"881 206 OFFCURVE",
"846 27 CURVE SMOOTH",
"839 -8 OFFCURVE",
"827 -41 OFFCURVE",
"812 -71 CURVE SMOOTH",
"745 -201 OFFCURVE",
"607 -266 OFFCURVE",
"400 -266 CURVE SMOOTH"
);
}
);
width = 1233;
}
);
note = uni01BD;
unicode = 01BD;
},
{
glyphname = uni01BE;
lastChange = "2018-11-11 15:31:49 +0000";
layers = (
{
layerId = "0E6DE79C-D280-4215-AD87-69B89CD8F3FA";
paths = (
{
closed = 1;
nodes = (
"758 262 OFFCURVE",
"634 127 OFFCURVE",
"397 127 CURVE SMOOTH",
"291 127 OFFCURVE",
"191 156 OFFCURVE",
"98 213 CURVE",
"65 41 LINE",
"157 -6 OFFCURVE",
"260 -29 OFFCURVE",
"374 -29 CURVE SMOOTH",
"741 -29 OFFCURVE",
"939 192 OFFCURVE",
"987 439 CURVE SMOOTH",
"1034 674 OFFCURVE",
"894 834 OFFCURVE",
"682 873 CURVE",
"706 998 LINE",
"937 998 LINE",
"969 1162 LINE",
"738 1162 LINE",
"792 1438 LINE",
"590 1438 LINE",
"536 1162 LINE",
"307 1162 LINE",
"275 998 LINE",
"504 998 LINE",
"451 727 LINE",
"513 727 LINE SMOOTH",
"745 727 OFFCURVE",
"824 591 OFFCURVE",
"793 439 CURVE SMOOTH"
);
}
);
width = 1233;
}
);
note = uni01BE;
unicode = 01BE;
},
{
glyphname = uni01BF;
lastChange = "2018-11-11 15:31:49 +0000";
layers = (
{
layerId = "0E6DE79C-D280-4215-AD87-69B89CD8F3FA";
paths = (
{
closed = 1;
nodes = (
"818 189 OFFCURVE",
"1149 486 OFFCURVE",
"1204 769 CURVE SMOOTH",
"1211 804 OFFCURVE",
"1214 838 OFFCURVE",
"1214 870 CURVE SMOOTH",
"1214 991 OFFCURVE",
"1183 1147 OFFCURVE",
"938 1147 CURVE SMOOTH",
"658 1147 OFFCURVE",
"513 1043 OFFCURVE",
"422 950 CURVE",
"455 1120 LINE",
"270 1120 LINE",
"-31 -426 LINE",
"154 -426 LINE",
"213 -122 LINE"
);
},
{
closed = 1;
nodes = (
"292 285 OFFCURVE",
"336 509 OFFCURVE",
"380 734 CURVE",
"526 893 OFFCURVE",
"672 973 OFFCURVE",
"819 973 CURVE SMOOTH",
"823 973 LINE SMOOTH",
"902 973 OFFCURVE",
"955 951 OFFCURVE",
"983 908 CURVE",
"1002 881 OFFCURVE",
"1011 845 OFFCURVE",
"1011 799 CURVE SMOOTH",
"1011 772 OFFCURVE",
"1008 742 OFFCURVE",
"1001 709 CURVE SMOOTH",
"969 543 OFFCURVE",
"718 327 OFFCURVE",
"249 60 CURVE"
);
}
);
width = 1233;
}
);
note = uni01BF;
unicode = 01BF;
},
{
glyphname = uni01C0;
lastChange = "2018-11-11 15:31:49 +0000";
layers = (
{
layerId = "0E6DE79C-D280-4215-AD87-69B89CD8F3FA";
paths = (
{
closed = 1;
nodes = (
"572 0 LINE",
"863 1493 LINE",
"661 1493 LINE",
"370 0 LINE"
);
}
);
width = 1233;
}
);
note = uni01C0;
unicode = 01C0;
},
{
glyphname = uni01C2;
lastChange = "2018-11-11 15:31:49 +0000";
layers = (
{
layerId = "0E6DE79C-D280-4215-AD87-69B89CD8F3FA";
paths = (
{
closed = 1;
nodes = (
"231 1089 LINE",
"198 921 LINE",
"549 921 LINE",
"503 681 LINE",
"152 681 LINE",
"119 511 LINE",
"470 511 LINE",
"370 0 LINE",
"572 0 LINE",
"672 511 LINE",
"1023 511 LINE",
"1056 681 LINE",
"705 681 LINE",
"751 921 LINE",
"1102 921 LINE",
"1135 1089 LINE",
"784 1089 LINE",
"863 1493 LINE",
"661 1493 LINE",
"582 1089 LINE"
);
}
);
width = 1233;
}
);
note = uni01C2;
unicode = 01C2;
},
{
glyphname = uni01F6;
lastChange = "2018-11-11 15:31:49 +0000";
layers = (
{
layerId = "0E6DE79C-D280-4215-AD87-69B89CD8F3FA";
paths = (
{
closed = 1;
nodes = (
"730 135 OFFCURVE",
"710 148 OFFCURVE",
"699 174 CURVE SMOOTH",
"662 267 OFFCURVE",
"662 404 OFFCURVE",
"697 586 CURVE SMOOTH",
"874 1493 LINE",
"691 1493 LINE",
"572 881 LINE",
"273 881 LINE",
"392 1493 LINE",
"210 1493 LINE",
"-81 0 LINE",
"102 0 LINE",
"240 711 LINE",
"539 711 LINE",
"510 561 LINE SMOOTH",
"464 325 OFFCURVE",
"476 156 OFFCURVE",
"545 54 CURVE SMOOTH",
"582 -1 OFFCURVE",
"644 -29 OFFCURVE",
"729 -29 CURVE SMOOTH",
"818 -29 OFFCURVE",
"886 -3 OFFCURVE",
"934 48 CURVE SMOOTH",
"1022 141 OFFCURVE",
"1090 312 OFFCURVE",
"1138 561 CURVE SMOOTH",
"1200 881 LINE",
"1018 881 LINE",
"960 586 LINE SMOOTH",
"925 406 OFFCURVE",
"891 282 OFFCURVE",
"856 214 CURVE SMOOTH",
"829 161 OFFCURVE",
"797 135 OFFCURVE",
"761 135 CURVE SMOOTH"
);
}
);
width = 1233;
}
);
note = uni01F6;
unicode = 01F6;
},
{
glyphname = uni021C;
lastChange = "2018-11-11 15:31:49 +0000";
layers = (
{
layerId = "0E6DE79C-D280-4215-AD87-69B89CD8F3FA";
paths = (
{
closed = 1;
nodes = (
"1323 1397 OFFCURVE",
"1166 1520 OFFCURVE",
"938 1520 CURVE SMOOTH",
"801 1520 OFFCURVE",
"641 1465 OFFCURVE",
"458 1356 CURVE",
"418 1166 LINE",
"605 1289 OFFCURVE",
"761 1350 OFFCURVE",
"884 1350 CURVE SMOOTH",
"940 1350 OFFCURVE",
"990 1339 OFFCURVE",
"1038 1315 CURVE SMOOTH",
"1085 1290 OFFCURVE",
"1115 1240 OFFCURVE",
"1115 1173 CURVE SMOOTH",
"1115 1093 OFFCURVE",
"1083 1009 OFFCURVE",
"1019 925 CURVE SMOOTH",
"955 841 OFFCURVE",
"839 758 OFFCURVE",
"694 701 CURVE SMOOTH",
"423 595 LINE",
"387 424 LINE",
"565 496 LINE SMOOTH",
"656 532 OFFCURVE",
"732 548 OFFCURVE",
"793 545 CURVE SMOOTH",
"916 538 OFFCURVE",
"980 469 OFFCURVE",
"980 356 CURVE SMOOTH",
"980 315 OFFCURVE",
"970 274 OFFCURVE",
"951 233 CURVE SMOOTH",
"912 149 OFFCURVE",
"820 55 OFFCURVE",
"684 -29 CURVE SMOOTH",
"547 -114 OFFCURVE",
"332 -202 OFFCURVE",
"68 -270 CURVE",
"34 -430 LINE",
"771 -274 OFFCURVE",
"1185 43 OFFCURVE",
"1185 388 CURVE SMOOTH",
"1185 447 OFFCURVE",
"1171 498 OFFCURVE",
"1138 554 CURVE SMOOTH",
"1105 609 OFFCURVE",
"1036 653 OFFCURVE",
"943 674 CURVE",
"944 675 OFFCURVE",
"952 680 OFFCURVE",
"966 688 CURVE SMOOTH",
"979 696 OFFCURVE",
"992 703 OFFCURVE",
"1003 710 CURVE SMOOTH",
"1025 723 OFFCURVE",
"1068 754 OFFCURVE",
"1099 779 CURVE SMOOTH",
"1130 804 OFFCURVE",
"1173 846 OFFCURVE",
"1204 884 CURVE SMOOTH",
"1235 922 OFFCURVE",
"1268 974 OFFCURVE",
"1289 1024 CURVE SMOOTH",
"1309 1074 OFFCURVE",
"1323 1137 OFFCURVE",
"1323 1200 CURVE SMOOTH"
);
}
);
width = 1233;
}
);
note = uni021C;
unicode = 021C;
},
{
glyphname = uni021D;
lastChange = "2018-11-11 15:31:49 +0000";
layers = (
{
layerId = "0E6DE79C-D280-4215-AD87-69B89CD8F3FA";
paths = (
{
closed = 1;
nodes = (
"882 462 OFFCURVE",
"892 469 OFFCURVE",
"909 480 CURVE SMOOTH",
"926 491 OFFCURVE",
"938 499 OFFCURVE",
"946 505 CURVE",
"954 510 OFFCURVE",
"968 520 OFFCURVE",
"987 534 CURVE",
"1006 547 OFFCURVE",
"1022 559 OFFCURVE",
"1033 569 CURVE SMOOTH",
"1055 589 OFFCURVE",
"1097 627 OFFCURVE",
"1119 656 CURVE SMOOTH",
"1141 684 OFFCURVE",
"1170 727 OFFCURVE",
"1185 764 CURVE SMOOTH",
"1200 801 OFFCURVE",
"1211 847 OFFCURVE",
"1211 894 CURVE SMOOTH",
"1211 947 OFFCURVE",
"1195 992 OFFCURVE",
"1164 1031 CURVE SMOOTH",
"1100 1108 OFFCURVE",
"991 1147 OFFCURVE",
"859 1147 CURVE SMOOTH",
"770 1147 OFFCURVE",
"627 1103 OFFCURVE",
"431 1014 CURVE",
"398 860 LINE",
"509 920 OFFCURVE",
"594 960 OFFCURVE",
"655 980 CURVE SMOOTH",
"715 999 OFFCURVE",
"768 1009 OFFCURVE",
"813 1009 CURVE SMOOTH",
"866 1009 OFFCURVE",
"911 1000 OFFCURVE",
"955 980 CURVE SMOOTH",
"998 959 OFFCURVE",
"1024 917 OFFCURVE",
"1024 862 CURVE SMOOTH",
"1024 718 OFFCURVE",
"892 568 OFFCURVE",
"655 483 CURVE SMOOTH",
"414 398 LINE",
"384 259 LINE",
"618 345 LINE SMOOTH",
"664 362 OFFCURVE",
"707 370 OFFCURVE",
"746 370 CURVE SMOOTH",
"853 370 OFFCURVE",
"919 309 OFFCURVE",
"919 216 CURVE SMOOTH",
"919 113 OFFCURVE",
"854 19 OFFCURVE",
"723 -65 CURVE SMOOTH",
"592 -149 OFFCURVE",
"387 -228 OFFCURVE",
"110 -303 CURVE",
"82 -433 LINE",
"394 -372 OFFCURVE",
"658 -273 OFFCURVE",
"830 -160 CURVE SMOOTH",
"1002 -48 OFFCURVE",
"1099 84 OFFCURVE",
"1099 213 CURVE SMOOTH",
"1099 233 OFFCURVE",
"1097 253 OFFCURVE",
"1093 274 CURVE SMOOTH",
"1084 314 OFFCURVE",
"1061 359 OFFCURVE",
"1029 393 CURVE SMOOTH",
"996 427 OFFCURVE",
"943 453 OFFCURVE",
"880 461 CURVE"
);
}
);
width = 1233;
}
);
note = uni021D;
unicode = 021D;
},
{
glyphname = uni0221;
lastChange = "2018-11-11 15:31:49 +0000";
layers = (
{
layerId = "0E6DE79C-D280-4215-AD87-69B89CD8F3FA";
paths = (
{
closed = 1;
nodes = (
"847 277 OFFCURVE",
"908 344 OFFCURVE",
"951 344 CURVE SMOOTH",
"994 344 OFFCURVE",
"1010 323 OFFCURVE",
"999 282 CURVE",
"977 179 OFFCURVE",
"925 127 OFFCURVE",
"843 127 CURVE SMOOTH",
"798 126 OFFCURVE",
"773 132 OFFCURVE",
"768 144 CURVE"
);
},
{
closed = 1;
nodes = (
"770 1556 LINE",
"657 977 LINE",
"632 1088 OFFCURVE",
"559 1147 OFFCURVE",
"452 1147 CURVE SMOOTH",
"237 1147 OFFCURVE",
"62 927 OFFCURVE",
"-9 563 CURVE SMOOTH",
"-81 194 OFFCURVE",
"7 -26 OFFCURVE",
"223 -29 CURVE SMOOTH",
"356 -30 OFFCURVE",
"466 65 OFFCURVE",
"526 185 CURVE",
"535 148 LINE SMOOTH",
"549 89 OFFCURVE",
"566 55 OFFCURVE",
"585 46 CURVE",
"480 -148 LINE",
"599 -148 LINE",
"619 -110 OFFCURVE",
"644 -65 OFFCURVE",
"674 -12 CURVE",
"705 -23 OFFCURVE",
"744 -29 OFFCURVE",
"791 -29 CURVE SMOOTH",
"958 -29 OFFCURVE",
"1061 75 OFFCURVE",
"1101 284 CURVE SMOOTH",
"1158 575 OFFCURVE",
"929 580 OFFCURVE",
"714 255 CURVE",
"709 278 OFFCURVE",
"715 329 OFFCURVE",
"730 406 CURVE SMOOTH",
"954 1556 LINE"
);
},
{
closed = 1;
nodes = (
"312 955 OFFCURVE",
"372 991 OFFCURVE",
"443 991 CURVE SMOOTH",
"514 991 OFFCURVE",
"560 955 OFFCURVE",
"583 882 CURVE SMOOTH",
"606 809 OFFCURVE",
"603 701 OFFCURVE",
"576 559 CURVE SMOOTH",
"521 276 OFFCURVE",
"416 127 OFFCURVE",
"275 127 CURVE SMOOTH",
"204 127 OFFCURVE",
"158 163 OFFCURVE",
"136 236 CURVE SMOOTH",
"92 381 OFFCURVE",
"161 737 OFFCURVE",
"262 882 CURVE SMOOTH"
);
}
);
width = 1233;
}
);
note = uni0221;
unicode = 0221;
},
{
glyphname = uni0224;
lastChange = "2018-11-11 15:31:49 +0000";
layers = (
{
layerId = "0E6DE79C-D280-4215-AD87-69B89CD8F3FA";
paths = (
{
closed = 1;
nodes = (
"1068 1323 LINE",
"82 154 LINE",
"52 0 LINE",
"881 0 LINE",
"877 -20 LINE SMOOTH",
"845 -188 OFFCURVE",
"770 -270 OFFCURVE",
"650 -270 CURVE SMOOTH",
"465 -270 LINE",
"434 -426 LINE",
"639 -426 LINE SMOOTH",
"859 -426 OFFCURVE",
"1013 -280 OFFCURVE",
"1062 -20 CURVE SMOOTH",
"1091 128 LINE",
"1090 128 LINE",
"1098 170 LINE",
"296 170 LINE",
"1304 1339 LINE",
"1334 1493 LINE",
"365 1493 LINE",
"331 1323 LINE"
);
}
);
width = 1233;
}
);
note = uni0224;
unicode = 0224;
},
{
glyphname = uni0225;
lastChange = "2018-11-11 15:31:49 +0000";
layers = (
{
layerId = "0E6DE79C-D280-4215-AD87-69B89CD8F3FA";
paths = (
{
closed = 1;
nodes = (
"968 975 LINE",
"168 170 LINE",
"135 0 LINE",
"779 0 LINE",
"775 -20 LINE SMOOTH",
"743 -188 OFFCURVE",
"668 -270 OFFCURVE",
"548 -270 CURVE SMOOTH",
"363 -270 LINE",
"333 -426 LINE",
"538 -426 LINE SMOOTH",
"758 -426 OFFCURVE",
"911 -280 OFFCURVE",
"960 -20 CURVE SMOOTH",
"964 0 LINE",
"972 0 LINE",
"1002 150 LINE",
"359 150 LINE",
"1158 954 LINE",
"1190 1122 LINE",
"377 1122 LINE",
"349 975 LINE"
);
}
);
width = 1233;
}
);
note = uni0225;
unicode = 0225;
},
{
glyphname = uni0234;
lastChange = "2018-11-11 15:31:49 +0000";
layers = (
{
layerId = "0E6DE79C-D280-4215-AD87-69B89CD8F3FA";
paths = (
{
closed = 1;
nodes = (
"697 277 OFFCURVE",
"758 344 OFFCURVE",
"801 344 CURVE SMOOTH",
"844 344 OFFCURVE",
"860 323 OFFCURVE",
"849 282 CURVE",
"827 179 OFFCURVE",
"775 127 OFFCURVE",
"693 127 CURVE SMOOTH",
"648 126 OFFCURVE",
"623 132 OFFCURVE",
"618 144 CURVE"
);
},
{
closed = 1;
nodes = (
"555 -23 OFFCURVE",
"593 -29 OFFCURVE",
"640 -29 CURVE SMOOTH",
"807 -29 OFFCURVE",
"910 75 OFFCURVE",
"951 284 CURVE SMOOTH",
"1008 575 OFFCURVE",
"779 580 OFFCURVE",
"564 255 CURVE",
"559 278 OFFCURVE",
"565 329 OFFCURVE",
"580 406 CURVE SMOOTH",
"806 1567 LINE",
"327 1567 LINE",
"299 1423 LINE",
"594 1423 LINE",
"396 406 LINE SMOOTH",
"372 283 OFFCURVE",
"368 197 OFFCURVE",
"385 148 CURVE SMOOTH",
"406 83 OFFCURVE",
"423 49 OFFCURVE",
"435 46 CURVE",
"330 -148 LINE",
"449 -148 LINE",
"469 -110 OFFCURVE",
"494 -65 OFFCURVE",
"524 -12 CURVE"
);
}
);
width = 1233;
}
);
note = uni0234;
unicode = 0234;
},
{
glyphname = uni0235;
lastChange = "2018-11-11 15:31:49 +0000";
layers = (
{
layerId = "0E6DE79C-D280-4215-AD87-69B89CD8F3FA";
paths = (
{
closed = 1;
nodes = (
"830 277 OFFCURVE",
"891 344 OFFCURVE",
"934 344 CURVE SMOOTH",
"977 344 OFFCURVE",
"993 323 OFFCURVE",
"982 282 CURVE",
"959 179 OFFCURVE",
"907 127 OFFCURVE",
"826 127 CURVE SMOOTH",
"781 126 OFFCURVE",
"756 132 OFFCURVE",
"751 144 CURVE"
);
},
{
closed = 1;
nodes = (
"782 844 OFFCURVE",
"789 975 OFFCURVE",
"765 1042 CURVE SMOOTH",
"740 1112 OFFCURVE",
"684 1147 OFFCURVE",
"595 1147 CURVE SMOOTH",
"511 1147 OFFCURVE",
"436 1104 OFFCURVE",
"376 1024 CURVE",
"395 1120 LINE",
"228 1120 LINE",
"10 0 LINE",
"177 0 LINE",
"302 641 LINE SMOOTH",
"331 794 OFFCURVE",
"360 891 OFFCURVE",
"387 932 CURVE SMOOTH",
"414 973 OFFCURVE",
"451 993 OFFCURVE",
"500 993 CURVE SMOOTH",
"560 993 OFFCURVE",
"595 974 OFFCURVE",
"606 936 CURVE SMOOTH",
"616 897 OFFCURVE",
"606 799 OFFCURVE",
"575 641 CURVE SMOOTH",
"529 406 LINE SMOOTH",
"505 283 OFFCURVE",
"501 197 OFFCURVE",
"518 148 CURVE SMOOTH",
"539 83 OFFCURVE",
"556 49 OFFCURVE",
"568 46 CURVE",
"462 -148 LINE",
"581 -148 LINE",
"602 -110 OFFCURVE",
"627 -65 OFFCURVE",
"657 -12 CURVE",
"688 -23 OFFCURVE",
"726 -29 OFFCURVE",
"773 -29 CURVE SMOOTH",
"940 -28 OFFCURVE",
"1044 76 OFFCURVE",
"1084 284 CURVE",
"1085 288 OFFCURVE",
"1085 292 OFFCURVE",
"1086 296 CURVE",
"1134 571 OFFCURVE",
"916 582 OFFCURVE",
"688 246 CURVE",
"679 277 OFFCURVE",
"682 330 OFFCURVE",
"697 406 CURVE SMOOTH",
"744 649 LINE SMOOTH"
);
}
);
width = 1233;
}
);
note = uni0235;
unicode = 0235;
},
{
glyphname = uni0236;
lastChange = "2018-11-11 15:31:49 +0000";
layers = (
{
layerId = "0E6DE79C-D280-4215-AD87-69B89CD8F3FA";
paths = (
{
closed = 1;
nodes = (
"685 277 OFFCURVE",
"745 344 OFFCURVE",
"788 344 CURVE SMOOTH",
"831 344 OFFCURVE",
"847 323 OFFCURVE",
"836 282 CURVE",
"814 179 OFFCURVE",
"762 127 OFFCURVE",
"680 127 CURVE SMOOTH",
"636 126 OFFCURVE",
"611 132 OFFCURVE",
"606 144 CURVE"
);
},
{
closed = 1;
nodes = (
"1097 977 LINE",
"1124 1120 LINE",
"706 1120 LINE",
"768 1438 LINE",
"584 1438 LINE",
"522 1120 LINE",
"223 1120 LINE",
"196 977 LINE",
"495 977 LINE",
"384 406 LINE SMOOTH",
"360 283 OFFCURVE",
"356 197 OFFCURVE",
"372 148 CURVE SMOOTH",
"394 83 OFFCURVE",
"411 49 OFFCURVE",
"423 46 CURVE",
"317 -148 LINE",
"436 -148 LINE",
"457 -110 OFFCURVE",
"482 -65 OFFCURVE",
"512 -12 CURVE",
"542 -23 OFFCURVE",
"581 -29 OFFCURVE",
"628 -29 CURVE SMOOTH",
"795 -29 OFFCURVE",
"898 75 OFFCURVE",
"939 284 CURVE SMOOTH",
"995 575 OFFCURVE",
"766 580 OFFCURVE",
"551 255 CURVE",
"547 278 OFFCURVE",
"553 329 OFFCURVE",
"568 406 CURVE SMOOTH",
"679 977 LINE"
);
}
);
width = 1233;
}
);
note = uni0236;
unicode = 0236;
},
{
glyphname = dotlessj;
lastChange = "2018-11-11 15:31:49 +0000";
layers = (
{
layerId = "0E6DE79C-D280-4215-AD87-69B89CD8F3FA";
paths = (
{
closed = 1;
nodes = (
"465 -195 OFFCURVE",
"395 -270 OFFCURVE",
"268 -270 CURVE SMOOTH",
"35 -270 LINE",
"4 -426 LINE",
"258 -426 LINE SMOOTH",
"499 -426 OFFCURVE",
"627 -304 OFFCURVE",
"682 -20 CURVE SMOOTH",
"903 1120 LINE",
"401 1120 LINE",
"373 977 LINE",
"690 977 LINE",
"498 -20 LINE SMOOTH"
);
}
);
width = 1233;
}
);
note = dotlessj;
unicode = 0237;
},
{
glyphname = uni0238;
lastChange = "2018-11-11 15:31:49 +0000";
layers = (
{
layerId = "0E6DE79C-D280-4215-AD87-69B89CD8F3FA";
paths = (
{
closed = 1;
nodes = (
"342 955 OFFCURVE",
"390 991 OFFCURVE",
"443 991 CURVE SMOOTH",
"496 991 OFFCURVE",
"529 955 OFFCURVE",
"543 882 CURVE SMOOTH",
"570 736 OFFCURVE",
"501 384 OFFCURVE",
"417 237 CURVE SMOOTH",
"375 164 OFFCURVE",
"328 127 OFFCURVE",
"275 127 CURVE SMOOTH",
"222 127 OFFCURVE",
"188 163 OFFCURVE",
"175 236 CURVE SMOOTH",
"148 381 OFFCURVE",
"218 737 OFFCURVE",
"301 882 CURVE SMOOTH"
);
},
{
closed = 1;
nodes = (
"812 163 OFFCURVE",
"764 127 OFFCURVE",
"711 127 CURVE SMOOTH",
"658 127 OFFCURVE",
"624 164 OFFCURVE",
"611 237 CURVE SMOOTH",
"584 384 OFFCURVE",
"652 736 OFFCURVE",
"736 882 CURVE SMOOTH",
"778 955 OFFCURVE",
"826 991 OFFCURVE",
"879 991 CURVE SMOOTH",
"932 991 OFFCURVE",
"966 955 OFFCURVE",
"979 882 CURVE SMOOTH",
"1005 737 OFFCURVE",
"936 381 OFFCURVE",
"853 236 CURVE SMOOTH"
);
},
{
closed = 1;
nodes = (
"715 1556 LINE",
"603 977 LINE",
"590 1088 OFFCURVE",
"537 1147 OFFCURVE",
"456 1147 CURVE SMOOTH",
"375 1147 OFFCURVE",
"302 1095 OFFCURVE",
"235 992 CURVE SMOOTH",
"101 784 OFFCURVE",
"14 339 OFFCURVE",
"67 129 CURVE SMOOTH",
"93 24 OFFCURVE",
"147 -29 OFFCURVE",
"228 -29 CURVE SMOOTH",
"308 -29 OFFCURVE",
"383 30 OFFCURVE",
"440 141 CURVE",
"413 0 LINE",
"523 0 LINE",
"551 141 LINE",
"566 30 OFFCURVE",
"617 -29 OFFCURVE",
"697 -29 CURVE SMOOTH",
"778 -29 OFFCURVE",
"853 24 OFFCURVE",
"920 129 CURVE SMOOTH",
"1054 339 OFFCURVE",
"1140 784 OFFCURVE",
"1088 992 CURVE SMOOTH",
"1061 1095 OFFCURVE",
"1008 1147 OFFCURVE",
"927 1147 CURVE SMOOTH",
"846 1147 OFFCURVE",
"770 1086 OFFCURVE",
"713 977 CURVE",
"826 1556 LINE"
);
}
);
width = 1233;
}
);
note = uni0238;
unicode = 0238;
},
{
glyphname = uni0239;
lastChange = "2018-11-11 15:31:49 +0000";
layers = (
{
layerId = "0E6DE79C-D280-4215-AD87-69B89CD8F3FA";
paths = (
{
closed = 1;
nodes = (
"891 163 OFFCURVE",
"844 127 OFFCURVE",
"791 127 CURVE SMOOTH",
"738 127 OFFCURVE",
"704 164 OFFCURVE",
"691 237 CURVE SMOOTH",
"663 383 OFFCURVE",
"732 734 OFFCURVE",
"816 881 CURVE SMOOTH",
"858 954 OFFCURVE",
"906 991 OFFCURVE",
"959 991 CURVE SMOOTH",
"1012 991 OFFCURVE",
"1045 955 OFFCURVE",
"1058 882 CURVE SMOOTH",
"1085 737 OFFCURVE",
"1015 381 OFFCURVE",
"932 236 CURVE SMOOTH"
);
},
{
closed = 1;
nodes = (
"421 955 OFFCURVE",
"469 991 OFFCURVE",
"522 991 CURVE SMOOTH",
"575 991 OFFCURVE",
"609 954 OFFCURVE",
"622 881 CURVE SMOOTH",
"649 734 OFFCURVE",
"581 383 OFFCURVE",
"497 237 CURVE SMOOTH",
"455 164 OFFCURVE",
"407 127 OFFCURVE",
"354 127 CURVE SMOOTH",
"301 127 OFFCURVE",
"268 163 OFFCURVE",
"255 236 CURVE SMOOTH",
"229 381 OFFCURVE",
"297 737 OFFCURVE",
"380 882 CURVE SMOOTH"
);
},
{
closed = 1;
nodes = (
"518 -438 LINE",
"630 141 LINE",
"643 30 OFFCURVE",
"696 -29 OFFCURVE",
"777 -29 CURVE SMOOTH",
"858 -29 OFFCURVE",
"932 23 OFFCURVE",
"999 127 CURVE SMOOTH",
"1133 334 OFFCURVE",
"1219 780 OFFCURVE",
"1167 990 CURVE SMOOTH",
"1140 1095 OFFCURVE",
"1086 1147 OFFCURVE",
"1005 1147 CURVE SMOOTH",
"925 1147 OFFCURVE",
"850 1088 OFFCURVE",
"793 977 CURVE",
"820 1118 LINE",
"710 1118 LINE",
"682 977 LINE",
"667 1088 OFFCURVE",
"616 1147 OFFCURVE",
"536 1147 CURVE SMOOTH",
"455 1147 OFFCURVE",
"381 1095 OFFCURVE",
"314 990 CURVE SMOOTH",
"180 780 OFFCURVE",
"93 334 OFFCURVE",
"146 127 CURVE SMOOTH",
"172 23 OFFCURVE",
"225 -29 OFFCURVE",
"306 -29 CURVE SMOOTH",
"387 -29 OFFCURVE",
"463 32 OFFCURVE",
"520 141 CURVE",
"407 -438 LINE"
);
}
);
width = 1233;
}
);
note = uni0239;
unicode = 0239;
},
{
glyphname = uni023A;
lastChange = "2018-11-11 15:31:49 +0000";
layers = (
{
layerId = "0E6DE79C-D280-4215-AD87-69B89CD8F3FA";
paths = (
{
closed = 1;
nodes = (
"-137 0 LINE",
"-47 -70 LINE",
"15 0 LINE",
"101 0 LINE",
"197 203 LINE",
"363 389 LINE",
"808 389 LINE",
"842 0 LINE",
"1051 0 LINE",
"936 1029 LINE",
"1344 1485 LINE",
"1258 1559 LINE",
"919 1180 LINE",
"884 1493 LINE",
"639 1493 LINE",
"-71 74 LINE"
);
},
{
closed = 1;
nodes = (
"791 551 LINE",
"508 551 LINE",
"767 840 LINE"
);
},
{
closed = 1;
nodes = (
"727 1315 LINE",
"754 995 LINE",
"376 572 LINE"
);
}
);
width = 1233;
}
);
note = uni023A;
unicode = 023A;
},
{
glyphname = uni023B;
lastChange = "2018-11-11 15:31:49 +0000";
layers = (
{
layerId = "0E6DE79C-D280-4215-AD87-69B89CD8F3FA";
paths = (
{
closed = 1;
nodes = (
"325 584 OFFCURVE",
"334 661 OFFCURVE",
"350 745 CURVE SMOOTH",
"430 1154 OFFCURVE",
"599 1356 OFFCURVE",
"862 1356 CURVE SMOOTH",
"919 1356 OFFCURVE",
"974 1345 OFFCURVE",
"1027 1324 CURVE SMOOTH",
"1043 1318 LINE",
"323 514 LINE"
);
},
{
closed = 1;
nodes = (
"866 179 OFFCURVE",
"742 135 OFFCURVE",
"625 135 CURVE SMOOTH",
"494 135 OFFCURVE",
"405 186 OFFCURVE",
"359 287 CURVE SMOOTH",
"350 308 OFFCURVE",
"342 332 OFFCURVE",
"336 358 CURVE",
"1139 1256 LINE",
"1149 1248 OFFCURVE",
"1159 1240 OFFCURVE",
"1168 1231 CURVE",
"1182 1304 LINE",
"1344 1485 LINE",
"1258 1559 LINE",
"1169 1459 LINE",
"1100 1494 OFFCURVE",
"1015 1520 OFFCURVE",
"894 1520 CURVE SMOOTH",
"704 1520 OFFCURVE",
"543 1452 OFFCURVE",
"410 1316 CURVE SMOOTH",
"144 1043 OFFCURVE",
"73 542 OFFCURVE",
"134 303 CURVE",
"-137 0 LINE",
"-47 -70 LINE",
"181 185 LINE",
"187 174 LINE SMOOTH",
"266 39 OFFCURVE",
"402 -29 OFFCURVE",
"593 -29 CURVE SMOOTH",
"714 -29 OFFCURVE",
"826 -2 OFFCURVE",
"939 53 CURVE",
"979 260 LINE"
);
}
);
width = 1233;
}
);
note = uni023B;
unicode = 023B;
},
{
glyphname = uni023C;
lastChange = "2018-11-11 15:31:49 +0000";
layers = (
{
layerId = "0E6DE79C-D280-4215-AD87-69B89CD8F3FA";
paths = (
{
closed = 1;
nodes = (
"374 453 OFFCURVE",
"378 504 OFFCURVE",
"389 559 CURVE SMOOTH",
"444 836 OFFCURVE",
"601 991 OFFCURVE",
"832 991 CURVE SMOOTH",
"880 991 OFFCURVE",
"923 985 OFFCURVE",
"961 973 CURVE",
"375 406 LINE"
);
},
{
closed = 1;
nodes = (
"898 165 OFFCURVE",
"792 127 OFFCURVE",
"664 127 CURVE SMOOTH",
"549 127 OFFCURVE",
"468 165 OFFCURVE",
"421 240 CURVE SMOOTH",
"413 252 OFFCURVE",
"406 265 OFFCURVE",
"400 279 CURVE",
"1064 920 LINE",
"1083 905 OFFCURVE",
"1102 888 OFFCURVE",
"1121 868 CURVE",
"1147 1001 LINE",
"1286 1135 LINE",
"1208 1212 LINE",
"1091 1098 LINE",
"1066 1109 OFFCURVE",
"1041 1119 OFFCURVE",
"1016 1126 CURVE SMOOTH",
"967 1140 OFFCURVE",
"916 1147 OFFCURVE",
"862 1147 CURVE SMOOTH",
"689 1147 OFFCURVE",
"543 1095 OFFCURVE",
"426 991 CURVE SMOOTH",
"190 783 OFFCURVE",
"145 414 OFFCURVE",
"201 238 CURVE",
"-65 -20 LINE",
"12 -96 LINE",
"252 136 LINE",
"258 127 LINE",
"335 23 OFFCURVE",
"461 -29 OFFCURVE",
"634 -29 CURVE SMOOTH",
"743 -29 OFFCURVE",
"853 0 OFFCURVE",
"964 57 CURVE",
"1001 248 LINE"
);
}
);
width = 1233;
}
);
note = uni023C;
unicode = 023C;
},
{
glyphname = uni023D;
lastChange = "2018-11-11 15:31:49 +0000";
layers = (
{
layerId = "0E6DE79C-D280-4215-AD87-69B89CD8F3FA";
paths = (
{
closed = 1;
nodes = (
"21 747 LINE",
"-12 577 LINE",
"255 577 LINE",
"143 0 LINE",
"1067 0 LINE",
"1100 170 LINE",
"379 170 LINE",
"458 577 LINE",
"721 577 LINE",
"754 747 LINE",
"491 747 LINE",
"636 1493 LINE",
"433 1493 LINE",
"288 747 LINE"
);
}
);
width = 1233;
}
);
note = uni023D;
unicode = 023D;
},
{
glyphname = uni023E;
lastChange = "2018-11-11 15:31:49 +0000";
layers = (
{
layerId = "0E6DE79C-D280-4215-AD87-69B89CD8F3FA";
paths = (
{
closed = 1;
nodes = (
"1072 1323 LINE",
"762 976 LINE",
"829 1323 LINE"
);
},
{
closed = 1;
nodes = (
"-22 -70 LINE",
"461 470 LINE",
"369 0 LINE",
"572 0 LINE",
"720 760 LINE",
"1224 1323 LINE",
"1298 1323 LINE",
"1319 1429 LINE",
"1369 1485 LINE",
"1283 1559 LINE",
"1224 1493 LINE",
"192 1493 LINE",
"159 1323 LINE",
"626 1323 LINE",
"503 687 LINE",
"-112 0 LINE"
);
}
);
width = 1233;
}
);
note = uni023E;
unicode = 023E;
},
{
glyphname = uni023F;
lastChange = "2018-11-11 15:31:49 +0000";
layers = (
{
layerId = "0E6DE79C-D280-4215-AD87-69B89CD8F3FA";
paths = (
{
closed = 1;
nodes = (
"1021 1125 OFFCURVE",
"917 1147 OFFCURVE",
"797 1147 CURVE SMOOTH",
"528 1147 OFFCURVE",
"354 1026 OFFCURVE",
"311 811 CURVE SMOOTH",
"279 642 OFFCURVE",
"352 550 OFFCURVE",
"557 506 CURVE SMOOTH",
"623 492 LINE",
"631 490 LINE",
"788 457 OFFCURVE",
"858 398 OFFCURVE",
"842 313 CURVE SMOOTH",
"818 194 OFFCURVE",
"712 125 OFFCURVE",
"549 125 CURVE SMOOTH",
"508 125 OFFCURVE",
"465 130 OFFCURVE",
"422 140 CURVE",
"353 204 OFFCURVE",
"277 234 OFFCURVE",
"195 231 CURVE",
"158 41 LINE",
"204 25 LINE SMOOTH",
"267 2 OFFCURVE",
"312 -28 OFFCURVE",
"339 -63 CURVE SMOOTH",
"529 -306 LINE SMOOTH",
"624 -427 OFFCURVE",
"738 -496 OFFCURVE",
"850 -496 CURVE SMOOTH",
"889 -496 LINE",
"919 -342 LINE",
"868 -342 OFFCURVE",
"831 -330 OFFCURVE",
"808 -306 CURVE SMOOTH",
"686 -180 LINE",
"563 -28 LINE",
"800 -15 OFFCURVE",
"986 103 OFFCURVE",
"1030 324 CURVE SMOOTH",
"1062 491 OFFCURVE",
"987 596 OFFCURVE",
"811 631 CURVE SMOOTH",
"740 645 LINE SMOOTH",
"623 668 OFFCURVE",
"551 692 OFFCURVE",
"525 717 CURVE SMOOTH",
"499 742 OFFCURVE",
"491 779 OFFCURVE",
"501 829 CURVE SMOOTH",
"522 940 OFFCURVE",
"614 993 OFFCURVE",
"781 993 CURVE SMOOTH",
"892 993 OFFCURVE",
"992 962 OFFCURVE",
"1085 901 CURVE",
"1120 1081 LINE"
);
}
);
width = 1233;
}
);
note = uni023F;
unicode = 023F;
},
{
glyphname = uni0240;
lastChange = "2018-11-11 15:31:49 +0000";
layers = (
{
layerId = "0E6DE79C-D280-4215-AD87-69B89CD8F3FA";
paths = (
{
closed = 1;
nodes = (
"975 975 LINE",
"175 170 LINE",
"172 156 LINE",
"142 0 LINE",
"202 0 OFFCURVE",
"248 -21 OFFCURVE",
"281 -63 CURVE SMOOTH",
"471 -306 LINE SMOOTH",
"566 -427 OFFCURVE",
"680 -496 OFFCURVE",
"792 -496 CURVE SMOOTH",
"883 -496 LINE",
"913 -342 LINE",
"861 -342 LINE SMOOTH",
"810 -342 OFFCURVE",
"773 -330 OFFCURVE",
"750 -306 CURVE SMOOTH",
"627 -180 LINE",
"414 84 LINE SMOOTH",
"397 105 OFFCURVE",
"374 122 OFFCURVE",
"343 133 CURVE",
"1165 954 LINE",
"1197 1122 LINE",
"384 1122 LINE",
"356 975 LINE"
);
}
);
width = 1233;
}
);
note = uni0240;
unicode = 0240;
},
{
glyphname = uni0241;
lastChange = "2018-11-11 15:31:49 +0000";
layers = (
{
layerId = "0E6DE79C-D280-4215-AD87-69B89CD8F3FA";
paths = (
{
closed = 1;
nodes = (
"970 1327 OFFCURVE",
"1060 1224 OFFCURVE",
"1025 1047 CURVE SMOOTH",
"990 870 OFFCURVE",
"860 766 OFFCURVE",
"673 766 CURVE SMOOTH",
"471 766 LINE",
"322 0 LINE",
"524 0 LINE",
"641 600 LINE",
"976 600 OFFCURVE",
"1179 752 OFFCURVE",
"1236 1047 CURVE SMOOTH",
"1292 1339 OFFCURVE",
"1147 1493 OFFCURVE",
"814 1493 CURVE SMOOTH",
"519 1493 LINE SMOOTH",
"351 1493 OFFCURVE",
"181 1390 OFFCURVE",
"134 1149 CURVE SMOOTH",
"120 1079 LINE",
"276 1079 LINE",
"286 1128 LINE SMOOTH",
"315 1280 OFFCURVE",
"415 1327 OFFCURVE",
"487 1327 CURVE SMOOTH",
"782 1327 LINE SMOOTH"
);
}
);
width = 1233;
}
);
note = uni0241;
unicode = 0241;
},
{
glyphname = uni0244;
lastChange = "2018-11-11 15:31:49 +0000";
layers = (
{
layerId = "0E6DE79C-D280-4215-AD87-69B89CD8F3FA";
paths = (
{
closed = 1;
nodes = (
"80 96 OFFCURVE",
"219 -29 OFFCURVE",
"490 -29 CURVE SMOOTH",
"625 -29 OFFCURVE",
"743 11 OFFCURVE",
"842 90 CURVE SMOOTH",
"941 169 OFFCURVE",
"997 281 OFFCURVE",
"1054 577 CURVE",
"1182 577 LINE",
"1215 747 LINE",
"1087 747 LINE",
"1231 1493 LINE",
"1028 1493 LINE",
"884 747 LINE",
"351 747 LINE",
"496 1493 LINE",
"293 1493 LINE",
"149 747 LINE",
"24 747 LINE",
"-9 577 LINE",
"116 577 LINE",
"96 486 OFFCURVE",
"84 399 OFFCURVE",
"80 317 CURVE"
);
},
{
closed = 1;
nodes = (
"282 382 OFFCURVE",
"295 468 OFFCURVE",
"318 577 CURVE",
"851 577 LINE",
"817 404 OFFCURVE",
"785 297 OFFCURVE",
"756 254 CURVE SMOOTH",
"699 175 OFFCURVE",
"613 135 OFFCURVE",
"498 135 CURVE SMOOTH",
"352 135 OFFCURVE",
"279 196 OFFCURVE",
"279 319 CURVE"
);
}
);
width = 1233;
}
);
note = uni0244;
unicode = 0244;
},
{
glyphname = uni0245;
lastChange = "2018-11-11 15:31:49 +0000";
layers = (
{
layerId = "0E6DE79C-D280-4215-AD87-69B89CD8F3FA";
paths = (
{
closed = 1;
nodes = (
"1034 0 LINE",
"887 1493 LINE",
"629 1493 LINE",
"-90 0 LINE",
"125 0 LINE",
"723 1303 LINE",
"836 0 LINE"
);
}
);
width = 1233;
}
);
note = uni0245;
unicode = 0245;
},
{
glyphname = uni024C;
lastChange = "2018-11-11 15:31:49 +0000";
layers = (
{
layerId = "0E6DE79C-D280-4215-AD87-69B89CD8F3FA";
paths = (
{
closed = 1;
nodes = (
"867 1327 OFFCURVE",
"948 1259 OFFCURVE",
"948 1110 CURVE SMOOTH",
"948 921 OFFCURVE",
"807 797 OFFCURVE",
"590 797 CURVE SMOOTH",
"445 797 LINE",
"547 1327 LINE",
"686 1327 LINE SMOOTH"
);
},
{
closed = 1;
nodes = (
"1003 736 OFFCURVE",
"1151 907 OFFCURVE",
"1151 1151 CURVE SMOOTH",
"1151 1368 OFFCURVE",
"993 1493 OFFCURVE",
"717 1493 CURVE SMOOTH",
"375 1493 LINE",
"240 797 LINE",
"31 797 LINE",
"-1 631 LINE",
"208 631 LINE",
"86 0 LINE",
"289 0 LINE",
"412 631 LINE",
"530 631 LINE SMOOTH",
"677 631 OFFCURVE",
"734 585 OFFCURVE",
"793 377 CURVE SMOOTH",
"899 0 LINE",
"1100 0 LINE",
"979 408 LINE SMOOTH",
"943 526 OFFCURVE",
"911 603 OFFCURVE",
"882 638 CURVE SMOOTH",
"853 673 OFFCURVE",
"814 696 OFFCURVE",
"766 705 CURVE"
);
}
);
width = 1233;
}
);
note = uni024C;
unicode = 024C;
},
{
glyphname = uni024D;
lastChange = "2018-11-11 15:31:49 +0000";
layers = (
{
layerId = "0E6DE79C-D280-4215-AD87-69B89CD8F3FA";
paths = (
{
closed = 1;
nodes = (
"1164 1123 OFFCURVE",
"1090 1147 OFFCURVE",
"997 1147 CURVE SMOOTH",
"812 1147 OFFCURVE",
"667 1061 OFFCURVE",
"578 901 CURVE",
"618 1120 LINE",
"434 1120 LINE",
"336 616 LINE",
"150 616 LINE",
"118 452 LINE",
"305 452 LINE",
"217 0 LINE",
"401 0 LINE",
"489 452 LINE",
"1038 452 LINE",
"1070 616 LINE",
"524 616 LINE",
"581 820 OFFCURVE",
"728 977 OFFCURVE",
"937 977 CURVE SMOOTH",
"1042 977 OFFCURVE",
"1124 948 OFFCURVE",
"1184 889 CURVE",
"1219 1075 LINE"
);
}
);
width = 1233;
}
);
note = uni024D;
unicode = 024D;
},
{
glyphname = uni0250;
lastChange = "2018-11-11 15:31:49 +0000";
layers = (
{
layerId = "0E6DE79C-D280-4215-AD87-69B89CD8F3FA";
paths = (
{
closed = 1;
nodes = (
"346 596 LINE SMOOTH",
"395 844 OFFCURVE",
"547 993 OFFCURVE",
"750 993 CURVE SMOOTH",
"894 993 OFFCURVE",
"965 915 OFFCURVE",
"938 780 CURVE SMOOTH",
"910 631 OFFCURVE",
"786 555 OFFCURVE",
"571 555 CURVE SMOOTH",
"510 555 LINE",
"338 555 LINE"
);
},
{
closed = 1;
nodes = (
"119 381 OFFCURVE",
"110 308 OFFCURVE",
"111 259 CURVE SMOOTH",
"112 210 OFFCURVE",
"122 168 OFFCURVE",
"141 135 CURVE SMOOTH",
"201 26 OFFCURVE",
"321 -29 OFFCURVE",
"506 -29 CURVE SMOOTH",
"623 -29 OFFCURVE",
"753 -3 OFFCURVE",
"898 49 CURVE",
"934 233 LINE",
"799 164 OFFCURVE",
"662 127 OFFCURVE",
"537 127 CURVE SMOOTH",
"341 127 OFFCURVE",
"271 203 OFFCURVE",
"304 382 CURVE SMOOTH",
"310 411 LINE",
"557 411 LINE SMOOTH",
"881 411 OFFCURVE",
"1076 543 OFFCURVE",
"1125 792 CURVE SMOOTH",
"1166 1008 OFFCURVE",
"1047 1147 OFFCURVE",
"819 1147 CURVE SMOOTH",
"648 1147 OFFCURVE",
"519 1085 OFFCURVE",
"415 952 CURVE",
"447 1118 LINE",
"262 1118 LINE",
"138 479 LINE SMOOTH"
);
}
);
width = 1233;
}
);
note = uni0250;
unicode = 0250;
},
{
glyphname = uni0251;
lastChange = "2018-11-11 15:31:49 +0000";
layers = (
{
layerId = "0E6DE79C-D280-4215-AD87-69B89CD8F3FA";
paths = (
{
closed = 1;
nodes = (
"936 1088 OFFCURVE",
"842 1147 OFFCURVE",
"707 1147 CURVE SMOOTH",
"438 1147 OFFCURVE",
"229 927 OFFCURVE",
"158 563 CURVE SMOOTH",
"86 194 OFFCURVE",
"208 -29 OFFCURVE",
"479 -29 CURVE SMOOTH",
"612 -29 OFFCURVE",
"728 30 OFFCURVE",
"811 141 CURVE",
"783 0 LINE",
"967 0 LINE",
"1184 1116 LINE",
"1000 1116 LINE",
"973 977 LINE"
);
},
{
closed = 1;
nodes = (
"541 955 OFFCURVE",
"615 991 OFFCURVE",
"704 991 CURVE SMOOTH",
"881 991 OFFCURVE",
"947 843 OFFCURVE",
"892 559 CURVE SMOOTH",
"837 276 OFFCURVE",
"713 127 OFFCURVE",
"536 127 CURVE SMOOTH",
"447 127 OFFCURVE",
"387 163 OFFCURVE",
"356 236 CURVE SMOOTH",
"293 381 OFFCURVE",
"363 737 OFFCURVE",
"482 882 CURVE SMOOTH"
);
}
);
width = 1233;
}
);
note = uni0251;
unicode = 0251;
},
{
glyphname = uni0252;
lastChange = "2018-11-11 15:31:49 +0000";
layers = (
{
layerId = "0E6DE79C-D280-4215-AD87-69B89CD8F3FA";
paths = (
{
closed = 1;
nodes = (
"297 30 OFFCURVE",
"391 -29 OFFCURVE",
"526 -29 CURVE SMOOTH",
"795 -29 OFFCURVE",
"1004 191 OFFCURVE",
"1075 555 CURVE SMOOTH",
"1147 924 OFFCURVE",
"1025 1147 OFFCURVE",
"754 1147 CURVE SMOOTH",
"621 1147 OFFCURVE",
"505 1088 OFFCURVE",
"422 977 CURVE",
"450 1118 LINE",
"266 1118 LINE",
"49 2 LINE",
"233 2 LINE",
"260 141 LINE"
);
},
{
closed = 1;
nodes = (
"692 163 OFFCURVE",
"618 127 OFFCURVE",
"529 127 CURVE SMOOTH",
"352 127 OFFCURVE",
"286 275 OFFCURVE",
"341 559 CURVE SMOOTH",
"396 842 OFFCURVE",
"520 991 OFFCURVE",
"697 991 CURVE SMOOTH",
"786 991 OFFCURVE",
"846 955 OFFCURVE",
"877 882 CURVE SMOOTH",
"940 737 OFFCURVE",
"870 381 OFFCURVE",
"751 236 CURVE SMOOTH"
);
}
);
width = 1233;
}
);
note = uni0252;
unicode = 0252;
},
{
glyphname = uni0253;
lastChange = "2018-11-11 15:31:49 +0000";
layers = (
{
layerId = "0E6DE79C-D280-4215-AD87-69B89CD8F3FA";
paths = (
{
closed = 1;
nodes = (
"652 163 OFFCURVE",
"578 127 OFFCURVE",
"489 127 CURVE SMOOTH",
"310 127 OFFCURVE",
"246 276 OFFCURVE",
"301 559 CURVE SMOOTH",
"357 843 OFFCURVE",
"478 991 OFFCURVE",
"657 991 CURVE SMOOTH",
"746 991 OFFCURVE",
"806 955 OFFCURVE",
"837 882 CURVE SMOOTH",
"900 737 OFFCURVE",
"831 381 OFFCURVE",
"712 236 CURVE SMOOTH"
);
},
{
closed = 1;
nodes = (
"450 1321 OFFCURVE",
"525 1400 OFFCURVE",
"645 1400 CURVE SMOOTH",
"830 1400 LINE",
"860 1556 LINE",
"655 1556 LINE SMOOTH",
"436 1556 OFFCURVE",
"283 1410 OFFCURVE",
"232 1150 CURVE SMOOTH",
"203 1002 LINE",
"9 0 LINE",
"193 0 LINE",
"220 141 LINE",
"260 30 OFFCURVE",
"353 -29 OFFCURVE",
"486 -29 CURVE SMOOTH",
"757 -29 OFFCURVE",
"965 194 OFFCURVE",
"1037 563 CURVE SMOOTH",
"1108 927 OFFCURVE",
"986 1147 OFFCURVE",
"717 1147 CURVE SMOOTH",
"581 1147 OFFCURVE",
"464 1086 OFFCURVE",
"384 977 CURVE",
"417 1150 LINE SMOOTH"
);
}
);
width = 1233;
}
);
note = uni0253;
unicode = 0253;
},
{
glyphname = uni0254;
lastChange = "2018-11-11 15:31:49 +0000";
layers = (
{
layerId = "0E6DE79C-D280-4215-AD87-69B89CD8F3FA";
paths = (
{
closed = 1;
nodes = (
"347 953 OFFCURVE",
"452 991 OFFCURVE",
"580 991 CURVE SMOOTH",
"809 991 OFFCURVE",
"909 835 OFFCURVE",
"856 559 CURVE SMOOTH",
"801 282 OFFCURVE",
"644 127 OFFCURVE",
"413 127 CURVE SMOOTH",
"289 127 OFFCURVE",
"204 163 OFFCURVE",
"123 250 CURVE",
"86 57 LINE",
"178 -2 OFFCURVE",
"274 -29 OFFCURVE",
"382 -29 CURVE SMOOTH",
"729 -29 OFFCURVE",
"978 191 OFFCURVE",
"1050 559 CURVE SMOOTH",
"1121 927 OFFCURVE",
"958 1147 OFFCURVE",
"611 1147 CURVE SMOOTH",
"502 1147 OFFCURVE",
"390 1118 OFFCURVE",
"281 1061 CURVE",
"244 870 LINE"
);
}
);
width = 1233;
}
);
note = uni0254;
unicode = 0254;
},
{
glyphname = uni0255;
lastChange = "2018-11-11 15:31:49 +0000";
layers = (
{
layerId = "0E6DE79C-D280-4215-AD87-69B89CD8F3FA";
paths = (
{
closed = 1;
nodes = (
"587 217 OFFCURVE",
"644 255 OFFCURVE",
"711 255 CURVE SMOOTH",
"886 255 OFFCURVE",
"867 123 OFFCURVE",
"672 123 CURVE SMOOTH",
"622 123 OFFCURVE",
"578 129 OFFCURVE",
"541 142 CURVE"
);
},
{
closed = 1;
nodes = (
"518 -31 OFFCURVE",
"568 -37 OFFCURVE",
"623 -37 CURVE SMOOTH",
"1068 -37 OFFCURVE",
"1139 398 OFFCURVE",
"740 398 CURVE SMOOTH",
"609 398 OFFCURVE",
"505 339 OFFCURVE",
"426 222 CURVE",
"422 227 OFFCURVE",
"419 231 OFFCURVE",
"416 236 CURVE",
"365 312 OFFCURVE",
"352 418 OFFCURVE",
"379 555 CURVE SMOOTH",
"432 828 OFFCURVE",
"601 987 OFFCURVE",
"840 987 CURVE SMOOTH",
"947 987 OFFCURVE",
"1045 958 OFFCURVE",
"1138 901 CURVE",
"1171 1073 LINE",
"1079 1120 OFFCURVE",
"975 1143 OFFCURVE",
"862 1143 CURVE SMOOTH",
"687 1143 OFFCURVE",
"540 1091 OFFCURVE",
"419 986 CURVE SMOOTH",
"178 777 OFFCURVE",
"94 341 OFFCURVE",
"250 126 CURVE SMOOTH",
"275 92 OFFCURVE",
"305 63 OFFCURVE",
"338 40 CURVE",
"319 -16 OFFCURVE",
"302 -79 OFFCURVE",
"289 -148 CURVE",
"443 -145 LINE",
"452 -100 OFFCURVE",
"462 -58 OFFCURVE",
"473 -20 CURVE"
);
}
);
width = 1233;
}
);
note = uni0255;
unicode = 0255;
},
{
glyphname = uni0256;
lastChange = "2018-11-11 15:31:49 +0000";
layers = (
{
layerId = "0E6DE79C-D280-4215-AD87-69B89CD8F3FA";
paths = (
{
closed = 1;
nodes = (
"498 955 OFFCURVE",
"559 991 OFFCURVE",
"630 991 CURVE SMOOTH",
"701 991 OFFCURVE",
"748 955 OFFCURVE",
"771 882 CURVE SMOOTH",
"794 809 OFFCURVE",
"791 701 OFFCURVE",
"763 559 CURVE SMOOTH",
"708 276 OFFCURVE",
"604 127 OFFCURVE",
"462 127 CURVE SMOOTH",
"391 127 OFFCURVE",
"344 163 OFFCURVE",
"322 236 CURVE SMOOTH",
"278 381 OFFCURVE",
"347 737 OFFCURVE",
"448 882 CURVE SMOOTH"
);
},
{
closed = 1;
nodes = (
"820 1088 OFFCURVE",
"746 1147 OFFCURVE",
"638 1147 CURVE SMOOTH",
"399 1147 OFFCURVE",
"209 927 OFFCURVE",
"137 563 CURVE SMOOTH",
"66 194 OFFCURVE",
"169 -29 OFFCURVE",
"410 -29 CURVE SMOOTH",
"517 -29 OFFCURVE",
"610 30 OFFCURVE",
"681 141 CURVE",
"650 -20 LINE SMOOTH",
"599 -280 OFFCURVE",
"670 -426 OFFCURVE",
"847 -426 CURVE SMOOTH",
"903 -426 LINE",
"933 -270 LINE",
"927 -270 LINE SMOOTH",
"831 -270 OFFCURVE",
"800 -188 OFFCURVE",
"832 -20 CURVE SMOOTH",
"1139 1556 LINE",
"957 1556 LINE",
"845 977 LINE"
);
}
);
width = 1233;
}
);
note = uni0256;
unicode = 0256;
},
{
glyphname = uni0257;
lastChange = "2018-11-11 15:31:49 +0000";
layers = (
{
layerId = "0E6DE79C-D280-4215-AD87-69B89CD8F3FA";
paths = (
{
closed = 1;
nodes = (
"440 955 OFFCURVE",
"501 991 OFFCURVE",
"572 991 CURVE SMOOTH",
"643 991 OFFCURVE",
"690 955 OFFCURVE",
"713 882 CURVE SMOOTH",
"736 809 OFFCURVE",
"733 701 OFFCURVE",
"706 559 CURVE SMOOTH",
"650 276 OFFCURVE",
"546 127 OFFCURVE",
"404 127 CURVE SMOOTH",
"333 127 OFFCURVE",
"286 163 OFFCURVE",
"264 236 CURVE SMOOTH",
"220 381 OFFCURVE",
"289 737 OFFCURVE",
"390 882 CURVE SMOOTH"
);
},
{
closed = 1;
nodes = (
"762 1088 OFFCURVE",
"688 1147 OFFCURVE",
"581 1147 CURVE SMOOTH",
"342 1147 OFFCURVE",
"152 927 OFFCURVE",
"81 563 CURVE SMOOTH",
"10 194 OFFCURVE",
"112 -29 OFFCURVE",
"352 -29 CURVE SMOOTH",
"459 -29 OFFCURVE",
"553 30 OFFCURVE",
"624 141 CURVE",
"597 0 LINE",
"780 0 LINE",
"1003 1150 LINE SMOOTH",
"1036 1318 OFFCURVE",
"1099 1400 OFFCURVE",
"1195 1400 CURVE SMOOTH",
"1200 1400 LINE",
"1230 1556 LINE",
"1174 1556 LINE SMOOTH",
"998 1556 OFFCURVE",
"871 1410 OFFCURVE",
"820 1150 CURVE SMOOTH",
"791 1002 LINE",
"787 977 LINE"
);
}
);
width = 1233;
}
);
note = uni0257;
unicode = 0257;
},
{
glyphname = uni0258;
lastChange = "2018-11-11 15:31:49 +0000";
layers = (
{
layerId = "0E6DE79C-D280-4215-AD87-69B89CD8F3FA";
paths = (
{
closed = 1;
nodes = (
"911 516 LINE",
"909 510 LINE",
"862 266 OFFCURVE",
"702 127 OFFCURVE",
"470 127 CURVE SMOOTH",
"353 127 OFFCURVE",
"234 164 OFFCURVE",
"103 240 CURVE",
"67 57 LINE",
"196 0 OFFCURVE",
"321 -29 OFFCURVE",
"442 -29 CURVE SMOOTH",
"790 -29 OFFCURVE",
"1040 192 OFFCURVE",
"1111 559 CURVE SMOOTH",
"1180 916 OFFCURVE",
"1017 1147 OFFCURVE",
"697 1147 CURVE SMOOTH",
"412 1147 OFFCURVE",
"196 941 OFFCURVE",
"131 606 CURVE SMOOTH",
"114 516 LINE"
);
},
{
closed = 1;
nodes = (
"373 876 OFFCURVE",
"494 991 OFFCURVE",
"675 991 CURVE SMOOTH",
"852 991 OFFCURVE",
"951 867 OFFCURVE",
"931 659 CURVE",
"528 660 OFFCURVE",
"326 660 OFFCURVE",
"326 660 CURVE"
);
}
);
width = 1233;
}
);
note = uni0258;
unicode = 0258;
},
{
glyphname = uni0259;
lastChange = "2018-11-11 15:31:49 +0000";
layers = (
{
layerId = "0E6DE79C-D280-4215-AD87-69B89CD8F3FA";
paths = (
{
closed = 1;
nodes = (
"48 177 OFFCURVE",
"184 -29 OFFCURVE",
"469 -29 CURVE SMOOTH",
"789 -29 OFFCURVE",
"1042 202 OFFCURVE",
"1111 559 CURVE SMOOTH",
"1182 926 OFFCURVE",
"1018 1147 OFFCURVE",
"670 1147 CURVE SMOOTH",
"549 1147 OFFCURVE",
"414 1118 OFFCURVE",
"263 1061 CURVE",
"227 878 LINE",
"387 954 OFFCURVE",
"521 991 OFFCURVE",
"638 991 CURVE SMOOTH",
"870 991 OFFCURVE",
"976 852 OFFCURVE",
"929 608 CURVE",
"927 602 LINE",
"130 602 LINE",
"113 512 LINE SMOOTH"
);
},
{
closed = 1;
nodes = (
"830 251 OFFCURVE",
"684 127 OFFCURVE",
"507 127 CURVE SMOOTH",
"326 127 OFFCURVE",
"250 242 OFFCURVE",
"286 458 CURVE",
"893 459 LINE"
);
}
);
width = 1233;
}
);
note = uni0259;
unicode = 0259;
},
{
glyphname = uni025A;
lastChange = "2018-11-11 15:31:49 +0000";
layers = (
{
layerId = "0E6DE79C-D280-4215-AD87-69B89CD8F3FA";
paths = (
{
closed = 1;
nodes = (
"460 156 OFFCURVE",
"392 127 OFFCURVE",
"307 127 CURVE SMOOTH",
"238 127 OFFCURVE",
"189 157 OFFCURVE",
"160 217 CURVE",
"147 240 OFFCURVE",
"138 275 OFFCURVE",
"132 321 CURVE",
"670 677 LINE",
"668 640 OFFCURVE",
"663 600 OFFCURVE",
"654 559 CURVE",
"629 421 OFFCURVE",
"581 306 OFFCURVE",
"511 214 CURVE"
);
},
{
closed = 1;
nodes = (
"900 597 OFFCURVE",
"962 478 OFFCURVE",
"1138 478 CURVE SMOOTH",
"1187 478 LINE",
"1218 634 LINE",
"1185 634 LINE SMOOTH",
"1132 634 OFFCURVE",
"1099 650 OFFCURVE",
"1086 682 CURVE SMOOTH",
"1073 715 OFFCURVE",
"1076 782 OFFCURVE",
"1096 884 CURVE SMOOTH",
"1125 1032 LINE",
"985 1032 LINE",
"808 915 LINE",
"799 942 OFFCURVE",
"788 968 OFFCURVE",
"775 991 CURVE SMOOTH",
"716 1095 OFFCURVE",
"618 1147 OFFCURVE",
"482 1147 CURVE SMOOTH",
"374 1147 OFFCURVE",
"263 1117 OFFCURVE",
"152 1061 CURVE",
"118 887 LINE",
"174 922 OFFCURVE",
"229 948 OFFCURVE",
"283 965 CURVE SMOOTH",
"388 998 OFFCURVE",
"590 1025 OFFCURVE",
"642 892 CURVE SMOOTH",
"651 869 OFFCURVE",
"658 844 OFFCURVE",
"663 818 CURVE",
"-6 375 LINE",
"-19 167 OFFCURVE",
"48 -29 OFFCURVE",
"279 -29 CURVE SMOOTH",
"534 -29 OFFCURVE",
"740 202 OFFCURVE",
"812 569 CURVE SMOOTH",
"827 648 OFFCURVE",
"833 719 OFFCURVE",
"830 783 CURVE",
"952 864 LINE"
);
}
);
width = 1233;
}
);
note = uni025A;
unicode = 025A;
},
